<svg xmlns="http://www.w3.org/2000/svg" viewBox="0 0 220 260" width="220" height="260">
  <!-- Low-poly standing deer -->
  <!-- antlers -->
  <polygon points="88,20 96,70 82,70" fill="#7A5230"/>
  <polygon points="70,30 90,55 78,66" fill="#7A5230"/>
  <polygon points="60,48 84,60 74,70" fill="#7A5230"/>
  <polygon points="132,20 138,70 124,70" fill="#7A5230"/>
  <polygon points="150,30 140,55 128,60" fill="#7A5230"/>
  <polygon points="160,48 136,60 146,70" fill="#7A5230"/>
  <!-- head -->
  <polygon points="86,62 134,62 128,120 92,120" fill="#C08A52"/>
  <polygon points="110,62 134,62 128,120 110,120" fill="#B07A44"/>
  <!-- snout -->
  <polygon points="96,110 124,110 118,140 102,140" fill="#A56C3A"/>
  <polygon points="102,132 118,132 110,146" fill="#2A1C14"/>
  <!-- eyes -->
  <polygon points="97,88 106,86 101,97" fill="#2A1C14"/>
  <polygon points="123,88 114,86 119,97" fill="#2A1C14"/>
  <!-- ears -->
  <polygon points="70,70 92,78 78,96" fill="#B07A44"/>
  <polygon points="150,70 128,78 142,96" fill="#B07A44"/>
  <!-- neck + body -->
  <polygon points="98,118 132,118 175,150 168,210 70,210 78,160" fill="#C99B63"/>
  <polygon points="120,118 132,118 175,150 168,210 120,210" fill="#B98B53"/>
  <!-- belly patch -->
  <polygon points="96,180 150,180 145,210 100,210" fill="#EBDCC0"/>
  <!-- legs -->
  <polygon points="80,205 96,205 92,252 82,252" fill="#8A5C34"/>
  <polygon points="148,205 164,205 160,252 150,252" fill="#8A5C34"/>
  <polygon points="106,205 120,205 118,252 108,252" fill="#7A4E2C"/>
  <polygon points="130,205 144,205 142,252 132,252" fill="#7A4E2C"/>
</svg>
