<svg xmlns="http://www.w3.org/2000/svg" viewBox="0 0 300 520" width="300" height="520">
  <!-- ================= MOUTHPIECE + NECK ================= -->
  <!-- mouthpiece tip (dark) -->
  <polygon points="150,20 168,26 152,40" fill="#3A2416"/>
  <polygon points="150,20 152,40 138,34" fill="#8A5316"/>
  <!-- ligature band -->
  <polygon points="138,34 152,40 150,52" fill="#C6842F"/>
  <polygon points="138,34 150,52 136,48" fill="#B5701F"/>
  <!-- neck upper -->
  <polygon points="150,52 136,48 148,70" fill="#E0A23B"/>
  <polygon points="150,52 148,70 164,64" fill="#F4D58D"/>
  <polygon points="136,48 148,70 132,66" fill="#C6842F"/>
  <!-- neck curve -->
  <polygon points="148,70 164,64 158,92" fill="#E9C46A"/>
  <polygon points="148,70 158,92 138,88" fill="#E0A23B"/>
  <polygon points="132,66 148,70 138,88" fill="#B5701F"/>
  <polygon points="164,64 158,92 172,86" fill="#F4D58D"/>
  <!-- neck receiver ring -->
  <polygon points="138,88 158,92 156,108" fill="#C6842F"/>
  <polygon points="138,88 156,108 136,104" fill="#8A5316"/>
  <polygon points="158,92 172,86 174,106" fill="#E9C46A"/>
  <polygon points="158,92 174,106 156,108" fill="#E0A23B"/>

  <!-- ================= MAIN BODY TUBE ================= -->
  <!-- top of body / octave -->
  <polygon points="136,104 156,108 154,140" fill="#E0A23B"/>
  <polygon points="136,104 154,140 132,138" fill="#C6842F"/>
  <polygon points="156,108 174,106 172,142" fill="#F4D58D"/>
  <polygon points="156,108 172,142 154,140" fill="#E9C46A"/>

  <polygon points="132,138 154,140 152,178" fill="#E9C46A"/>
  <polygon points="132,138 152,178 130,176" fill="#C6842F"/>
  <polygon points="154,140 172,142 170,180" fill="#F4D58D"/>
  <polygon points="154,140 170,180 152,178" fill="#E0A23B"/>

  <polygon points="130,176 152,178 150,216" fill="#E0A23B"/>
  <polygon points="130,176 150,216 128,214" fill="#B5701F"/>
  <polygon points="152,178 170,180 169,218" fill="#E9C46A"/>
  <polygon points="152,178 169,218 150,216" fill="#F4D58D"/>

  <polygon points="128,214 150,216 149,256" fill="#E9C46A"/>
  <polygon points="128,214 149,256 127,254" fill="#C6842F"/>
  <polygon points="150,216 169,218 168,258" fill="#F4D58D"/>
  <polygon points="150,216 168,258 149,256" fill="#E0A23B"/>

  <polygon points="127,254 149,256 149,296" fill="#E0A23B"/>
  <polygon points="127,254 149,296 127,294" fill="#B5701F"/>
  <polygon points="149,256 168,258 168,298" fill="#E9C46A"/>
  <polygon points="149,256 168,298 149,296" fill="#F4D58D"/>

  <polygon points="127,294 149,296 151,334" fill="#E9C46A"/>
  <polygon points="127,294 151,334 128,334" fill="#C6842F"/>
  <polygon points="149,296 168,298 169,336" fill="#F4D58D"/>
  <polygon points="149,296 169,336 151,334" fill="#E0A23B"/>

  <!-- body starts curving right (lower bow) -->
  <polygon points="128,334 151,334 157,372" fill="#E0A23B"/>
  <polygon points="128,334 157,372 132,374" fill="#B5701F"/>
  <polygon points="151,334 169,336 175,370" fill="#E9C46A"/>
  <polygon points="151,334 175,370 157,372" fill="#F4D58D"/>

  <!-- ================= LOWER BOW (U-curve) ================= -->
  <polygon points="132,374 157,372 168,404" fill="#C6842F"/>
  <polygon points="132,374 168,404 140,410" fill="#8A5316"/>
  <polygon points="157,372 175,370 190,398" fill="#E0A23B"/>
  <polygon points="157,372 190,398 168,404" fill="#E9C46A"/>

  <polygon points="140,410 168,404 182,432" fill="#B5701F"/>
  <polygon points="140,410 182,432 152,440" fill="#8A5316"/>
  <polygon points="168,404 190,398 206,424" fill="#E0A23B"/>
  <polygon points="168,404 206,424 182,432" fill="#C6842F"/>

  <polygon points="152,440 182,432 200,452" fill="#8A5316"/>
  <polygon points="152,440 200,452 172,458" fill="#3A2416"/>
  <polygon points="182,432 206,424 222,448" fill="#C6842F"/>
  <polygon points="182,432 222,448 200,452" fill="#B5701F"/>

  <!-- bow bottom -->
  <polygon points="172,458 200,452 210,470" fill="#8A5316"/>
  <polygon points="200,452 222,448 232,466" fill="#B5701F"/>
  <polygon points="200,452 232,466 210,470" fill="#8A5316"/>

  <!-- ================= BELL (flaring up-right) ================= -->
  <polygon points="210,470 232,466 246,438" fill="#C6842F"/>
  <polygon points="210,470 246,438 224,442" fill="#8A5316"/>
  <polygon points="232,466 258,458 246,438" fill="#E0A23B"/>

  <polygon points="224,442 246,438 252,406" fill="#B5701F"/>
  <polygon points="246,438 258,458 274,420" fill="#E9C46A"/>
  <polygon points="246,438 274,420 252,406" fill="#E0A23B"/>

  <polygon points="252,406 274,420 268,382" fill="#F4D58D"/>
  <polygon points="252,406 268,382 240,388" fill="#E9C46A"/>
  <polygon points="240,388 268,382 252,354" fill="#E0A23B"/>
  <polygon points="240,388 252,354 224,362" fill="#C6842F"/>

  <!-- bell rim flare -->
  <polygon points="268,382 268,346 252,354" fill="#F4D58D"/>
  <polygon points="268,346 252,354 244,326" fill="#E9C46A"/>
  <polygon points="252,354 244,326 224,362" fill="#E0A23B"/>
  <polygon points="224,362 244,326 214,340" fill="#B5701F"/>
  <polygon points="224,362 214,340 210,372" fill="#8A5316"/>

  <!-- bell rim highlight -->
  <polygon points="268,346 244,326 258,314" fill="#F4D58D"/>
  <polygon points="244,326 258,314 234,308" fill="#E9C46A"/>
  <polygon points="244,326 234,308 214,340" fill="#E0A23B"/>
  <polygon points="214,340 234,308 208,318" fill="#C6842F"/>

  <!-- ================= KEY PADS (down the body) ================= -->
  <g fill="#C6842F" stroke="#8A5316" stroke-width="1.5">
    <circle cx="176" cy="128" r="8"/>
    <circle cx="176" cy="166" r="8"/>
    <circle cx="175" cy="204" r="8"/>
    <circle cx="174" cy="244" r="8"/>
    <circle cx="174" cy="284" r="8"/>
    <circle cx="176" cy="322" r="8"/>
  </g>
  <g fill="#E9C46A">
    <circle cx="176" cy="128" r="3"/>
    <circle cx="176" cy="166" r="3"/>
    <circle cx="175" cy="204" r="3"/>
    <circle cx="174" cy="244" r="3"/>
    <circle cx="174" cy="284" r="3"/>
    <circle cx="176" cy="322" r="3"/>
  </g>

  <!-- left-side pads -->
  <g fill="#C6842F" stroke="#8A5316" stroke-width="1.2">
    <circle cx="120" cy="150" r="6"/>
    <circle cx="118" cy="230" r="6"/>
    <circle cx="118" cy="308" r="6"/>
  </g>
  <g fill="#E9C46A">
    <circle cx="120" cy="150" r="2.4"/>
    <circle cx="118" cy="230" r="2.4"/>
    <circle cx="118" cy="308" r="2.4"/>
  </g>

  <!-- key rods (thin connectors) -->
  <g stroke="#8A5316" stroke-width="2" fill="none" opacity="0.7">
    <line x1="164" y1="128" x2="176" y2="128"/>
    <line x1="162" y1="204" x2="175" y2="204"/>
    <line x1="161" y1="284" x2="174" y2="284"/>
  </g>
</svg>
