<svg width="24" height="24" viewBox="0 0 24 24" fill="none" xmlns="http://www.w3.org/2000/svg">
<g clip-path="url(#clip0_288_1114)">
<rect width="24" height="24" rx="12" fill="white"/>
<g clip-path="url(#clip1_288_1114)">
<rect width="32" height="24" transform="translate(-6)" fill="white"/>
<path fill-rule="evenodd" clip-rule="evenodd" d="M-6 0V24H26V0H-6Z" fill="#2E42A5"/>
<g clip-path="url(#clip2_288_1114)">
<rect width="18" height="14" transform="translate(-6)" fill="#2E42A5"/>
<path d="M-8.00427 13.0001L-4.04332 14.7373L12.0899 1.88903L14.1792 -0.692505L9.94352 -1.27313L3.36317 4.26356L-1.93333 7.994L-8.00427 13.0001Z" fill="#F7FCFF"/>
<path d="M-7.46204 14.2165L-5.44411 15.2246L13.4289 -0.933105H10.5955L-7.46204 14.2165Z" fill="#F50100"/>
<path d="M14.0043 13.0001L10.0433 14.7373L-6.08987 1.88903L-8.17919 -0.692505L-3.94352 -1.27313L2.63683 4.26356L7.93333 7.994L14.0043 13.0001Z" fill="#F7FCFF"/>
<path d="M13.8691 13.8737L11.8512 14.8818L3.81489 7.96388L1.43229 7.19095L-8.3802 -0.68358H-5.54681L4.26018 7.00404L6.86513 7.93087L13.8691 13.8737Z" fill="#F50100"/>
<path fill-rule="evenodd" clip-rule="evenodd" d="M3.98451 0H1.98451V6H-6V8H1.98451V14H3.98451V8H12V6H3.98451V0Z" fill="#F50100"/>
<path fill-rule="evenodd" clip-rule="evenodd" d="M0.484511 0H5.48451V4.5H12V9.5H5.48451L5.5 14H0.5L0.484511 9.5H-6V4.5H0.484511V0ZM1.98451 6H-6V8H1.98451V14H3.98451V8H12V6H3.98451V0H1.98451V6Z" fill="#F7FCFF"/>
</g>
<g clip-path="url(#clip3_288_1114)">
<path d="M3 20.5L1.69835 21.7029L1.82725 19.9352L0.0752163 19.6676L1.53761 18.6662L0.654506 17.1295L2.34917 17.6485L3 16L3.65083 17.6485L5.34549 17.1295L4.46239 18.6662L5.92478 19.6676L4.17275 19.9352L4.30165 21.7029L3 20.5Z" fill="#F7FCFF"/>
<path d="M16 13L15.1322 13.8019L15.2182 12.6235L14.0501 12.445L15.0251 11.7775L14.4363 10.753L15.5661 11.099L16 10L16.4339 11.099L17.5637 10.753L16.9749 11.7775L17.9499 12.445L16.7818 12.6235L16.8678 13.8019L16 13Z" fill="#F7FCFF"/>
<path d="M18 5L17.1322 5.80194L17.2182 4.62349L16.0501 4.44504L17.0251 3.77748L16.4363 2.75302L17.5661 3.09903L18 2L18.4339 3.09903L19.5637 2.75302L18.9749 3.77748L19.9499 4.44504L18.7818 4.62349L18.8678 5.80194L18 5Z" fill="#F7FCFF"/>
<path d="M23 9L22.1322 9.80194L22.2182 8.62349L21.0501 8.44504L22.0251 7.77748L21.4363 6.75302L22.5661 7.09903L23 6L23.4339 7.09903L24.5637 6.75302L23.9749 7.77748L24.9499 8.44504L23.7818 8.62349L23.8678 9.80194L23 9Z" fill="#F7FCFF"/>
<path d="M19 22L18.1322 22.8019L18.2182 21.6235L17.0501 21.445L18.0251 20.7775L17.4363 19.753L18.5661 20.099L19 19L19.4339 20.099L20.5637 19.753L19.9749 20.7775L20.9499 21.445L19.7818 21.6235L19.8678 22.8019L19 22Z" fill="#F7FCFF"/>
<path d="M22.5 14.25L21.6183 14.7135L21.7867 13.7318L21.0734 13.0365L22.0592 12.8932L22.5 12L22.9408 12.8932L23.9266 13.0365L23.2133 13.7318L23.3817 14.7135L22.5 14.25Z" fill="#F7FCFF"/>
</g>
</g>
</g>
<defs>
<clipPath id="clip0_288_1114">
<rect width="24" height="24" rx="12" fill="white"/>
</clipPath>
<clipPath id="clip1_288_1114">
<rect width="32" height="24" fill="white" transform="translate(-6)"/>
</clipPath>
<clipPath id="clip2_288_1114">
<rect width="18" height="14" fill="white" transform="translate(-6)"/>
</clipPath>
<clipPath id="clip3_288_1114">
<rect width="25" height="21" fill="white" transform="translate(0 2)"/>
</clipPath>
</defs>
</svg>
