<svg width="15" height="15" viewBox="0 0 15 15" fill="none" xmlns="http://www.w3.org/2000/svg">
<g clip-path="url(#clip0_1414_5014)">
<rect width="15" height="15" rx="7.5" fill="white"/>
<path d="M7.70588 11.6176H7.29412L7.39706 9.97059C7.39124 9.88385 7.3496 9.86105 7.19118 9.86765L5.54412 10.0735C5.54412 10.0735 5.85294 9.66176 5.85294 9.45588C5.85294 9.25 4 7.91176 4 7.91176C4 7.91176 4.41176 7.80882 4.51471 7.70588C4.61765 7.60294 4.10294 6.47059 4.10294 6.47059C4.10294 6.47059 5.14906 6.88235 5.23529 6.77941C5.32153 6.67647 5.44118 6.26471 5.44118 6.26471C5.44118 6.26471 6.26471 7.19118 6.47059 7.19118C6.67647 7.19118 6.05882 4.92647 6.05882 4.92647C6.05882 4.92647 6.57353 5.33824 6.77941 5.33824C6.98529 5.33824 7.5 4 7.5 4C7.5 4 8.01471 5.33824 8.11765 5.33824C8.22059 5.33824 8.94118 4.92647 8.94118 4.92647C8.94118 4.92647 8.42647 7.08824 8.52941 7.19118C8.63235 7.29412 9.55882 6.26471 9.55882 6.26471C9.55882 6.26471 9.66176 6.67647 9.76471 6.77941C9.86765 6.88235 10.8971 6.47059 10.8971 6.47059C10.8971 6.47059 10.3824 7.60294 10.4853 7.70588C10.5882 7.80882 11 7.91176 11 7.91176C11 7.91176 9.14706 9.25 9.14706 9.45588C9.14706 9.66176 9.35294 10.0735 9.35294 10.0735L7.80882 9.86765C7.68471 9.83206 7.64168 9.85907 7.60294 9.97059L7.70588 11.6176Z" fill="#D52B1E"/>
<rect x="13" width="5" height="15" fill="#D52B1E"/>
<rect x="-3" width="5" height="15" fill="#D52B1E"/>
</g>
<defs>
<clipPath id="clip0_1414_5014">
<rect width="15" height="15" rx="7.5" fill="white"/>
</clipPath>
</defs>
</svg>
