<svg width="32" height="32" viewBox="0 0 32 32" fill="none" xmlns="http://www.w3.org/2000/svg">
<g clip-path="url(#clip0_288_1910)">
<rect width="32" height="32" rx="16" fill="white"/>
<rect y="-2" width="37" height="11" fill="#FECA00"/>
<rect y="24" width="37" height="10" fill="#E31D1C"/>
<g clip-path="url(#clip1_288_1910)">
<rect width="32" height="32" fill="white"/>
<path fill-rule="evenodd" clip-rule="evenodd" d="M0 0V32H32V0H0Z" fill="#2E42A5"/>
<mask id="mask0_288_1910" style="mask-type:luminance" maskUnits="userSpaceOnUse" x="0" y="4" width="32" height="24">
<path fill-rule="evenodd" clip-rule="evenodd" d="M0 4V28H32V4H0Z" fill="white"/>
</mask>
<g mask="url(#mask0_288_1910)">
<path fill-rule="evenodd" clip-rule="evenodd" d="M0 0V16H32V0H0Z" fill="#FECA00"/>
<path fill-rule="evenodd" clip-rule="evenodd" d="M0 22V32H32V22H0Z" fill="#E31D1C"/>
</g>
</g>
<rect y="22" width="37" height="10" fill="#E31D1C"/>
<rect x="-2" width="37" height="16" fill="#FECA00"/>
<path fill-rule="evenodd" clip-rule="evenodd" d="M9.71704 9.7144C9.71704 9.7144 13.8733 7.83677 14.2511 8.05008C14.6288 8.26339 14.72 8.87136 15.0461 8.87136C15.3723 8.87136 16.0288 8.67924 16.3029 8.67924C16.5771 8.67924 16.848 8.87136 16.848 8.87136H18.0187V8.22037L23.3269 9.7144C23.3269 9.7144 20.2309 10.1189 19.9975 10.1189C19.7642 10.1189 19.9975 10.4525 19.9975 10.4525C19.9975 10.4525 19.556 10.1189 18.8837 10.1189C18.2114 10.1189 16.848 10.8134 16.848 10.8134L17.3436 11.8796L16.848 12.1931L16.3029 11.8796C16.3029 11.8796 16.3382 11.0028 16.1035 11.0028C15.8687 11.0028 15.6975 11.5661 15.6975 11.8796C15.6975 12.1931 15.0461 12.1931 15.0461 12.1931L15.3371 11.6062C15.3371 11.6062 15.6263 10.6332 15.0461 10.6332C14.4659 10.6332 11.8213 10.1189 11.8213 10.1189L11.145 10.4525L11.3868 9.7144H9.71704Z" fill="#7B2900"/>
<path d="M15.9221 22.0557C15.9225 22.0795 15.9667 25.2458 15.7102 25.5176C15.4529 25.7899 15.1396 25.5177 14.7337 25.5176C14.3295 25.5176 15.5347 22.8341 15.5462 22.8086L15.9221 22.0557ZM12.762 15.748C12.6125 16.5018 12.5892 17.926 13.0608 19.0908C13.5306 20.2511 15.3014 21.1664 15.3157 21.1738C15.3157 21.1738 16.2155 21.374 14.8489 21.5186C13.482 21.6631 12.15 21.2323 11.5012 19.7744C10.8541 18.3195 11.4985 15.1006 11.5012 15.0869L12.762 15.748Z" fill="#E31D1C"/>
<path d="M15.6744 22.5586C15.6744 22.5586 14.9577 25.6396 14.4576 25.6396C13.9581 25.6394 14.4576 25.2168 14.4576 24.9502C14.4572 24.6861 13.9627 25.2093 13.9557 25.2168L14.4576 23.4248L15.1656 22.5586H15.6744ZM11.485 14.7744C11.3597 15.8999 11.3591 18.8109 12.0807 20.0723C12.8024 21.3335 15.9684 21.8633 15.9684 21.8633C15.9684 21.8633 15.3439 22.3252 14.1988 22.541C13.0537 22.7569 10.8702 21.4748 10.3268 19.2979C9.78345 17.1209 10.6314 14.165 10.6314 14.165L11.485 14.7744Z" fill="#2E42A5"/>
<path d="M15.0613 22.7197C15.0508 22.7453 14.6572 23.7031 14.1726 23.7031C13.6814 23.7031 14.1721 23.416 13.6863 23.416C13.2082 23.4156 13.8792 22.7388 13.8982 22.7197H15.0613ZM10.6208 13.9297C10.2352 15.0142 10.3546 18.1269 10.6208 19.6719C10.8875 21.2166 13.407 22.1475 13.407 22.1475C13.407 22.1475 12.7824 22.6093 11.6374 22.8252C10.4924 23.041 9.76753 21.5455 9.49779 19.6719C9.2281 17.798 9.7683 13.3203 9.7683 13.3203L10.6208 13.9297Z" fill="#FECA00"/>
<path d="M15.9446 22.0557C15.9442 22.0795 15.9 25.2458 16.1565 25.5176C16.4138 25.7899 16.7271 25.5177 17.133 25.5176C17.5372 25.5176 16.332 22.8341 16.3205 22.8086L15.9446 22.0557ZM19.1047 15.748C19.2542 16.5018 19.2775 17.926 18.8059 19.0908C18.3361 20.2511 16.5653 21.1664 16.551 21.1738C16.551 21.1738 15.6512 21.374 17.0178 21.5186C18.3847 21.6631 19.7167 21.2323 20.3655 19.7744C21.0126 18.3195 20.3682 15.1006 20.3655 15.0869L19.1047 15.748Z" fill="#E31D1C"/>
<path d="M16.1923 22.5586C16.1923 22.5586 16.909 25.6396 17.4091 25.6396C17.9086 25.6394 17.4091 25.2168 17.4091 24.9502C17.4095 24.6861 17.904 25.2093 17.911 25.2168L17.4091 23.4248L16.7011 22.5586H16.1923ZM20.3817 14.7744C20.507 15.8999 20.5076 18.8109 19.786 20.0723C19.0643 21.3335 15.8983 21.8633 15.8983 21.8633C15.8983 21.8633 16.5228 22.3252 17.6679 22.541C18.813 22.7569 20.9965 21.4748 21.5399 19.2979C22.0832 17.1209 21.2353 14.165 21.2353 14.165L20.3817 14.7744Z" fill="#2E42A5"/>
<path d="M16.8054 22.7197C16.8158 22.7453 17.2094 23.7031 17.6941 23.7031C18.1853 23.7031 17.6946 23.416 18.1804 23.416C18.6585 23.4156 17.9875 22.7388 17.9685 22.7197H16.8054ZM21.2459 13.9297C21.6315 15.0142 21.5121 18.1269 21.2459 19.6719C20.9792 21.2166 18.4597 22.1475 18.4597 22.1475C18.4597 22.1475 19.0843 22.6093 20.2293 22.8252C21.3743 23.041 22.0992 21.5455 22.3689 19.6719C22.6386 17.798 22.0984 13.3203 22.0984 13.3203L21.2459 13.9297Z" fill="#FECA00"/>
<path d="M10.2029 14.4457L10.2944 13.8933L11.8954 13.997L10.681 12.7391L11.0902 12.3499L12.7325 14.0512L11.3284 11.4112L11.8138 11.1225L13.0922 13.0029L12.4824 11.0484L13.0067 10.8398L14.9723 14.7599L14.2183 14.7111L14.2922 14.9479L14.9341 15.1181L14.7879 15.6615L14.4902 15.5826L14.7683 16.4739L14.2852 15.7634L15.1263 17.3439L13.0599 15.2033L10.2029 14.4457Z" fill="#6FAE21"/>
<path d="M21.9263 14.4457L21.8347 13.8933L20.2338 13.997L21.4481 12.7391L21.039 12.3499L19.3966 14.0512L20.8007 11.4112L20.3153 11.1225L19.037 13.0029L19.6467 11.0484L19.1224 10.8398L17.1568 14.7599L17.9109 14.7111L17.837 14.9479L17.195 15.1181L17.3413 15.6615L17.639 15.5826L17.3609 16.4739L17.8439 15.7634L17.0029 17.3439L19.0693 15.2033L21.9263 14.4457Z" fill="#6FAE21"/>
<path d="M11.0667 25.3115L10.6544 24.9256L22.8448 12.0908L23.2571 12.4767L11.0667 25.3115Z" fill="#171401"/>
<path fill-rule="evenodd" clip-rule="evenodd" d="M22.5352 12.1897L23.1602 12.7791L23.5125 11.8047L22.5352 12.1897Z" fill="#CECECC"/>
<path fill-rule="evenodd" clip-rule="evenodd" d="M11.3764 25.3089L10.6585 24.837L10.426 25.8044L11.3764 25.3089Z" fill="#CECECC"/>
<path d="M10.16 23.3984L9.74768 23.0125L21.9381 10.1777L22.3504 10.5636L10.16 23.3984Z" fill="#171401"/>
<path fill-rule="evenodd" clip-rule="evenodd" d="M21.6284 10.2766L22.2534 10.866L22.6057 9.8916L21.6284 10.2766Z" fill="#CECECC"/>
<path fill-rule="evenodd" clip-rule="evenodd" d="M10.4697 23.3958L9.75179 22.9239L9.51922 23.8913L10.4697 23.3958Z" fill="#CECECC"/>
<path d="M21.2532 25.3115L21.6655 24.9256L9.47516 12.0908L9.06285 12.4767L21.2532 25.3115Z" fill="#171401"/>
<path fill-rule="evenodd" clip-rule="evenodd" d="M9.78479 12.1897L9.15976 12.7791L8.80748 11.8047L9.78479 12.1897Z" fill="#CECECC"/>
<path fill-rule="evenodd" clip-rule="evenodd" d="M20.9437 25.3089L21.6615 24.837L21.8941 25.8044L20.9437 25.3089Z" fill="#CECECC"/>
<path d="M22.3866 23.8486L22.799 23.4627L10.6086 10.6279L10.1963 11.0138L22.3866 23.8486Z" fill="#171401"/>
<path fill-rule="evenodd" clip-rule="evenodd" d="M10.9182 10.7268L10.2932 11.3162L9.9409 10.3418L10.9182 10.7268Z" fill="#CECECC"/>
<path fill-rule="evenodd" clip-rule="evenodd" d="M22.0771 23.846L22.795 23.3741L23.0275 24.3415L22.0771 23.846Z" fill="#CECECC"/>
<rect x="13.6666" y="20.375" width="4.53333" height="2.25" fill="#B74E01"/>
<path d="M15.9474 11.7871C16.8462 11.7871 17.6237 12.3649 18.1632 13.2217C18.7047 14.0818 19.0314 15.2548 19.0314 16.5371C19.0314 17.8194 18.7047 18.9925 18.1632 19.8525C17.6237 20.7093 16.8462 21.2871 15.9474 21.2871C15.0488 21.287 14.2719 20.7092 13.7325 19.8525C13.191 18.9925 12.8644 17.8195 12.8644 16.5371C12.8644 15.2548 13.191 14.0818 13.7325 13.2217C14.2719 12.365 15.0488 11.7872 15.9474 11.7871Z" fill="#7DB8FF" stroke="#FECA00" stroke-width="0.5"/>
<mask id="mask1_288_1910" style="mask-type:luminance" maskUnits="userSpaceOnUse" x="12" y="11" width="8" height="11">
<path d="M15.9474 11.7871C16.8462 11.7871 17.6237 12.3649 18.1632 13.2217C18.7047 14.0818 19.0314 15.2548 19.0314 16.5371C19.0314 17.8194 18.7047 18.9925 18.1632 19.8525C17.6237 20.7093 16.8462 21.2871 15.9474 21.2871C15.0488 21.287 14.2719 20.7092 13.7325 19.8525C13.191 18.9925 12.8644 17.8195 12.8644 16.5371C12.8644 15.2548 13.191 14.0818 13.7325 13.2217C14.2719 12.365 15.0488 11.7872 15.9474 11.7871Z" fill="white" stroke="white" stroke-width="0.5"/>
</mask>
<g mask="url(#mask1_288_1910)">
<path fill-rule="evenodd" clip-rule="evenodd" d="M12.8794 16.6099H14.4917C14.4917 16.6099 15.6001 16.8555 15.0459 17.0487C14.4917 17.2419 14.4917 17.3058 14.4917 17.5813C14.4917 17.8569 14.4917 18.8652 14.4917 19.0805C14.4917 19.2959 14.886 19.7569 14.055 19.7569C13.2241 19.7569 12.5082 16.3408 12.5082 16.3408L12.8794 16.6099Z" fill="#6FAE21"/>
<path fill-rule="evenodd" clip-rule="evenodd" d="M19.1791 16.7959C19.1791 16.7959 17.6814 17.0918 16.6554 16.9931C15.6294 16.8945 15.1791 16.7959 15.1791 16.7959C15.1791 16.7959 15.8942 17.1679 16.1484 17.4796C16.4025 17.7913 16.9229 18.3303 17.4533 18.3303C17.9838 18.3303 18.797 18.8334 18.797 18.8334L19.1791 16.7959Z" fill="#6FAE21"/>
<path fill-rule="evenodd" clip-rule="evenodd" d="M13.3187 14.1357C13.3187 14.1357 14.5533 14.3744 14.8507 14.7316C15.148 15.0889 14.4579 15.4462 16.2569 15.0889C18.0559 14.7316 19.4839 14.1084 19.4839 15.0889C19.4839 16.0694 19.3267 16.9726 18.5526 16.9726C17.7784 16.9726 17.4696 16.9726 15.1087 16.9726C12.7477 16.9726 11.4607 17.6948 11.626 16.5328C11.7913 15.3709 13.3187 14.1357 13.3187 14.1357Z" fill="#F7FCFF"/>
</g>
</g>
<defs>
<clipPath id="clip0_288_1910">
<rect width="32" height="32" rx="16" fill="white"/>
</clipPath>
<clipPath id="clip1_288_1910">
<rect width="32" height="32" fill="white"/>
</clipPath>
</defs>
</svg>
