<svg width="24" height="24" viewBox="0 0 24 24" fill="none" xmlns="http://www.w3.org/2000/svg">
<g clip-path="url(#clip0_290_655)">
<rect width="24" height="24" rx="12" fill="white"/>
<g clip-path="url(#clip1_290_655)">
<rect width="32" height="24" transform="translate(-4)" fill="white"/>
<path fill-rule="evenodd" clip-rule="evenodd" d="M-4 0V24H28V0H-4Z" fill="#F7FCFF"/>
<mask id="mask0_290_655" style="mask-type:luminance" maskUnits="userSpaceOnUse" x="-4" y="0" width="32" height="24">
<path fill-rule="evenodd" clip-rule="evenodd" d="M-4 0V24H28V0H-4Z" fill="white"/>
</mask>
<g mask="url(#mask0_290_655)">
<path fill-rule="evenodd" clip-rule="evenodd" d="M-4 0V8H28V0H-4Z" fill="#BF2714"/>
<path fill-rule="evenodd" clip-rule="evenodd" d="M-4 16V24H28V16H-4Z" fill="#272727"/>
<path d="M8.26027 10.2207L9.25922 10.2665L9.00847 15.7363L8.00952 15.6905L8.26027 10.2207Z" fill="#C09302"/>
<path d="M9.30397 10.5605L10.3024 10.617L10.0516 15.0523L9.05322 14.9959L9.30397 10.5605Z" fill="#C09302"/>
<path d="M10.3484 10.8926L11.3451 10.9744L11.0943 14.0304L10.0977 13.9486L10.3484 10.8926Z" fill="#C09302"/>
<path d="M15.7396 10.2207L14.7407 10.2665L14.9914 15.7363L15.9904 15.6905L15.7396 10.2207Z" fill="#C09302"/>
<path d="M14.6959 10.5605L13.6975 10.617L13.9482 15.0523L14.9467 14.9959L14.6959 10.5605Z" fill="#C09302"/>
<path d="M13.6515 10.8926L12.6548 10.9744L12.9056 14.0304L13.9022 13.9486L13.6515 10.8926Z" fill="#C09302"/>
<path d="M11.9733 15.3268L10.9985 15.1034L11.4111 13.3027L12.3859 13.5261L11.9733 15.3268Z" fill="#C09302"/>
<path d="M12.7195 15.3268L13.6942 15.1034L13.2816 13.3027L12.3069 13.5261L12.7195 15.3268Z" fill="#C09302"/>
<path d="M12.4722 15.3099H11.4722V13.542H12.4722V15.3099Z" fill="#C09302"/>
<path d="M10.6347 10.9141L11.6344 10.9386L11.576 13.3195L10.5763 13.295L10.6347 10.9141Z" fill="#C09302"/>
<path d="M12.3738 10.9141L13.3735 10.9386L13.3151 13.3195L12.3154 13.295L12.3738 10.9141Z" fill="#C09302"/>
<path d="M9.33789 15.9237L9.59759 14.958C10.6586 15.2434 11.4734 15.3845 12.0289 15.3845C12.5845 15.3845 13.3992 15.2434 14.4602 14.958L14.7199 15.9237C13.5815 16.2298 12.6888 16.3845 12.0289 16.3845C11.369 16.3845 10.4763 16.2298 9.33789 15.9237Z" fill="#C09302"/>
<path d="M8.28221 10.2231C8.21554 9.56254 8.60219 9.11536 9.25745 9.1724C9.4729 9.19115 9.7149 9.25489 10.0372 9.36424C10.1314 9.39655 10.1314 9.39655 10.2229 9.42895C10.666 9.58654 10.7863 9.62705 10.8113 9.63239C10.7131 9.61015 11.0023 9.08738 11.0686 8.99927C11.0764 9.05522 11.0432 9.04726 10.9632 9.03126L10.0612 8.85073L10.7033 8.19198C10.9277 7.96172 11.2266 7.84754 11.5677 7.84754C11.6031 7.84754 11.6361 7.84589 11.7444 7.83923C11.8246 7.83435 11.8246 7.83435 11.9147 7.83063C12.5386 7.81041 12.9861 7.98685 12.9861 8.6285C12.9861 8.85806 13.0151 9.22721 13.063 9.50726C13.0791 9.60147 13.1101 9.68965 13.0184 9.72838C13.0222 9.69496 13.2408 9.60871 13.5806 9.46658L13.6214 9.44953C14.6088 9.03739 14.7242 8.99915 15.0425 9.1926C15.2546 9.32151 15.4566 9.55338 15.6829 9.89909L14.8462 10.4468C14.7003 10.2238 14.584 10.0885 14.5287 10.0507C14.6545 10.1381 14.2308 10.2788 14.0066 10.3724L13.9664 10.3892C13.1977 10.7107 13.0963 10.749 12.8765 10.749C12.2783 10.749 12.0635 10.1363 12.0047 9.25872C11.8201 9.86629 11.2695 10.633 10.8157 10.633C10.617 10.633 10.7125 10.6645 9.8878 10.3711C9.80139 10.3405 9.80139 10.3405 9.71593 10.3112C9.46607 10.2265 9.28581 10.1789 9.17209 10.1687C9.17679 10.1634 9.19354 10.1454 9.21232 10.1293L8.28221 10.2231Z" fill="#C09302"/>
</g>
</g>
</g>
<defs>
<clipPath id="clip0_290_655">
<rect width="24" height="24" rx="12" fill="white"/>
</clipPath>
<clipPath id="clip1_290_655">
<rect width="32" height="24" fill="white" transform="translate(-4)"/>
</clipPath>
</defs>
</svg>
