<svg width="128" height="128" viewBox="0 0 128 128" fill="none" xmlns="http://www.w3.org/2000/svg">
<g clip-path="url(#clip0_288_388)">
<rect width="128" height="128" rx="64" fill="white"/>
<rect width="32" height="24" transform="translate(48 52)" fill="white"/>
<path fill-rule="evenodd" clip-rule="evenodd" d="M-1 0V128H169.667V0H-1Z" fill="#FFB400"/>
<mask id="mask0_288_388" style="mask-type:luminance" maskUnits="userSpaceOnUse" x="-1" y="0" width="171" height="128">
<path fill-rule="evenodd" clip-rule="evenodd" d="M-1 0V128H169.667V0H-1Z" fill="white"/>
</mask>
<g mask="url(#mask0_288_388)">
<path fill-rule="evenodd" clip-rule="evenodd" d="M-1 0V32H169.667V0H-1Z" fill="#C51918"/>
<path fill-rule="evenodd" clip-rule="evenodd" d="M-1 96V128H169.667V96H-1Z" fill="#C51918"/>
<rect x="25.7095" y="54.7812" width="5.97333" height="31.0613" fill="#F1F9FF"/>
<path d="M34.0723 52.3936H32.2803V54.7832H25.1123V52.3936H23.3203V49.4062H34.0723V52.3936Z" fill="#C88A02"/>
<path fill-rule="evenodd" clip-rule="evenodd" d="M32.2803 87.6345H34.0723V90.6211H23.3203V87.6345H25.1123V85.2451H32.2803V87.6345Z" fill="#C88A02"/>
<path fill-rule="evenodd" clip-rule="evenodd" d="M28.6952 50.0033C29.9952 50.0033 30.1273 49.5138 30.8942 48.7827C31.4897 48.2151 32.8766 47.511 32.8766 46.718C32.8766 44.9035 31.0045 43.4326 28.6952 43.4326C26.386 43.4326 24.5139 44.9035 24.5139 46.718C24.5139 47.6015 25.469 48.1923 26.1912 48.7827C26.952 49.4048 27.5105 50.0033 28.6952 50.0033Z" fill="#AD1619"/>
<path fill-rule="evenodd" clip-rule="evenodd" d="M23.3203 90.6191H34.0723V95.3978C34.0723 95.3978 32.7283 94.8005 31.3843 94.8005C30.0403 94.8005 28.6963 95.3978 28.6963 95.3978C28.6963 95.3978 27.3523 94.8005 26.0083 94.8005C24.6643 94.8005 23.3203 95.3978 23.3203 95.3978V90.6191Z" fill="#005BBF"/>
<mask id="mask1_288_388" style="mask-type:luminance" maskUnits="userSpaceOnUse" x="23" y="90" width="12" height="6">
<path fill-rule="evenodd" clip-rule="evenodd" d="M23.3203 90.6191H34.0723V95.3978C34.0723 95.3978 32.7283 94.8005 31.3843 94.8005C30.0403 94.8005 28.6963 95.3978 28.6963 95.3978C28.6963 95.3978 27.3523 94.8005 26.0083 94.8005C24.6643 94.8005 23.3203 95.3978 23.3203 95.3978V90.6191Z" fill="white"/>
</mask>
<g mask="url(#mask1_288_388)">
<path d="M23.223 94.4597L22.9883 93.8875C23.9567 93.4565 24.9286 93.2402 25.9019 93.2402C26.5307 93.2402 26.8591 93.3279 27.4174 93.5764C27.9077 93.7946 28.1619 93.8625 28.6982 93.8625C29.2345 93.8625 29.4886 93.7946 29.979 93.5764C30.5372 93.3279 30.8656 93.2402 31.4945 93.2402C32.4678 93.2402 33.4397 93.4565 34.4081 93.8875L34.1734 94.4597C33.2776 94.061 32.3853 93.8625 31.4945 93.8625C30.9582 93.8625 30.704 93.9303 30.2137 94.1486C29.6554 94.397 29.327 94.4847 28.6982 94.4847C28.0693 94.4847 27.741 94.397 27.1827 94.1486C26.6924 93.9303 26.4382 93.8625 25.9019 93.8625C25.011 93.8625 24.1187 94.061 23.223 94.4597Z" fill="white"/>
<path d="M23.223 92.6677L22.9883 92.0955C23.9567 91.6645 24.9286 91.4482 25.9019 91.4482C26.5307 91.4482 26.8591 91.5359 27.4174 91.7844C27.9077 92.0026 28.1619 92.0705 28.6982 92.0705C29.2345 92.0705 29.4886 92.0026 29.979 91.7844C30.5372 91.5359 30.8656 91.4482 31.4945 91.4482C32.4678 91.4482 33.4397 91.6645 34.4081 92.0955L34.1734 92.6677C33.2776 92.269 32.3853 92.0705 31.4945 92.0705C30.9582 92.0705 30.704 92.1383 30.2137 92.3566C29.6554 92.605 29.327 92.6927 28.6982 92.6927C28.0693 92.6927 27.741 92.605 27.1827 92.3566C26.6924 92.1383 26.4382 92.0705 25.9019 92.0705C25.011 92.0705 24.1187 92.269 23.223 92.6677Z" fill="white"/>
</g>
<rect x="84.2488" y="54.7812" width="5.97333" height="31.0613" fill="#F1F9FF"/>
<path d="M92.6111 52.3936H90.8191V54.7832H83.6511V52.3936H81.8591V49.4062H92.6111V52.3936Z" fill="#C88A02"/>
<path fill-rule="evenodd" clip-rule="evenodd" d="M90.8191 87.6345H92.6111V90.6211H81.8591V87.6345H83.6511V85.2451H90.8191V87.6345Z" fill="#C88A02"/>
<path fill-rule="evenodd" clip-rule="evenodd" d="M87.235 50.0033C88.535 50.0033 88.6671 49.5138 89.434 48.7827C90.0295 48.2151 91.4164 47.511 91.4164 46.718C91.4164 44.9035 89.5443 43.4326 87.235 43.4326C84.9258 43.4326 83.0537 44.9035 83.0537 46.718C83.0537 47.6015 84.0088 48.1923 84.731 48.7827C85.4918 49.4048 86.0503 50.0033 87.235 50.0033Z" fill="#AD1619"/>
<path fill-rule="evenodd" clip-rule="evenodd" d="M81.8591 90.6191H92.6111V95.3978C92.6111 95.3978 91.2671 94.8005 89.9231 94.8005C88.5791 94.8005 87.2351 95.3978 87.2351 95.3978C87.2351 95.3978 85.8911 94.8005 84.5471 94.8005C83.2031 94.8005 81.8591 95.3978 81.8591 95.3978V90.6191Z" fill="#005BBF"/>
<mask id="mask2_288_388" style="mask-type:luminance" maskUnits="userSpaceOnUse" x="81" y="90" width="12" height="6">
<path fill-rule="evenodd" clip-rule="evenodd" d="M81.8591 90.6191H92.6111V95.3978C92.6111 95.3978 91.2671 94.8005 89.9231 94.8005C88.5791 94.8005 87.2351 95.3978 87.2351 95.3978C87.2351 95.3978 85.8911 94.8005 84.5471 94.8005C83.2031 94.8005 81.8591 95.3978 81.8591 95.3978V90.6191Z" fill="white"/>
</mask>
<g mask="url(#mask2_288_388)">
<path d="M81.7623 94.4597L81.5276 93.8875C82.496 93.4565 83.4679 93.2402 84.4412 93.2402C85.0701 93.2402 85.3984 93.3279 85.9567 93.5764C86.447 93.7946 86.7012 93.8625 87.2375 93.8625C87.7738 93.8625 88.0279 93.7946 88.5183 93.5764C89.0765 93.3279 89.4049 93.2402 90.0338 93.2402C91.0071 93.2402 91.979 93.4565 92.9474 93.8875L92.7127 94.4597C91.8169 94.061 90.9246 93.8625 90.0338 93.8625C89.4975 93.8625 89.2433 93.9303 88.753 94.1486C88.1947 94.397 87.8663 94.4847 87.2375 94.4847C86.6086 94.4847 86.2803 94.397 85.722 94.1486C85.2317 93.9303 84.9775 93.8625 84.4412 93.8625C83.5504 93.8625 82.658 94.061 81.7623 94.4597Z" fill="white"/>
<path d="M81.7623 92.6677L81.5276 92.0955C82.496 91.6645 83.4679 91.4482 84.4412 91.4482C85.0701 91.4482 85.3984 91.5359 85.9567 91.7844C86.447 92.0026 86.7012 92.0705 87.2375 92.0705C87.7738 92.0705 88.0279 92.0026 88.5183 91.7844C89.0765 91.5359 89.4049 91.4482 90.0338 91.4482C91.0071 91.4482 91.979 91.6645 92.9474 92.0955L92.7127 92.6677C91.8169 92.269 90.9246 92.0705 90.0338 92.0705C89.4975 92.0705 89.2433 92.1383 88.753 92.3566C88.1947 92.605 87.8663 92.6927 87.2375 92.6927C86.6086 92.6927 86.2803 92.605 85.722 92.3566C85.2317 92.1383 84.9775 92.0705 84.4412 92.0705C83.5504 92.0705 82.658 92.269 81.7623 92.6677Z" fill="white"/>
</g>
<path d="M22.4046 63.3148C26.4054 60.5598 37.1152 60.3119 41.8158 62.7386L39.6234 66.9847C37.3166 65.794 32.0729 65.57 28.4007 66.181C28.9591 66.2785 29.5857 66.3814 30.2874 66.4916C30.7244 66.5602 32.2611 66.7975 32.3851 66.8168C33.8518 67.0448 34.8526 67.3344 35.5941 67.8392C37.1074 68.8697 37.3323 70.7265 36.2523 72.0961C35.7963 72.6743 35.1994 73.1069 34.2972 73.6302C34.0077 73.7981 33.696 73.9695 33.2777 74.1927C33.1913 74.2388 32.4629 74.6245 32.2503 74.7386C31.3892 75.201 30.8243 75.5356 30.4027 75.8422C29.7423 76.3224 29.0649 76.7128 28.2962 77.0814C27.8857 77.2783 26.7114 77.7897 26.7005 77.7943C26.6765 77.8052 26.6534 77.8157 26.6312 77.8256C27.0458 78.3867 27.2825 79.0743 27.2826 79.8695C27.2825 81.131 26.6797 82.3188 25.6029 83.6244L21.9349 80.599L21.5853 80.4916L21.39 78.9633C21.0293 76.1394 22.2362 74.5755 24.723 73.4447C24.7871 73.4156 25.9094 72.9255 26.2298 72.7719C26.7548 72.5201 27.1881 72.2707 27.5921 71.9769C27.9904 71.6873 28.4183 71.4137 28.9339 71.1146C25.8568 70.6202 24.193 70.2559 22.9173 69.7064C19.8642 68.391 19.4702 65.3357 22.4046 63.3148ZM73.5648 62.7386C78.2651 60.3118 88.9749 60.5599 92.9759 63.3148C95.9102 65.3356 95.5171 68.391 92.4642 69.7064C91.1885 70.2561 89.5251 70.6202 86.4476 71.1146C86.9633 71.4138 87.391 71.6872 87.7894 71.9769C88.1933 72.2707 88.6259 72.5202 89.1507 72.7719C89.4713 72.9255 90.5952 73.4159 90.6585 73.4447C93.145 74.5755 94.3522 76.1396 93.9915 78.9633L93.7962 80.4916L93.4456 80.599L89.7777 83.6244C88.7009 82.3188 88.099 81.131 88.099 79.8695C88.099 79.0741 88.3356 78.3868 88.7503 77.8256C88.7279 77.8156 88.7043 77.8053 88.68 77.7943C88.6674 77.7889 87.4958 77.2782 87.0853 77.0814C86.3166 76.7129 85.6391 76.3223 84.9788 75.8422C84.5573 75.5356 83.9923 75.201 83.1312 74.7386C82.919 74.6247 82.1884 74.2384 82.1029 74.1927C81.6844 73.9695 81.3728 73.7982 81.0833 73.6302C80.1812 73.107 79.5852 72.6742 79.1292 72.0961C78.0492 70.7265 78.2731 68.8698 79.7865 67.8392C80.528 67.3344 81.5288 67.0448 82.9954 66.8168C83.119 66.7976 84.6576 66.5601 85.0941 66.4916C85.7958 66.3814 86.4225 66.2785 86.9808 66.181C83.3084 65.5699 78.0638 65.7938 75.7572 66.9847L73.5648 62.7386Z" fill="#AD1619"/>
<path d="M30.5914 66.1299L32.3545 66.4946V69.1226C30.4766 70.6209 25.7095 73.1462 25.7095 73.1462V66.1299H30.5914Z" fill="#F1F9FF"/>
<path d="M86.0117 66.1299L84.2485 66.4946V69.1226C86.1264 70.6209 90.8936 73.1462 90.8936 73.1462V66.1299H86.0117Z" fill="#F1F9FF"/>
<path d="M58.3645 32.5854C61.6666 32.2664 64.9292 32.8211 68.1526 34.2475C71.515 34.2475 74.7325 35.3502 77.8049 37.5551V38.4292L71.7805 44.4799C70.5761 47.8191 68.4295 47.996 66.7571 48.5522C66.2046 48.736 58.3411 48.9497 58.3411 48.9497V48.936C46.4648 50.3047 44.7688 44.4819 44.7688 44.4819L38.7444 38.4311V37.5561C38.7676 37.5395 43.3658 34.2486 48.3967 34.2485C48.4028 34.2459 53.4043 32.0872 58.3665 32.5727C58.3663 32.574 58.3651 32.5782 58.3645 32.5854Z" fill="#AD1619"/>
<path d="M67.6367 40.0049C67.7692 41.4913 68.1748 42.1891 68.7754 42.2871C69.5933 42.4202 70.2148 42.3577 70.6484 42.123L71.5303 41.6455V42.457C71.8075 42.4864 72.2831 42.4344 72.9336 42.293L73.1221 43.1631L77.5254 39.0215L77.9355 39.4561L72.4561 44.6113C71.6571 46.0828 71.2542 47.0542 71.2539 47.458C71.2539 48.0738 69.6521 48.44 66.5254 48.8154C64.0755 49.1096 61.1842 49.3036 58.8193 49.333V49.3398C58.7205 49.3398 58.6206 49.3366 58.5195 49.3359C58.4189 49.3366 58.3191 49.3398 58.2207 49.3398V49.333C55.8561 49.3035 52.9652 49.1095 50.5156 48.8154C47.3889 48.44 45.7861 48.0738 45.7861 47.458C45.7861 47.3796 45.7676 47.2808 45.7373 47.1602C45.4271 46.7596 45.2079 46.1125 45.0615 45.5264C44.9222 45.2473 44.7643 44.9415 44.585 44.6113L43.3682 43.4658C43.3588 43.4638 43.3492 43.463 43.3398 43.4609L43.3428 43.4434L39.1055 39.4561L39.5146 39.0215L43.4912 42.7627L43.5938 42.293C44.2444 42.4344 44.7199 42.4865 44.9971 42.457V41.6455L45.8789 42.123C46.3125 42.3576 46.9334 42.4201 47.751 42.2871C48.3517 42.1894 48.7571 41.4916 48.8896 40.0049L49.1572 37.0039L50.0557 39.8799C50.4618 41.1814 51.0809 41.7557 51.9629 41.7559C52.8245 41.7559 53.1708 41.4397 53.209 40.6436L53.3174 38.3857L54.3389 40.4023C54.7067 41.1289 55.2142 41.459 55.9355 41.459C56.9672 41.459 57.6562 40.5986 57.6562 39.249H58.8711C58.8711 40.5986 59.5601 41.459 60.5918 41.459C61.3131 41.4589 61.8206 41.1289 62.1885 40.4023L63.209 38.3857L63.3174 40.6436C63.3556 41.4396 63.7022 41.7557 64.5635 41.7559C65.4456 41.7559 66.0655 41.1815 66.4717 39.8799L67.3691 37.0039L67.6367 40.0049ZM58.1953 46.1895C56.64 46.2884 48.0127 46.8602 46.708 47.4707C46.6863 47.4808 46.6638 47.487 46.6426 47.4951C46.8354 47.566 47.0993 47.6419 47.4277 47.7168C48.196 47.8921 49.29 48.0661 50.5859 48.2217C53.1169 48.5256 56.1269 48.7235 58.5195 48.7393C60.9124 48.7236 63.9226 48.5256 66.4541 48.2217C67.7502 48.0661 68.844 47.8921 69.6123 47.7168C70.0032 47.6276 70.3042 47.5398 70.501 47.457C70.5713 47.4274 70.6252 47.3999 70.6602 47.377C70.6661 47.2912 70.6822 47.1953 70.7061 47.0889C70.4401 47.4682 70.1046 47.6677 69.6836 47.4707C68.3786 46.8601 59.748 46.2883 58.1953 46.1895ZM71.3184 47.3691L71.3242 47.3613C71.3254 47.3604 71.327 47.3593 71.3281 47.3584C71.3258 47.3602 71.322 47.364 71.3184 47.3691ZM66.8096 41.8467C66.3467 42.4363 65.7606 42.7978 65.0576 42.9111C68.89 43.4534 71.5771 44.2158 71.5771 44.2158C71.5755 44.2299 71.5078 44.7922 71.3486 45.4512C71.519 45.1015 71.7204 44.7124 71.9541 44.2832L72.0117 44.209L72.7061 43.5547C71.7258 43.7286 71.0179 43.7128 70.6426 43.4072C70.0564 43.5777 69.3689 43.5945 68.584 43.4668C67.7454 43.3303 67.161 42.772 66.8096 41.8467ZM49.7168 41.8467C49.3654 42.772 48.7819 43.3303 47.9434 43.4668C47.1582 43.5946 46.4701 43.5778 45.8838 43.4072C45.5902 43.6462 45.0936 43.706 44.4219 43.6387L44.9854 44.1689C45.6375 43.9936 48.1053 43.3637 51.4111 42.9004C50.734 42.7768 50.1667 42.4199 49.7168 41.8467ZM62.4824 41.9688C62.1934 42.2239 61.8631 42.4064 61.4971 42.5195C62.1083 42.5661 62.7057 42.6238 63.2852 42.6875C62.9469 42.5222 62.6767 42.2812 62.4824 41.9688ZM54.0449 41.9688C53.8582 42.269 53.601 42.5024 53.2812 42.667C53.8399 42.6074 54.4147 42.5542 55.002 42.5107C54.6472 42.3969 54.3265 42.2173 54.0449 41.9688ZM58.2637 41.3955C57.9753 41.8374 57.591 42.1836 57.126 42.3994C57.4012 42.3912 57.678 42.3859 57.9561 42.3828V42.3799C58.0358 42.3799 58.1157 42.3804 58.1953 42.3809C58.2752 42.3804 58.3555 42.3799 58.4355 42.3799V42.3828C58.7627 42.3865 59.0881 42.3936 59.4111 42.4043C58.9417 42.1889 58.5542 41.8406 58.2637 41.3955Z" fill="#C88A02"/>
<path fill-rule="evenodd" clip-rule="evenodd" d="M58.2661 28.5156C59.2558 28.5156 60.0581 27.7133 60.0581 26.7236C60.0581 25.7339 59.2558 24.9316 58.2661 24.9316C57.2764 24.9316 56.4741 25.7339 56.4741 26.7236C56.4741 27.7133 57.2764 28.5156 58.2661 28.5156Z" fill="#005BBF"/>
<path d="M40.5211 38.7435C40.9943 38.5989 41.5729 39.1208 41.814 39.9095C41.8728 40.1017 41.9048 40.292 41.9146 40.472C42.0776 40.2847 42.2973 40.1107 42.5582 39.972C43.2863 39.5849 44.0641 39.625 44.2965 40.0618C44.5288 40.4987 44.1272 41.1668 43.399 41.554C42.671 41.9411 41.8922 41.9008 41.6597 41.4642C41.6549 41.4551 41.6513 41.4451 41.647 41.4358C41.5751 41.5123 41.4914 41.5692 41.3941 41.5989C40.9209 41.7436 40.3413 41.2216 40.1002 40.4329C39.8592 39.6443 40.0479 38.8881 40.5211 38.7435ZM74.2935 39.7269C74.5347 38.9381 75.1142 38.4162 75.5875 38.5608C76.0606 38.7056 76.2485 39.4617 76.0074 40.2503C75.7663 41.039 75.1876 41.5609 74.7144 41.4163C74.6165 41.3864 74.5318 41.3294 74.4595 41.2522C74.4552 41.2616 74.4527 41.2724 74.4478 41.2815C74.2152 41.718 73.4365 41.7584 72.7086 41.3714C71.9807 40.9842 71.5791 40.3161 71.8111 39.8792C72.0434 39.4423 72.8222 39.4022 73.5504 39.7894C73.8108 39.9279 74.0291 40.1024 74.192 40.2894C74.2018 40.1094 74.2348 39.919 74.2935 39.7269ZM67.1617 36.0521C67.6558 36.0263 68.0912 36.6729 68.1343 37.4964C68.1499 37.7936 68.1105 38.0726 68.0328 38.3099C68.2178 38.289 68.418 38.2916 68.6246 38.3206C69.4411 38.4354 70.0476 38.9254 69.9791 39.4153C69.9102 39.9054 69.1923 40.2098 68.3756 40.095C67.5618 39.9806 66.9562 39.4935 67.0201 39.0052C66.9471 39.4923 66.2324 39.7943 65.4185 39.68C64.6018 39.5652 63.9952 39.0743 64.064 38.5843C64.1332 38.0945 64.8511 37.7909 65.6675 37.9056C65.9602 37.9467 66.2257 38.0363 66.4429 38.1565C66.3901 37.9832 66.3559 37.792 66.3453 37.5901C66.3021 36.7665 66.6675 36.078 67.1617 36.0521ZM48.7359 36.2747C49.2214 36.1808 49.7426 36.7605 49.9 37.5696C49.9562 37.8588 49.9562 38.1382 49.9136 38.3821C50.0932 38.3362 50.2911 38.3118 50.4986 38.3118C51.3233 38.3118 51.9927 38.7135 51.9927 39.2083C51.9923 39.7029 51.3231 40.1038 50.4986 40.1038C49.677 40.1037 49.0102 39.7055 49.0054 39.2132C49.0006 39.7055 48.3348 40.1037 47.5132 40.1038C46.6888 40.1038 46.0195 39.7029 46.0191 39.2083C46.0191 38.7135 46.6885 38.3118 47.5132 38.3118C47.8077 38.3119 48.0818 38.3641 48.3131 38.4524C48.2382 38.29 48.1792 38.1079 48.1412 37.9124C47.9838 37.1028 48.2501 36.3691 48.7359 36.2747ZM57.6949 35.6761C58.1806 35.5817 58.7016 36.1615 58.859 36.971C58.9157 37.2629 58.9165 37.5447 58.8726 37.7903C59.0528 37.7441 59.2512 37.7191 59.4595 37.719C60.2843 37.719 60.9527 38.1197 60.9527 38.6146C60.9527 39.1094 60.2843 39.511 59.4595 39.511C58.6349 39.511 57.9664 39.1094 57.9664 38.6146C57.9664 38.6044 57.9678 38.5943 57.9683 38.5843C57.9667 38.5837 57.9651 38.5829 57.9634 38.5823C57.9641 38.5931 57.9664 38.6037 57.9664 38.6146C57.9664 39.1094 57.2978 39.511 56.4732 39.511C55.6485 39.511 54.98 39.1094 54.98 38.6146C54.9801 38.1197 55.6485 37.719 56.4732 37.719C56.7683 37.7191 57.0434 37.77 57.275 37.8587C57.1989 37.6948 57.1386 37.5106 57.1002 37.3128C56.9429 36.5033 57.2092 35.7705 57.6949 35.6761ZM49.0054 39.2024C49.0055 39.1959 49.0061 39.1894 49.0064 39.1829C49.0053 39.1825 49.0046 39.1813 49.0035 39.181C49.0038 39.1881 49.0054 39.1952 49.0054 39.2024ZM67.022 38.9944C67.0233 38.9862 67.0253 38.9781 67.0269 38.97C67.0256 38.9694 67.0243 38.9687 67.023 38.9681C67.0223 38.9768 67.0232 38.9857 67.022 38.9944Z" fill="#C88A02"/>
<path d="M58.8411 22.5254H59.6536V23.7695H58.8411V26.2588H59.6536V27.5029H56.7708V26.2588H57.5959V23.7695H56.7708V22.5254H57.5959V21.7383H58.8411V22.5254Z" fill="#C88A02"/>
<rect x="57.3684" y="28.498" width="2.38933" height="7.76533" fill="#C88A02"/>
<path d="M47.7503 29.8006L47.7399 30.3978C42.4434 30.3053 39.4052 31.0783 38.634 32.6188C37.8367 34.2115 37.9849 36.1476 39.1022 38.4475L38.5649 38.7085C37.3728 36.2546 37.2101 34.1288 38.0999 32.3514C39.0158 30.5219 42.2297 29.7042 47.7503 29.8006Z" fill="white"/>
<path d="M48.7752 35.0987L48.469 35.6116C47.3156 34.9229 46.7383 33.7475 46.7383 32.1278C46.7383 29.7999 47.9374 28.4348 50.59 27.5006C52.2829 26.9044 54.5955 27.1489 57.5343 28.2144L57.3307 28.7759C54.5095 27.7531 52.3266 27.5223 50.7884 28.064C48.3554 28.9209 47.3356 30.0818 47.3356 32.1278C47.3356 33.5492 47.8151 34.5254 48.7752 35.0987Z" fill="white"/>
<path d="M39.855 37.5327L38.7278 37.9286C37.5583 34.5988 37.8923 32.3374 39.8906 31.3619C41.6515 30.5023 44.2178 30.1525 47.6023 30.2897L47.554 31.4833C44.3495 31.3535 41.9655 31.6784 40.4147 32.4355C39.1014 33.0766 38.8612 34.7032 39.855 37.5327Z" fill="#C88A02"/>
<path d="M53.0236 29.0081C50.2921 29.0081 49.1705 29.6734 48.5297 31.6376C48.1213 32.8893 48.5173 33.9577 49.8016 34.9549L49.0688 35.8985C47.4062 34.6074 46.82 33.0262 47.3939 31.2671C48.2106 28.7639 49.813 27.8135 53.0236 27.8135C55.1278 27.8135 56.7671 28.3663 57.9084 29.4914L58.0864 29.6669V35.4267H56.8918V30.1775C56.0003 29.4032 54.7199 29.0081 53.0236 29.0081Z" fill="#C88A02"/>
<path d="M68.5949 30.3982L68.6053 30.9955C73.9018 30.903 76.94 31.6759 77.7112 33.2165C78.5085 34.8092 78.3603 36.7453 77.2431 39.0452L77.7804 39.3062C78.9724 36.8523 79.1352 34.7265 78.2454 32.9491C77.3294 31.1195 74.1155 30.3019 68.5949 30.3982Z" fill="white"/>
<path d="M66.7248 35.2237L67.031 35.7366C68.1844 35.0479 68.7617 33.8725 68.7617 32.2528C68.7617 29.9249 67.5626 28.5598 64.91 27.6256C63.2171 27.0294 60.9045 27.2739 57.9657 28.3394L58.1693 28.9009C60.9905 27.8781 63.1734 27.6473 64.7116 28.189C67.1446 29.0459 68.1644 30.2068 68.1644 32.2528C68.1644 33.6742 67.6849 34.6504 66.7248 35.2237Z" fill="white"/>
<path d="M76.8628 38.1324L77.99 38.5282C79.1595 35.1984 78.8255 32.937 76.8271 31.9615C75.0662 31.1019 72.4999 30.7521 69.1154 30.8893L69.1638 32.0829C72.3683 31.9531 74.7523 32.2781 76.3031 33.0351C77.6164 33.6762 77.8566 35.3028 76.8628 38.1324Z" fill="#C88A02"/>
<path d="M63.6263 29.1019C66.3578 29.1019 67.4794 29.7671 68.1202 31.7313C68.5286 32.9831 68.1326 34.0514 66.8484 35.0487L67.5811 35.9923C69.2437 34.7012 69.8299 33.1199 69.256 31.3608C68.4394 28.8576 66.8369 27.9072 63.6263 27.9072C61.5221 27.9072 59.8828 28.4601 58.7415 29.5852L58.5635 29.7607V35.5205H59.7581V30.2713C60.6496 29.497 61.93 29.1019 63.6263 29.1019Z" fill="#C88A02"/>
<path opacity="0.3" fill-rule="evenodd" clip-rule="evenodd" d="M38.8503 49.4062H77.677V84.2907C77.677 84.2907 74.7929 95.9982 58.2637 95.9982C41.7345 95.9982 38.8503 83.982 38.8503 83.982V49.4062Z" fill="#E1E5E8"/>
<mask id="mask3_288_388" style="mask-type:luminance" maskUnits="userSpaceOnUse" x="38" y="49" width="40" height="47">
<path fill-rule="evenodd" clip-rule="evenodd" d="M38.8503 49.4062H77.677V84.2907C77.677 84.2907 74.7929 95.9982 58.2637 95.9982C41.7345 95.9982 38.8503 83.982 38.8503 83.982V49.4062Z" fill="white"/>
</mask>
<g mask="url(#mask3_288_388)">
<rect x="38.8503" y="70.9111" width="19.712" height="23.296" fill="#FFC034"/>
<rect x="41.2397" y="72.1045" width="2.38933" height="22.1013" fill="#AD1619"/>
<rect x="49.6028" y="72.1045" width="2.38933" height="22.1013" fill="#AD1619"/>
<rect x="45.4204" y="72.1045" width="2.38933" height="22.1013" fill="#AD1619"/>
<rect x="53.7839" y="72.1045" width="2.38933" height="22.1013" fill="#AD1619"/>
<rect x="38.8503" y="48.8066" width="19.712" height="22.6987" fill="#AD1619"/>
<rect x="57.9648" y="70.3115" width="19.712" height="22.6987" fill="#AD1619"/>
<rect x="57.9648" y="49.4062" width="20.9067" height="22.1013" fill="#F1F9FF"/>
<path d="M49.0039 56.1523H50.1992V53.6768H51.9912V56.1523H53.7832V59.249H51.9912V64.8291H53.7832V67.9258H43.0312V64.8291H44.8232V59.249H43.0312V56.1523H44.2266V53.6768H46.0186V56.1523H47.2119V51.1973H49.0039V56.1523Z" fill="#C88A02"/>
<path d="M66.3398 52.2892C67.7612 51.7215 69.4158 52.3178 70.8222 54.3243C71.6246 55.4691 71.625 56.7316 70.8427 57.7316C70.4476 58.2367 69.905 58.6189 69.2412 58.9308C69.7416 59.6376 70.049 60.0291 70.5634 60.6114C70.8092 60.8896 71.0281 61.1525 71.2226 61.3995C71.4072 61.2962 71.6381 61.2074 71.9248 61.1212C71.9719 61.1071 72.0218 61.0925 72.0732 61.0782C72.2583 61.0269 72.3915 60.988 72.5009 60.9513C72.9947 60.7855 72.9745 60.8427 72.9726 59.4064C72.9725 59.2954 72.9717 59.2947 72.9716 59.1779C72.9716 58.8179 72.9619 58.5144 72.9326 57.8107C72.9311 57.7756 72.9311 57.775 72.9296 57.7404C72.8222 55.157 72.919 54.1688 73.7099 53.4601L74.5078 54.3497C74.1232 54.6942 74.0363 55.5827 74.124 57.6905C74.1254 57.7252 74.1254 57.7258 74.1269 57.7609C74.157 58.4817 74.1669 58.7954 74.1669 59.1779C74.167 59.2933 74.1668 59.2939 74.1669 59.4044C74.1695 61.3062 74.0266 61.6987 72.8818 62.0831C72.7482 62.128 72.5967 62.173 72.3925 62.2296C72.3493 62.2416 72.308 62.2542 72.2695 62.2657C72.1054 62.3151 71.9884 62.3434 71.9062 62.378C72.0169 62.5661 72.1078 62.7426 72.1767 62.9093C72.499 63.6894 72.3992 64.4368 71.8007 64.8546C71.8021 64.8619 71.8032 64.8694 71.8046 64.8761C71.8092 64.8974 71.8136 64.9155 71.83 64.9786C71.9003 65.2617 71.8881 65.5451 71.7587 66.6935C71.6859 67.3405 71.6861 67.7634 71.7275 67.879C71.6871 67.767 71.5393 67.6393 71.33 67.6437L71.2998 67.6163C71.2898 67.6273 71.2788 67.6367 71.2695 67.6466C71.2662 67.6471 71.2628 67.648 71.2597 67.6486L71.2646 67.6525C71.2124 67.7079 71.1724 67.7464 71.1474 67.7657L71.1601 67.7589C71.1947 67.7382 71.2461 67.7179 71.3183 67.7013L72.1074 68.4161C71.6047 68.9711 70.8842 69.0661 70.6025 68.2833C70.4777 67.9359 70.4779 67.3887 70.5712 66.5597C70.6815 65.5812 70.6918 65.3521 70.6709 65.2667C70.6587 65.2212 70.6464 65.1736 70.6357 65.1232C70.5932 64.9218 70.5718 64.6539 70.5683 64.2101L70.0976 65.2296C69.566 64.9837 69.2934 64.763 69.2246 64.3732C69.2001 64.2345 69.213 64.1075 69.249 63.9786C69.2656 63.919 69.2878 63.8586 69.3144 63.7892C69.3768 63.6179 69.3618 63.5157 69.0908 63.1456C69.0243 63.0548 68.9555 62.9576 68.8837 62.8546C68.8616 62.848 68.8399 62.8414 68.8183 62.8351C68.5372 62.7527 68.2962 62.6922 68.1005 62.6534C68.1649 62.8223 68.2411 63.006 68.333 63.215C68.3464 63.2443 68.6612 63.9459 68.7382 64.1329C68.8976 64.5196 68.9843 64.8058 69.0009 65.0929C69.0715 66.3177 68.0809 66.6117 66.8466 66.2491C65.9275 65.9792 65.4606 65.8714 65.33 65.8751C65.7374 65.8636 65.9596 65.4178 65.9335 65.2511L64.163 65.5284C64.0437 64.7667 64.3713 64.1089 65.2793 64.0831C65.623 64.0734 66.0623 64.1631 66.8955 64.3986C66.8386 64.2691 66.7716 64.1162 66.6923 63.9357C66.4941 63.4846 66.353 63.1229 66.2421 62.757C65.9315 61.7317 66.4505 60.9251 67.4433 60.8224C67.4904 60.8175 67.5383 60.8147 67.5869 60.8126C67.3761 60.4594 67.1541 60.0776 66.9189 59.6681C66.7879 59.6935 66.6652 59.7164 66.5517 59.7335L66.4843 59.2911C65.9894 59.8423 65.48 60.3428 64.9892 60.7296C63.7998 61.6669 62.6953 61.9777 61.8623 61.0441L63.1992 59.8507C63.1549 59.8014 63.0815 59.7865 63.123 59.7745C63.2997 59.7248 63.5656 59.57 63.8798 59.3224C64.2162 59.0573 64.5803 58.7088 64.9453 58.3185C64.4401 57.9838 63.9446 57.5227 63.4648 56.9396C63.104 56.5011 62.7901 56.2084 62.4931 56.004C62.3452 55.9022 61.9066 55.6638 61.8447 55.6222C61.1053 55.1255 61.1474 54.6553 61.5947 53.5294L63.2597 54.1905C63.2386 54.2437 63.22 54.2923 63.2031 54.3361C63.3101 54.3994 63.4219 54.4686 63.5087 54.5284C63.9463 54.8296 64.3836 55.2357 64.8486 55.8009C65.3093 56.3609 65.7337 56.7347 66.1289 56.9464L66.1044 56.7804C66.1834 56.7684 66.346 56.7383 66.5615 56.6896C66.9218 56.608 67.2809 56.5057 67.6044 56.3839C67.94 56.2575 68.2015 56.1215 68.3574 56.0099C67.9557 55.443 67.6322 55.1719 67.4101 55.0919C67.378 55.0803 67.4069 55.0787 67.4472 55.0626C67.4897 55.0457 67.5418 55.0158 67.6093 54.9659L65.8349 52.5636C65.9627 52.4692 66.1305 52.3728 66.3398 52.2892ZM71.3789 67.6876C71.3572 67.6911 71.337 67.697 71.3183 67.7013L71.2646 67.6525C71.2663 67.6506 71.2677 67.6485 71.2695 67.6466C71.2707 67.6465 71.2722 67.6468 71.2734 67.6466C71.2925 67.6441 71.3118 67.6441 71.33 67.6437L71.3789 67.6876ZM70.5351 63.629C70.538 63.7828 70.5183 63.9336 70.4736 64.0851C70.5013 64.0993 70.5329 64.1137 70.5673 64.13C70.5673 64.113 70.5673 64.0957 70.5673 64.0782C70.5673 63.9452 70.5645 63.8217 70.5605 63.6847C70.555 63.6764 70.5467 63.6581 70.5351 63.629Z" fill="#C37C9C"/>
<path d="M68.2202 52.2353L69.4435 50.9258L72.0117 53.3248L70.7884 54.6344L68.2202 52.2353Z" fill="#C88A02"/>
<path d="M75.5862 86.0781L75.5608 86.1816C74.8016 89.3325 72.2278 90.9199 68.1194 90.9199C64.0068 90.9199 61.432 89.2904 60.676 86.0693L60.6526 85.9678V73H75.5862V86.0781ZM62.4446 85.7568C63.0175 88.0165 64.8196 89.1279 68.1194 89.1279C71.42 89.1278 73.2218 88.0468 73.7932 85.8613V74.792H62.4446V85.7568Z" fill="#FFC034"/>
<path d="M68.7366 79.3994L73.0686 74.6885L73.9485 75.4971L69.511 80.3232H74.4749V82.1152H69.4153L73.9485 87.0459L73.0696 87.8545L68.7366 83.1416V89.4473H67.4924V82.5176L62.5862 87.8545L61.7063 87.0459L66.2395 82.1152H62.1243V80.3232H66.1448L61.7073 75.4971L62.5862 74.6885L67.4924 80.0244V74.0938H68.7366V79.3994Z" fill="#FFC034"/>
<path fill-rule="evenodd" clip-rule="evenodd" d="M70.9073 93.0245C70.9073 93.0245 58.2556 94.0191 58.2556 85.8594C58.2556 85.8594 58.135 93.0245 44.9243 93.0245V99.4662H70.9073V93.0245Z" fill="#F1F9FF"/>
<path fill-rule="evenodd" clip-rule="evenodd" d="M58.2639 75.6872C60.7382 75.6872 62.7439 73.5477 62.7439 70.9085C62.7439 68.2694 60.7382 66.1299 58.2639 66.1299C55.7897 66.1299 53.7839 68.2694 53.7839 70.9085C53.7839 73.5477 55.7897 75.6872 58.2639 75.6872Z" fill="#005BBF" stroke="#AD1619" stroke-width="1.16667"/>
</g>
</g>
</g>
<defs>
<clipPath id="clip0_288_388">
<rect width="128" height="128" rx="64" fill="white"/>
</clipPath>
</defs>
</svg>
