<svg width="24" height="24" viewBox="0 0 24 24" fill="none" xmlns="http://www.w3.org/2000/svg">
<g clip-path="url(#clip0_288_1350)">
<rect width="24" height="24" rx="12" fill="white"/>
<g clip-path="url(#clip1_288_1350)">
<rect width="32" height="24" transform="translate(-4)" fill="white"/>
<path fill-rule="evenodd" clip-rule="evenodd" d="M-4 0V24H28V0H-4Z" fill="#F7FCFF"/>
<mask id="mask0_288_1350" style="mask-type:luminance" maskUnits="userSpaceOnUse" x="-4" y="0" width="32" height="24">
<path fill-rule="evenodd" clip-rule="evenodd" d="M-4 0V24H28V0H-4Z" fill="white"/>
</mask>
<g mask="url(#mask0_288_1350)">
<path fill-rule="evenodd" clip-rule="evenodd" d="M-4 0V8H28V0H-4Z" fill="#E31D1C"/>
<path fill-rule="evenodd" clip-rule="evenodd" d="M-4 16V24H28V16H-4Z" fill="#3D58DB"/>
<rect x="6.07654" y="6.39746" width="11.4" height="4" fill="#E31D1C"/>
<path d="M16.7802 8.95996C16.7972 9.72885 16.8027 11.0701 16.8026 12.3613C16.8025 13.1952 16.8009 13.9983 16.7987 14.5928C16.7976 14.8899 16.7966 15.135 16.7958 15.3057C16.7954 15.3907 16.795 15.4575 16.7948 15.5029C16.7947 15.5138 16.7939 15.5239 16.7938 15.5322V15.5352C16.7894 15.5617 16.7818 15.6035 16.7704 15.6582C16.7474 15.7682 16.7089 15.9303 16.6473 16.126C16.5235 16.5192 16.3098 17.0405 15.955 17.5586C15.2605 18.5725 13.9994 19.6152 11.6493 19.6152C9.3029 19.6151 8.1034 18.5743 7.46472 17.5703C7.13677 17.0547 6.94942 16.5346 6.8446 16.1416C6.79247 15.9461 6.76077 15.7848 6.74304 15.6748C6.73422 15.6201 6.72862 15.5783 6.72546 15.5518C6.72505 15.5483 6.72482 15.5449 6.72449 15.542C6.72435 15.5304 6.72379 15.5128 6.72351 15.4902C6.72296 15.4451 6.72161 15.3787 6.72058 15.2939C6.71853 15.1243 6.71628 14.8804 6.71277 14.585C6.70574 13.9942 6.69577 13.1959 6.6864 12.3652C6.67209 11.0954 6.66014 9.7535 6.65417 8.95996H16.7802Z" fill="#F7FCFF" stroke="#E31D1C" stroke-width="1.125"/>
<mask id="mask1_288_1350" style="mask-type:luminance" maskUnits="userSpaceOnUse" x="6" y="8" width="12" height="13">
<path d="M16.7802 8.95996C16.7972 9.72885 16.8027 11.0701 16.8026 12.3613C16.8025 13.1952 16.8009 13.9983 16.7987 14.5928C16.7976 14.8899 16.7966 15.135 16.7958 15.3057C16.7954 15.3907 16.795 15.4575 16.7948 15.5029C16.7947 15.5138 16.7939 15.5239 16.7938 15.5322V15.5352C16.7894 15.5617 16.7818 15.6035 16.7704 15.6582C16.7474 15.7682 16.7089 15.9303 16.6473 16.126C16.5235 16.5192 16.3098 17.0405 15.955 17.5586C15.2605 18.5725 13.9994 19.6152 11.6493 19.6152C9.3029 19.6151 8.1034 18.5743 7.46472 17.5703C7.13677 17.0547 6.94942 16.5346 6.8446 16.1416C6.79247 15.9461 6.76077 15.7848 6.74304 15.6748C6.73422 15.6201 6.72862 15.5783 6.72546 15.5518C6.72505 15.5483 6.72482 15.5449 6.72449 15.542C6.72435 15.5304 6.72379 15.5128 6.72351 15.4902C6.72296 15.4451 6.72161 15.3787 6.72058 15.2939C6.71853 15.1243 6.71628 14.8804 6.71277 14.585C6.70574 13.9942 6.69577 13.1959 6.6864 12.3652C6.67209 11.0954 6.66014 9.7535 6.65417 8.95996H16.7802Z" fill="white" stroke="white" stroke-width="1.125"/>
</mask>
<g mask="url(#mask1_288_1350)">
<path d="M8.60779 19.75H6.49841V17.6074H8.60779V19.75ZM12.8265 19.75H10.7172V17.6074H12.8265V19.75ZM17.0453 19.75H14.9359V17.6074H17.0453V19.75ZM10.7172 17.6074H8.60779V15.4658H10.7172V17.6074ZM14.9359 17.6074H12.8265V15.4658H14.9359V17.6074ZM8.60779 15.4658H6.49841V13.3242H8.60779V15.4658ZM12.8265 15.4658H10.7172V13.3242H12.8265V15.4658ZM17.0453 15.4658H14.9359V13.3242H17.0453V15.4658ZM10.7172 13.3242H8.60779V11.1816H10.7172V13.3242ZM14.9359 13.3242H12.8265V11.1816H14.9359V13.3242ZM8.60779 11.1816H6.49841V9.04004H8.60779V11.1816ZM12.8265 11.1816H10.7172V9.04004H12.8265V11.1816ZM17.0453 11.1816H14.9359V9.04004H17.0453V11.1816Z" fill="#F50100"/>
</g>
<path fill-rule="evenodd" clip-rule="evenodd" d="M6.45303 8.16303C6.45303 8.16303 7.10546 7.81454 7.66194 7.63494C8.21843 7.45534 8.65826 7.35722 8.65826 7.35722L7.83032 4.30512L6.172 3.68555L5.23279 5.23365L6.45303 8.16303Z" fill="#56C6F5" stroke="white" stroke-width="0.5"/>
<path d="M6.18103 6.4907L6.37159 6.39884C6.56837 6.81976 6.82775 6.94977 7.18329 6.81708C7.54646 6.68155 7.69453 6.42526 7.64228 6.01894L7.85144 5.99121C7.9163 6.49558 7.71291 6.84763 7.25606 7.01813C6.79158 7.19147 6.42205 7.00625 6.18103 6.4907Z" fill="white"/>
<path fill-rule="evenodd" clip-rule="evenodd" d="M6.63229 5.54189L6.45012 5.65224C6.40981 5.67666 6.35968 5.64157 6.36884 5.59534L6.41024 5.3864L6.22357 5.28381C6.18227 5.26111 6.1876 5.20015 6.23222 5.18497L6.43386 5.11635L6.42938 4.9034C6.42839 4.85628 6.48384 4.83042 6.5193 4.86147L6.67955 5.00178L6.86173 4.89142C6.90204 4.867 6.95216 4.9021 6.943 4.94833L6.90161 5.15727L7.08827 5.25986C7.12957 5.28256 7.12424 5.34352 7.07962 5.3587L6.87798 5.42732L6.88246 5.64027C6.88346 5.68739 6.828 5.71325 6.79254 5.6822L6.63229 5.54189Z" fill="#FECA00"/>
<path fill-rule="evenodd" clip-rule="evenodd" d="M10.5407 7.07588C10.5407 7.07588 11.0971 7.02622 11.6817 7.03758C12.2664 7.04894 12.7609 7.05309 12.7609 7.05309L13.0465 4.04361L11.7942 2.91222L10.4021 4.0702L10.5407 7.07588Z" fill="#56C6F5" stroke="white" stroke-width="0.5"/>
<path fill-rule="evenodd" clip-rule="evenodd" d="M11.7501 6.58463C12.2325 6.58463 12.2787 6.06366 12.2787 5.70878C12.1553 5.51195 12.1802 5.37109 11.7848 5.37109C11.3895 5.37109 11.3444 5.49056 11.229 5.70878C11.229 6.06366 11.2678 6.58463 11.7501 6.58463Z" fill="#FECA00"/>
<path fill-rule="evenodd" clip-rule="evenodd" d="M12.293 5.11295C12.7753 5.11295 12.8215 4.59198 12.8215 4.2371C12.6982 4.04027 12.723 3.89941 12.3277 3.89941C11.9323 3.89941 11.8872 4.01888 11.7719 4.2371C11.7719 4.59198 11.8106 5.11295 12.293 5.11295Z" fill="#FECA00"/>
<path fill-rule="evenodd" clip-rule="evenodd" d="M11.2383 5.11295C11.7206 5.11295 11.7668 4.59198 11.7668 4.2371C11.6435 4.04027 11.6683 3.89941 11.273 3.89941C10.8776 3.89941 10.8325 4.01888 10.7172 4.2371C10.7172 4.59198 10.7559 5.11295 11.2383 5.11295Z" fill="#FECA00"/>
<path d="M9.12866 2.85742L10.4919 3.8252L10.5857 3.89258L10.5964 4.00781L10.8484 6.93262L10.8708 7.19238L10.6091 7.20312H10.6082C10.6072 7.20317 10.6053 7.20402 10.6033 7.2041C10.5992 7.20428 10.5933 7.20375 10.5857 7.2041C10.57 7.20482 10.5471 7.20654 10.5183 7.20801C10.4603 7.21097 10.3782 7.21551 10.2849 7.22168C10.0971 7.23411 9.86645 7.25262 9.6814 7.27832C9.50458 7.30289 9.25941 7.36341 9.05054 7.4209C8.94781 7.44918 8.85601 7.47651 8.79077 7.49609C8.75841 7.50581 8.73235 7.51405 8.7146 7.51953C8.70579 7.52225 8.69861 7.52398 8.69409 7.52539C8.69194 7.52606 8.69027 7.52701 8.68921 7.52734H8.68823L8.44507 7.60449L8.3728 7.35938L7.50562 4.41602L7.4646 4.27637L7.56616 4.17188L8.80444 2.8877L8.95386 2.7334L9.12866 2.85742Z" fill="#2E42A5" stroke="white" stroke-width="0.5"/>
<mask id="mask2_288_1350" style="mask-type:luminance" maskUnits="userSpaceOnUse" x="7" y="2" width="5" height="6">
<path d="M9.12866 2.85742L10.4919 3.8252L10.5857 3.89258L10.5964 4.00781L10.8484 6.93262L10.8708 7.19238L10.6091 7.20312H10.6082C10.6072 7.20317 10.6053 7.20402 10.6033 7.2041C10.5992 7.20428 10.5933 7.20375 10.5857 7.2041C10.57 7.20482 10.5471 7.20654 10.5183 7.20801C10.4603 7.21097 10.3782 7.21551 10.2849 7.22168C10.0971 7.23411 9.86645 7.25262 9.6814 7.27832C9.50458 7.30289 9.25941 7.36341 9.05054 7.4209C8.94781 7.44918 8.85601 7.47651 8.79077 7.49609C8.75841 7.50581 8.73235 7.51405 8.7146 7.51953C8.70579 7.52225 8.69861 7.52398 8.69409 7.52539C8.69194 7.52606 8.69027 7.52701 8.68921 7.52734H8.68823L8.44507 7.60449L8.3728 7.35938L7.50562 4.41602L7.4646 4.27637L7.56616 4.17188L8.80444 2.8877L8.95386 2.7334L9.12866 2.85742Z" fill="white" stroke="white" stroke-width="0.5"/>
</mask>
<g mask="url(#mask2_288_1350)">
<path d="M8.43642 6.6379L8.18591 6.04782C8.72392 5.81233 9.63276 5.66783 10.5891 5.61133L10.6259 6.25281C9.73681 6.30534 8.89581 6.43682 8.43642 6.6379Z" fill="#C51918"/>
<path d="M8.01369 5.21042L7.76318 4.62034C8.30119 4.38484 9.4576 4.19419 10.414 4.1377L10.4507 4.77918C9.56165 4.8317 8.47308 5.00933 8.01369 5.21042Z" fill="#C51918"/>
</g>
<path d="M14.2786 2.85742L12.9163 3.8252L12.8215 3.89258L12.8118 4.00781L12.5588 6.93262L12.5364 7.19238L12.7981 7.20312H12.7991C12.8001 7.20317 12.8019 7.20401 12.804 7.2041C12.8079 7.20427 12.8139 7.20375 12.8215 7.2041C12.8373 7.20482 12.8609 7.20653 12.8899 7.20801C12.9478 7.21097 13.0291 7.21551 13.1223 7.22168C13.3103 7.23412 13.5416 7.25258 13.7268 7.27832C13.9037 7.30293 14.1488 7.36339 14.3577 7.4209C14.4604 7.44918 14.5512 7.47651 14.6165 7.49609C14.6489 7.50583 14.6748 7.51402 14.6926 7.51953C14.7014 7.52225 14.7086 7.52396 14.7131 7.52539C14.7152 7.52605 14.7169 7.527 14.718 7.52734H14.72L14.969 7.60645L15.0364 7.35449L15.8323 4.40527L15.8684 4.27344L15.7756 4.17188L14.6077 2.89258L14.4592 2.72949L14.2786 2.85742Z" fill="#2E42A5" stroke="white" stroke-width="0.5"/>
<mask id="mask3_288_1350" style="mask-type:luminance" maskUnits="userSpaceOnUse" x="12" y="2" width="5" height="6">
<path d="M14.2786 2.85742L12.9163 3.8252L12.8215 3.89258L12.8118 4.00781L12.5588 6.93262L12.5364 7.19238L12.7981 7.20312H12.7991C12.8001 7.20317 12.8019 7.20401 12.804 7.2041C12.8079 7.20427 12.8139 7.20375 12.8215 7.2041C12.8373 7.20482 12.8609 7.20653 12.8899 7.20801C12.9478 7.21097 13.0291 7.21551 13.1223 7.22168C13.3103 7.23412 13.5416 7.25258 13.7268 7.27832C13.9037 7.30293 14.1488 7.36339 14.3577 7.4209C14.4604 7.44918 14.5512 7.47651 14.6165 7.49609C14.6489 7.50583 14.6748 7.51402 14.6926 7.51953C14.7014 7.52225 14.7086 7.52396 14.7131 7.52539C14.7152 7.52605 14.7169 7.527 14.718 7.52734H14.72L14.969 7.60645L15.0364 7.35449L15.8323 4.40527L15.8684 4.27344L15.7756 4.17188L14.6077 2.89258L14.4592 2.72949L14.2786 2.85742Z" fill="white" stroke="white" stroke-width="0.5"/>
</mask>
<g mask="url(#mask3_288_1350)">
<path fill-rule="evenodd" clip-rule="evenodd" d="M14.3978 6.46611C14.3978 6.46611 14.6918 6.30249 14.7342 6.0266C14.7766 5.75072 15.2313 5.41093 15.0039 5.45137C14.7766 5.49181 14.9066 5.5234 14.5774 5.45137C14.2481 5.37934 13.822 5.33169 13.822 5.12931C13.822 4.92692 14.0338 4.76628 13.8607 4.76628C13.6875 4.76628 13.3182 4.57473 13.3923 4.72114C13.4665 4.86755 13.2217 4.70201 13.3441 5.00597C13.4665 5.30993 13.3182 5.61615 13.3923 5.69673C13.4665 5.77731 13.3441 6.1725 13.3441 6.1725C13.3441 6.1725 13.3891 6.31927 13.4677 6.09943C13.5464 5.87958 13.7185 5.72548 13.6325 5.91245C13.5464 6.09943 13.4366 6.54416 13.5345 6.46611C13.6325 6.38807 13.7298 6.17225 13.7298 6.09943C13.7298 6.0266 13.9769 5.74074 13.9769 5.95662C13.9769 6.1725 13.7444 6.3425 13.8607 6.3425C13.9769 6.3425 14.0421 6.38837 14.1152 6.1725C14.1882 5.95662 14.3657 5.81381 14.4385 5.95662C14.5113 6.09943 14.4952 6.0918 14.3978 6.27896C14.3005 6.46611 14.3978 6.46611 14.3978 6.46611Z" fill="#FECA00"/>
<path d="M14.3031 6.4245C14.3652 6.4245 14.4154 6.47446 14.4154 6.53582C14.4151 6.59697 14.3651 6.64618 14.3031 6.64618C14.2412 6.64611 14.1911 6.59693 14.1908 6.53582C14.1908 6.4745 14.241 6.42456 14.3031 6.4245ZM13.5717 6.25457C13.6338 6.25457 13.684 6.30454 13.684 6.3659C13.6839 6.42721 13.6337 6.47723 13.5717 6.47723C13.5097 6.47713 13.4594 6.42715 13.4594 6.3659C13.4594 6.3046 13.5096 6.25468 13.5717 6.25457ZM13.9506 6.24676C14.0126 6.24676 14.0626 6.29594 14.0629 6.35711C14.0629 6.41848 14.0127 6.46844 13.9506 6.46844C13.8885 6.46833 13.8383 6.41841 13.8383 6.35711C13.8385 6.296 13.8887 6.24687 13.9506 6.24676ZM13.3607 6.04071C13.4228 6.04071 13.473 6.09067 13.473 6.15204C13.4728 6.2132 13.4227 6.26239 13.3607 6.26239C13.2988 6.26228 13.2487 6.21313 13.2484 6.15204C13.2484 6.09073 13.2987 6.04081 13.3607 6.04071ZM13.598 4.68231C13.7943 4.56146 13.9749 4.52992 14.1332 4.59735C14.205 4.62798 14.2597 4.66315 14.4008 4.76239C14.4096 4.76863 14.4102 4.76871 14.4193 4.77508C14.566 4.87793 14.6438 4.92039 14.6918 4.92059V5.13446C14.5821 5.13435 14.4872 5.08273 14.2992 4.95086C14.29 4.94438 14.2897 4.94454 14.2806 4.93817C14.1534 4.84867 14.1039 4.81709 14.0511 4.79461C13.9636 4.7573 13.8511 4.77738 13.7074 4.8659L13.598 4.68231Z" fill="#C51918"/>
</g>
<path d="M17.335 3.45117L15.6768 4.07129L15.5576 4.11523L15.5234 4.23633L14.6777 7.21289L14.6045 7.46777L14.8633 7.52539H14.8643C14.8649 7.52554 14.8659 7.52606 14.8672 7.52637C14.8702 7.52706 14.8756 7.52786 14.8818 7.5293C14.8942 7.53217 14.9127 7.53626 14.9365 7.54199C14.9849 7.55363 15.0557 7.57174 15.1436 7.59473C15.3196 7.6408 15.5643 7.70889 15.8369 7.79688C16.1002 7.88184 16.392 8.00833 16.6211 8.11621C16.7347 8.1697 16.8314 8.21837 16.8994 8.25293C16.9333 8.27013 16.9604 8.28352 16.9785 8.29297C16.9875 8.29767 16.9945 8.30131 16.999 8.30371C17.0013 8.30489 17.0028 8.30607 17.0039 8.30664L17.0049 8.30762L17.2441 8.43555L17.3525 8.18652L18.5908 5.33301L18.6426 5.21484L18.5752 5.10352L17.6357 3.55566L17.5283 3.37891L17.335 3.45117Z" fill="#56C6F5" stroke="white" stroke-width="0.5"/>
<mask id="mask4_288_1350" style="mask-type:luminance" maskUnits="userSpaceOnUse" x="14" y="3" width="5" height="6">
<path d="M17.335 3.45117L15.6768 4.07129L15.5576 4.11523L15.5234 4.23633L14.6777 7.21289L14.6045 7.46777L14.8633 7.52539H14.8643C14.8649 7.52554 14.8659 7.52606 14.8672 7.52637C14.8702 7.52706 14.8756 7.52786 14.8818 7.5293C14.8942 7.53217 14.9127 7.53626 14.9365 7.54199C14.9849 7.55363 15.0557 7.57174 15.1436 7.59473C15.3196 7.6408 15.5643 7.70889 15.8369 7.79688C16.1002 7.88184 16.392 8.00833 16.6211 8.11621C16.7347 8.1697 16.8314 8.21837 16.8994 8.25293C16.9333 8.27013 16.9604 8.28352 16.9785 8.29297C16.9875 8.29767 16.9945 8.30131 16.999 8.30371C17.0013 8.30489 17.0028 8.30607 17.0039 8.30664L17.0049 8.30762L17.2441 8.43555L17.3525 8.18652L18.5908 5.33301L18.6426 5.21484L18.5752 5.10352L17.6357 3.55566L17.5283 3.37891L17.335 3.45117Z" fill="white" stroke="white" stroke-width="0.5"/>
</mask>
<g mask="url(#mask4_288_1350)">
<path fill-rule="evenodd" clip-rule="evenodd" d="M17.1274 5.08906L16.9854 5.24786C16.954 5.28299 16.8958 5.26409 16.8911 5.2172L16.8696 5.00529L16.6611 4.96175C16.615 4.95212 16.6022 4.89227 16.6405 4.8647L16.8132 4.74013L16.7467 4.53779C16.732 4.49302 16.7774 4.45208 16.8204 4.4714L17.0147 4.55874L17.1566 4.39994C17.188 4.3648 17.2462 4.38371 17.251 4.4306L17.2725 4.64251L17.481 4.68604C17.5271 4.69567 17.5399 4.75553 17.5016 4.78309L17.3289 4.90767L17.3954 5.11C17.4101 5.15477 17.3647 5.19571 17.3217 5.17639L17.1274 5.08906Z" fill="#FECA00"/>
<path d="M14.9951 6.48834L15.2075 5.65918C16.1483 5.90768 17.129 6.22616 17.8484 6.53414L17.5207 7.32361C16.841 7.03268 15.8985 6.72697 14.9951 6.48834Z" fill="#E31D1C"/>
<path d="M15.2831 5.72271L15.3332 5.51465C16.2351 5.73847 17.1937 6.09559 17.8903 6.42821L17.8005 6.62204C17.1173 6.29581 16.1719 5.94329 15.2831 5.72271Z" fill="white"/>
<path d="M15.0157 6.57721L15.0658 6.36914C15.9677 6.59296 16.8013 6.89665 17.4979 7.22928L17.4082 7.42311C16.725 7.09687 15.9046 6.79778 15.0157 6.57721Z" fill="white"/>
<path d="M15.4229 6.1751L15.616 6.08789C15.6973 6.2782 15.7977 6.32013 15.9656 6.23856C16.3621 6.0459 17.3457 6.31514 17.3457 6.67817C17.3457 6.8198 17.2636 6.90566 17.1383 6.90069C17.0676 6.89788 16.9921 6.86993 16.8813 6.81517C16.8679 6.80853 16.859 6.80408 16.8372 6.79301C16.7148 6.73054 16.7055 6.72598 16.6729 6.71424L16.7427 6.50959C16.7878 6.52586 16.7949 6.52935 16.931 6.59873C16.952 6.60939 16.9601 6.61352 16.9727 6.61972C17.0576 6.6617 17.1144 6.68271 17.1464 6.68398C17.1494 6.6841 17.1348 6.6994 17.1348 6.67817C17.1348 6.51844 16.3342 6.29931 16.0557 6.43464C15.7779 6.56959 15.5509 6.47478 15.4229 6.1751Z" fill="#272727"/>
</g>
</g>
</g>
</g>
<defs>
<clipPath id="clip0_288_1350">
<rect width="24" height="24" rx="12" fill="white"/>
</clipPath>
<clipPath id="clip1_288_1350">
<rect width="32" height="24" fill="white" transform="translate(-4)"/>
</clipPath>
</defs>
</svg>
