<svg width="32" height="32" viewBox="0 0 32 32" fill="none" xmlns="http://www.w3.org/2000/svg">
<g clip-path="url(#clip0_288_1555)">
<rect width="32" height="32" rx="16" fill="white"/>
<rect x="1" y="-2" width="9" height="36" fill="#006923"/>
<rect x="22" y="-2" width="9" height="36" fill="#D9071E"/>
<g clip-path="url(#clip1_288_1555)">
<rect width="32" height="24" transform="translate(0 4)" fill="white"/>
<path fill-rule="evenodd" clip-rule="evenodd" d="M22 4H32V28H22V4Z" fill="#D9071E"/>
<path fill-rule="evenodd" clip-rule="evenodd" d="M0 4H12V28H0V4Z" fill="#006923"/>
<path fill-rule="evenodd" clip-rule="evenodd" d="M10 4H22V28H10V4Z" fill="white"/>
<path d="M14.0161 11.9463C13.9243 12.0992 13.8506 12.2323 13.7964 12.3418C13.9761 12.3949 14.1005 12.6488 14.2368 12.7744C14.6011 13.1101 14.5557 13.4846 14.0552 13.8906C13.9587 13.9693 14.1819 14.1764 14.0952 14.4336C14.3339 14.4469 14.5043 14.4832 14.6616 14.5762C15.1036 14.8376 15.0627 15.3144 14.7261 15.6826C14.4875 15.9436 14.1687 16.1552 13.8687 16.2637C13.3694 16.444 12.8354 16.3744 12.8354 15.7354C12.8353 15.7103 12.8193 15.6606 13.0552 15.6553C12.675 15.6493 12.5187 14.605 12.5132 14.4863C12.5132 13.6918 12.1772 13.6914 12.1772 13.6914V13.2646H12.7573C13.0863 13.2647 12.9949 13.6609 13.0991 13.8906C13.1243 13.8486 13.1656 15.204 13.3013 15.0898C13.3531 15.0495 13.7366 15.5331 13.7964 15.3213C13.8411 15.1615 13.5811 14.5321 13.5815 14.2646C13.5825 13.6435 13.7772 13.2904 13.7964 13.2646C13.713 13.2351 13.5889 12.906 13.5327 12.9043C13.019 12.9043 12.949 12.7966 13.0552 12.3418C13.112 12.0986 12.918 11.8326 13.1587 11.4316L14.0161 11.9463ZM13.9722 15.0244L13.9829 15.0146C13.9845 15.0119 13.9861 15.0096 13.9878 15.0078C13.9827 15.0134 13.9774 15.0189 13.9722 15.0244Z" fill="#A8AC71"/>
<path fill-rule="evenodd" clip-rule="evenodd" d="M14.384 11.9131C14.384 11.9131 13.6972 12.4457 13.8257 13.0136C13.9541 13.5815 15.3076 13.0136 15.144 12.4634C14.9804 11.9131 14.384 11.9131 14.384 11.9131Z" fill="#FCCA3D"/>
<path fill-rule="evenodd" clip-rule="evenodd" d="M19.2664 16.4025C19.2664 16.4025 20.1914 13.6612 18.7211 12.2421C17.2507 10.8231 15.5516 10.9181 15.5516 10.9181C15.5516 10.9181 15.0623 11.2816 15.5516 11.5589C16.0409 11.8361 15.8359 12.102 15.8359 12.102C15.8359 12.102 15.0164 11.2699 14.4725 11.756C13.9285 12.2421 14.9803 12.1682 14.8689 12.5342C14.7576 12.9002 14.2859 14.5253 14.9751 15.3457C15.6644 16.1662 14.3235 15.9881 14.5962 15.9881C14.8689 15.9881 15.8359 16.1791 15.8359 15.9881C15.8359 15.7971 16.172 16.7306 16.4597 16.7306C16.7474 16.7306 16.9695 16.4025 16.9695 16.4025C16.9695 16.4025 17.3728 16.7306 17.6185 16.7306C17.8642 16.7306 18.7211 16.5159 18.7211 16.5159L17.1016 15.1514C17.1016 15.1514 17.1992 14.5495 16.9695 14.4192C16.7397 14.289 18.8112 15.5737 18.9735 15.9881C19.1357 16.4025 19.2664 16.4025 19.2664 16.4025Z" fill="#8F4620"/>
<path d="M11.0664 15.7266C11.0664 15.7266 11.2166 15.248 11.3773 15.2148C11.5166 15.186 11.8094 15.4441 11.8094 15.4441C12.3297 18.334 13.5876 19.4627 15.6749 19.4627C17.7867 19.4627 19.0666 18.605 19.8135 15.9398C19.8135 15.9398 20.2106 15.5343 20.3507 15.5794C20.5032 15.6284 20.6943 16.1649 20.6943 16.1649C19.8375 19.2225 18.2185 20.5839 15.6749 20.5839C13.1067 20.5839 11.6638 19.0448 11.0664 15.7266Z" fill="#9FAB2F"/>
<path fill-rule="evenodd" clip-rule="evenodd" d="M13.3341 17.6562C13.3341 17.6562 16.3385 18.2936 17.5243 18.2936C18.7102 18.2936 16.4839 19.2614 15.6152 19.2614C15.2352 19.2614 14.7772 19.031 14.2412 18.5703C14.1451 18.4878 14.2382 18.303 13.9455 18.3005C13.5374 18.2969 13.0304 18.2012 13.0789 18.1429C13.125 18.0874 13.7188 18.0706 13.6616 18.01C13.5672 17.9099 13.3341 17.6562 13.3341 17.6562Z" fill="#2FC2DC"/>
<rect x="14.6666" y="18.0996" width="2" height="1.07143" rx="0.166667" fill="#F9AA51"/>
<path d="M12.1754 16.1358C12.1754 16.1358 12.1754 15.7607 12.4294 15.5615C12.7205 15.3331 12.994 15.5615 12.994 15.5615C14.0595 17.0801 15.6528 17.5797 17.8812 17.0583C17.8812 17.0583 18.5475 17.276 18.581 17.419C18.6234 17.6006 18.109 18.032 18.109 18.032C15.504 18.6415 13.4904 18.0101 12.1754 16.1358Z" fill="#259485"/>
<path fill-rule="evenodd" clip-rule="evenodd" d="M16.5913 16.3496C16.5913 16.3496 15.3776 16.9885 15.7822 16.9885C16.1867 16.9885 17.77 17.3079 17.4619 16.9885C17.1538 16.669 16.5913 16.3496 16.5913 16.3496Z" fill="#FCCA3D"/>
<path fill-rule="evenodd" clip-rule="evenodd" d="M15.1563 15.5879C15.1563 15.5879 14.9257 14.9219 14.4458 14.9219C13.9659 14.9219 14.1014 15.4683 13.8706 15.4683C13.6398 15.4683 14.0856 15.8527 14.2843 15.8527C14.483 15.8527 15.1563 15.5879 15.1563 15.5879Z" fill="#FCCA3D"/>
</g>
</g>
<defs>
<clipPath id="clip0_288_1555">
<rect width="32" height="32" rx="16" fill="white"/>
</clipPath>
<clipPath id="clip1_288_1555">
<rect width="32" height="24" fill="white" transform="translate(0 4)"/>
</clipPath>
</defs>
</svg>
