<svg width="32" height="32" viewBox="0 0 32 32" fill="none" xmlns="http://www.w3.org/2000/svg">
<g clip-path="url(#clip0_288_1598)">
<rect width="32" height="32" rx="16" fill="white"/>
<rect x="-1" y="-2" width="15" height="36" fill="#2F8D00"/>
<rect x="14" y="-2" width="15" height="36" fill="#EF0000"/>
<g clip-path="url(#clip1_288_1598)">
<path fill-rule="evenodd" clip-rule="evenodd" d="M10 4H34V28H10V4Z" fill="#EF0000"/>
<path fill-rule="evenodd" clip-rule="evenodd" d="M2 4H14V28H2V4Z" fill="#2F8D00"/>
<mask id="mask0_288_1598" style="mask-type:luminance" maskUnits="userSpaceOnUse" x="6" y="8" width="16" height="16">
<path fill-rule="evenodd" clip-rule="evenodd" d="M13.9047 23.8068C9.64423 23.8068 6.19043 20.3114 6.19043 15.9996C6.19043 11.6878 9.64423 8.19238 13.9047 8.19238C18.1652 8.19238 21.619 11.6878 21.619 15.9996C21.619 20.3114 18.1652 23.8068 13.9047 23.8068Z" fill="white"/>
</mask>
<g mask="url(#mask0_288_1598)">
<path fill-rule="evenodd" clip-rule="evenodd" d="M13.4285 8H14.4285V10.6988H13.4285V8Z" fill="#FFE017"/>
<path fill-rule="evenodd" clip-rule="evenodd" d="M13.4285 21.4932H14.4285V23.9992H13.4285V21.4932Z" fill="#FFE017"/>
<path d="M6.31437 16.403L6.03479 15.6858C9.11998 14.4541 11.4485 13.6598 13.0285 13.3018C15.3466 12.7766 17.8937 12.388 20.6699 12.1357L20.738 12.9037C17.9937 13.1531 15.4793 13.5367 13.195 14.0543C11.662 14.4016 9.3658 15.1848 6.31437 16.403Z" fill="#FFE017"/>
<path d="M21.1408 11.6631L20.914 12.3992C18.5822 11.6631 16.6828 11.3467 15.2228 11.4447L15.1724 10.6753C16.74 10.5701 18.7271 10.9011 21.1408 11.6631Z" fill="#FFE017"/>
<path d="M21.9476 15.7793L21.5166 16.4152C20.3279 15.5899 18.8635 15.1754 17.1133 15.1754V14.4043C19.0107 14.4043 20.6254 14.8614 21.9476 15.7793Z" fill="#FFE017"/>
<path d="M21.302 16.0098L21.499 16.7546C18.9364 17.4488 16.5304 17.8426 14.281 17.9353C12.016 18.0287 9.37616 17.6335 6.35913 16.7526L6.57031 16.0118C9.51401 16.8712 12.0747 17.2546 14.25 17.1649C16.4408 17.0746 18.7915 16.6898 21.302 16.0098Z" fill="#FFE017"/>
<path d="M21.0117 19.6357L19.8073 20.8704C17.5186 18.5838 15.5037 16.9489 13.775 15.9665C12.0166 14.9674 9.72366 13.9528 6.89954 12.9269L7.47868 11.2939C10.3861 12.3501 12.7634 13.402 14.6142 14.4537C16.4946 15.5222 18.623 17.2492 21.0117 19.6357Z" fill="#FFE017"/>
<path d="M7.4583 20.3347L7.00244 19.7169C7.0661 19.6688 7.17969 19.5885 7.33619 19.4869C7.59459 19.319 7.88153 19.1514 8.19025 18.9948C9.04055 18.5634 9.89349 18.2941 10.707 18.2694C10.7468 18.2682 10.7864 18.2676 10.8259 18.2676V19.0387C10.7941 19.0387 10.7621 19.0392 10.7299 19.0401C10.0443 19.061 9.29145 19.2987 8.53166 19.6841C8.24846 19.8278 7.98459 19.9819 7.74777 20.1358C7.66534 20.1893 7.59241 20.2388 7.52991 20.283C7.49348 20.3087 7.4693 20.3264 7.4583 20.3347Z" fill="#FFE017"/>
<path d="M7.81213 20.6021L8.004 19.8558C10.5441 20.5248 12.5024 20.8581 13.8691 20.8581C15.2307 20.8581 17.2573 20.4649 19.9357 19.6758L20.1487 20.4161C17.4069 21.2239 15.3181 21.6292 13.8691 21.6292C12.4252 21.6292 10.4095 21.2861 7.81213 20.6021Z" fill="#FFE017"/>
<path d="M6.82239 13.6938L8.02946 12.4619L9.79679 14.2356L8.58971 15.4675L6.82239 13.6938Z" fill="#FFE017"/>
<path d="M16.8359 19.8471L17.7338 18.3691L20.5374 20.1136L19.6396 21.5916L16.8359 19.8471Z" fill="#FFE017"/>
</g>
<path d="M13.9043 8.19238C18.1648 8.19238 21.6191 11.6882 21.6191 16C21.6189 20.3116 18.1647 23.8066 13.9043 23.8066C9.64413 23.8064 6.19064 20.3115 6.19043 16C6.19043 11.6883 9.64401 8.19261 13.9043 8.19238ZM14 9.34863C10.3182 9.34863 7.33316 12.3696 7.33301 16.0957C7.33301 19.822 10.3181 22.8428 14 22.8428C17.6819 22.8427 20.667 19.8219 20.667 16.0957C20.6668 12.3696 17.6818 9.34866 14 9.34863Z" fill="#F9E813"/>
<path d="M9.65662 11.1846V17.4453C10.0688 19.9234 11.4572 21.1624 13.822 21.1624C16.1868 21.1624 17.5753 19.9234 17.9874 17.4453V11.1846H9.65662Z" fill="white"/>
<path d="M9.08521 10.6064H18.5588V17.4938L18.5509 17.5415C18.0933 20.2931 16.4709 21.7409 13.822 21.7409C11.1731 21.7409 9.55077 20.2931 9.09313 17.5415L9.08521 17.4938V10.6064Z" fill="#C51918"/>
<path d="M11.2522 12.71H16.3919V17.1509C16.3919 17.1509 16.0105 19.4442 13.8221 19.4442C11.6336 19.4442 11.2522 17.1509 11.2522 17.1509V12.71Z" fill="#F7FCFF"/>
<path fill-rule="evenodd" clip-rule="evenodd" d="M10 11.084H10.7229V11.5659H10V11.084Z" fill="#F9E813"/>
<path fill-rule="evenodd" clip-rule="evenodd" d="M9.61902 11.2764H10.9524V11.5173H9.61902V11.2764Z" fill="#060101"/>
<path fill-rule="evenodd" clip-rule="evenodd" d="M9.61902 11.4697H10.3419V11.7107H9.61902V11.4697Z" fill="#F9E813"/>
<path fill-rule="evenodd" clip-rule="evenodd" d="M10.381 11.4697H11.1039V11.7107H10.381V11.4697Z" fill="#F9E813"/>
<path fill-rule="evenodd" clip-rule="evenodd" d="M9.61902 12.0479H10.1009V12.7707H9.61902V12.0479Z" fill="#F9E813"/>
<path fill-rule="evenodd" clip-rule="evenodd" d="M10.5714 12.0479H11.0533V12.7707H10.5714V12.0479Z" fill="#F9E813"/>
<path fill-rule="evenodd" clip-rule="evenodd" d="M10.1904 12.0479H10.4314V12.7707H10.1904V12.0479Z" fill="#F9E813"/>
<path fill-rule="evenodd" clip-rule="evenodd" d="M9.61902 11.8555H10.9524V12.0964H9.61902V11.8555Z" fill="#060101"/>
<path fill-rule="evenodd" clip-rule="evenodd" d="M9.61902 12.4336H10.9524V12.6746H9.61902V12.4336Z" fill="#060101"/>
<path fill-rule="evenodd" clip-rule="evenodd" d="M9.80945 11.6621H10.0504V11.9031H9.80945V11.6621Z" fill="#F9E813"/>
<path fill-rule="evenodd" clip-rule="evenodd" d="M10.5714 11.6621H10.8124V11.9031H10.5714V11.6621Z" fill="#F9E813"/>
<path fill-rule="evenodd" clip-rule="evenodd" d="M10.1904 11.4697H10.4314V11.9517H10.1904V11.4697Z" fill="#F9E813"/>
<path fill-rule="evenodd" clip-rule="evenodd" d="M13.619 11.084H14.3419V11.5659H13.619V11.084Z" fill="#F9E813"/>
<path fill-rule="evenodd" clip-rule="evenodd" d="M13.238 11.2764H14.5714V11.5173H13.238V11.2764Z" fill="#060101"/>
<path fill-rule="evenodd" clip-rule="evenodd" d="M13.238 11.4697H13.9609V11.7107H13.238V11.4697Z" fill="#F9E813"/>
<path fill-rule="evenodd" clip-rule="evenodd" d="M14 11.4697H14.7229V11.7107H14V11.4697Z" fill="#F9E813"/>
<path fill-rule="evenodd" clip-rule="evenodd" d="M13.238 12.0479H13.72V12.7707H13.238V12.0479Z" fill="#F9E813"/>
<path fill-rule="evenodd" clip-rule="evenodd" d="M14.1904 12.0479H14.6724V12.7707H14.1904V12.0479Z" fill="#F9E813"/>
<path fill-rule="evenodd" clip-rule="evenodd" d="M13.8094 12.0479H14.0504V12.7707H13.8094V12.0479Z" fill="#F9E813"/>
<path fill-rule="evenodd" clip-rule="evenodd" d="M13.238 11.8555H14.5714V12.0964H13.238V11.8555Z" fill="#060101"/>
<path fill-rule="evenodd" clip-rule="evenodd" d="M13.238 12.4336H14.5714V12.6746H13.238V12.4336Z" fill="#060101"/>
<path fill-rule="evenodd" clip-rule="evenodd" d="M13.4285 11.6621H13.6694V11.9031H13.4285V11.6621Z" fill="#F9E813"/>
<path fill-rule="evenodd" clip-rule="evenodd" d="M14.1904 11.6621H14.4314V11.9031H14.1904V11.6621Z" fill="#F9E813"/>
<path fill-rule="evenodd" clip-rule="evenodd" d="M13.8094 11.4697H14.0504V11.9517H13.8094V11.4697Z" fill="#F9E813"/>
<path fill-rule="evenodd" clip-rule="evenodd" d="M17.0476 11.084H17.7705V11.5659H17.0476V11.084Z" fill="#F9E813"/>
<path fill-rule="evenodd" clip-rule="evenodd" d="M16.6666 11.2764H18V11.5173H16.6666V11.2764Z" fill="#060101"/>
<path fill-rule="evenodd" clip-rule="evenodd" d="M16.6666 11.4697H17.3895V11.7107H16.6666V11.4697Z" fill="#F9E813"/>
<path fill-rule="evenodd" clip-rule="evenodd" d="M17.4286 11.4697H18.1515V11.7107H17.4286V11.4697Z" fill="#F9E813"/>
<path fill-rule="evenodd" clip-rule="evenodd" d="M16.6666 12.0479H17.1486V12.7707H16.6666V12.0479Z" fill="#F9E813"/>
<path fill-rule="evenodd" clip-rule="evenodd" d="M17.619 12.0479H18.1009V12.7707H17.619V12.0479Z" fill="#F9E813"/>
<path fill-rule="evenodd" clip-rule="evenodd" d="M17.238 12.0479H17.479V12.7707H17.238V12.0479Z" fill="#F9E813"/>
<path fill-rule="evenodd" clip-rule="evenodd" d="M16.6666 11.8555H18V12.0964H16.6666V11.8555Z" fill="#060101"/>
<path fill-rule="evenodd" clip-rule="evenodd" d="M16.6666 12.4336H18V12.6746H16.6666V12.4336Z" fill="#060101"/>
<path fill-rule="evenodd" clip-rule="evenodd" d="M16.8571 11.6621H17.098V11.9031H16.8571V11.6621Z" fill="#F9E813"/>
<path fill-rule="evenodd" clip-rule="evenodd" d="M17.619 11.6621H17.86V11.9031H17.619V11.6621Z" fill="#F9E813"/>
<path fill-rule="evenodd" clip-rule="evenodd" d="M17.238 11.4697H17.479V11.9517H17.238V11.4697Z" fill="#F9E813"/>
<path fill-rule="evenodd" clip-rule="evenodd" d="M17.0476 14.5537H17.7705V15.0356H17.0476V14.5537Z" fill="#F9E813"/>
<path fill-rule="evenodd" clip-rule="evenodd" d="M16.6666 14.7461H18V14.9871H16.6666V14.7461Z" fill="#060101"/>
<path fill-rule="evenodd" clip-rule="evenodd" d="M16.6666 14.9395H17.3895V15.1804H16.6666V14.9395Z" fill="#F9E813"/>
<path fill-rule="evenodd" clip-rule="evenodd" d="M17.4286 14.9395H18.1515V15.1804H17.4286V14.9395Z" fill="#F9E813"/>
<path fill-rule="evenodd" clip-rule="evenodd" d="M16.6666 15.5176H17.1486V16.2405H16.6666V15.5176Z" fill="#F9E813"/>
<path fill-rule="evenodd" clip-rule="evenodd" d="M17.619 15.5176H18.1009V16.2405H17.619V15.5176Z" fill="#F9E813"/>
<path fill-rule="evenodd" clip-rule="evenodd" d="M17.238 15.5176H17.479V16.2405H17.238V15.5176Z" fill="#F9E813"/>
<path fill-rule="evenodd" clip-rule="evenodd" d="M16.6666 15.3252H18V15.5662H16.6666V15.3252Z" fill="#060101"/>
<path fill-rule="evenodd" clip-rule="evenodd" d="M16.6666 15.9033H18V16.1443H16.6666V15.9033Z" fill="#060101"/>
<path fill-rule="evenodd" clip-rule="evenodd" d="M16.8571 15.1318H17.098V15.3728H16.8571V15.1318Z" fill="#F9E813"/>
<path fill-rule="evenodd" clip-rule="evenodd" d="M17.619 15.1318H17.86V15.3728H17.619V15.1318Z" fill="#F9E813"/>
<path fill-rule="evenodd" clip-rule="evenodd" d="M17.238 14.9395H17.479V15.4214H17.238V14.9395Z" fill="#F9E813"/>
<path fill-rule="evenodd" clip-rule="evenodd" d="M10 14.5537H10.7229V15.0356H10V14.5537Z" fill="#F9E813"/>
<path fill-rule="evenodd" clip-rule="evenodd" d="M9.61902 14.7461H10.9524V14.9871H9.61902V14.7461Z" fill="#060101"/>
<path fill-rule="evenodd" clip-rule="evenodd" d="M9.61902 14.9395H10.3419V15.1804H9.61902V14.9395Z" fill="#F9E813"/>
<path fill-rule="evenodd" clip-rule="evenodd" d="M10.381 14.9395H11.1039V15.1804H10.381V14.9395Z" fill="#F9E813"/>
<path fill-rule="evenodd" clip-rule="evenodd" d="M9.61902 15.5176H10.1009V16.2405H9.61902V15.5176Z" fill="#F9E813"/>
<path fill-rule="evenodd" clip-rule="evenodd" d="M10.5714 15.5176H11.0533V16.2405H10.5714V15.5176Z" fill="#F9E813"/>
<path fill-rule="evenodd" clip-rule="evenodd" d="M10.1904 15.5176H10.4314V16.2405H10.1904V15.5176Z" fill="#F9E813"/>
<path fill-rule="evenodd" clip-rule="evenodd" d="M9.61902 15.3252H10.9524V15.5662H9.61902V15.3252Z" fill="#060101"/>
<path fill-rule="evenodd" clip-rule="evenodd" d="M9.61902 15.9033H10.9524V16.1443H9.61902V15.9033Z" fill="#060101"/>
<path fill-rule="evenodd" clip-rule="evenodd" d="M9.80945 15.1318H10.0504V15.3728H9.80945V15.1318Z" fill="#F9E813"/>
<path fill-rule="evenodd" clip-rule="evenodd" d="M10.5714 15.1318H10.8124V15.3728H10.5714V15.1318Z" fill="#F9E813"/>
<path fill-rule="evenodd" clip-rule="evenodd" d="M10.1904 14.9395H10.4314V15.4214H10.1904V14.9395Z" fill="#F9E813"/>
<path fill-rule="evenodd" clip-rule="evenodd" d="M10.4636 18.9033L10.9283 18.3496L11.2975 18.6593L10.8328 19.2131L10.4636 18.9033Z" fill="#F9E813"/>
<path fill-rule="evenodd" clip-rule="evenodd" d="M10.3665 19.3193L11.2235 18.2979L11.4081 18.4528L10.551 19.4742L10.3665 19.3193Z" fill="#060101"/>
<path fill-rule="evenodd" clip-rule="evenodd" d="M10.5142 19.4434L10.9788 18.8896L11.1634 19.0445L10.6987 19.5982L10.5142 19.4434Z" fill="#F9E813"/>
<path fill-rule="evenodd" clip-rule="evenodd" d="M11.0039 18.8594L11.4686 18.3056L11.6532 18.4605L11.1885 19.0143L11.0039 18.8594Z" fill="#F9E813"/>
<path fill-rule="evenodd" clip-rule="evenodd" d="M10.9572 19.8145L11.2669 19.4453L11.8207 19.9099L11.5109 20.2791L10.9572 19.8145Z" fill="#F9E813"/>
<path fill-rule="evenodd" clip-rule="evenodd" d="M11.5693 19.085L11.8791 18.7158L12.4329 19.1804L12.1231 19.5496L11.5693 19.085Z" fill="#F9E813"/>
<path fill-rule="evenodd" clip-rule="evenodd" d="M11.3245 19.377L11.4794 19.1924L12.0331 19.657L11.8782 19.8416L11.3245 19.377Z" fill="#F9E813"/>
<path fill-rule="evenodd" clip-rule="evenodd" d="M10.8094 19.6904L11.6665 18.669L11.8511 18.8239L10.994 19.8453L10.8094 19.6904Z" fill="#060101"/>
<path fill-rule="evenodd" clip-rule="evenodd" d="M11.2524 20.0625L12.1095 19.0411L12.2941 19.196L11.437 20.2174L11.2524 20.0625Z" fill="#060101"/>
<path fill-rule="evenodd" clip-rule="evenodd" d="M10.7843 19.4209L10.9392 19.2363L11.1238 19.3912L10.9689 19.5758L10.7843 19.4209Z" fill="#F9E813"/>
<path fill-rule="evenodd" clip-rule="evenodd" d="M11.274 18.8369L11.4289 18.6523L11.6135 18.8072L11.4586 18.9918L11.274 18.8369Z" fill="#F9E813"/>
<path fill-rule="evenodd" clip-rule="evenodd" d="M10.8815 19.0049L11.0364 18.8203L11.4055 19.1301L11.2506 19.3147L10.8815 19.0049Z" fill="#F9E813"/>
<path fill-rule="evenodd" clip-rule="evenodd" d="M16.9784 18.4658L17.4431 19.0196L17.0739 19.3294L16.6092 18.7756L16.9784 18.4658Z" fill="#F9E813"/>
<path fill-rule="evenodd" clip-rule="evenodd" d="M16.5859 18.2979L17.443 19.3192L17.2584 19.4741L16.4013 18.4527L16.5859 18.2979Z" fill="#060101"/>
<path fill-rule="evenodd" clip-rule="evenodd" d="M16.4382 18.4219L16.9029 18.9756L16.7183 19.1305L16.2536 18.5768L16.4382 18.4219Z" fill="#F9E813"/>
<path fill-rule="evenodd" clip-rule="evenodd" d="M16.928 19.0059L17.3926 19.5596L17.2081 19.7145L16.7434 19.1607L16.928 19.0059Z" fill="#F9E813"/>
<path fill-rule="evenodd" clip-rule="evenodd" d="M15.9952 18.7939L16.305 19.1631L15.7512 19.6278L15.4415 19.2586L15.9952 18.7939Z" fill="#F9E813"/>
<path fill-rule="evenodd" clip-rule="evenodd" d="M16.6074 19.5234L16.9172 19.8926L16.3634 20.3573L16.0537 19.9881L16.6074 19.5234Z" fill="#F9E813"/>
<path fill-rule="evenodd" clip-rule="evenodd" d="M16.3625 19.2314L16.5174 19.416L15.9637 19.8807L15.8088 19.6961L16.3625 19.2314Z" fill="#F9E813"/>
<path fill-rule="evenodd" clip-rule="evenodd" d="M16.1429 18.6699L17 19.6913L16.8154 19.8462L15.9584 18.8248L16.1429 18.6699Z" fill="#060101"/>
<path fill-rule="evenodd" clip-rule="evenodd" d="M15.6998 19.041L16.5569 20.0624L16.3723 20.2173L15.5152 19.1959L15.6998 19.041Z" fill="#060101"/>
<path fill-rule="evenodd" clip-rule="evenodd" d="M16.413 18.6914L16.5679 18.876L16.3833 19.0309L16.2284 18.8463L16.413 18.6914Z" fill="#F9E813"/>
<path fill-rule="evenodd" clip-rule="evenodd" d="M16.9027 19.2754L17.0576 19.46L16.873 19.6149L16.7181 19.4303L16.9027 19.2754Z" fill="#F9E813"/>
<path fill-rule="evenodd" clip-rule="evenodd" d="M16.8055 18.8594L16.9604 19.044L16.5913 19.3537L16.4364 19.1692L16.8055 18.8594Z" fill="#F9E813"/>
<path d="M14.5583 14.166C14.555 14.1824 14.4508 14.6621 13.8982 14.6621C13.3455 14.6621 13.2414 14.1823 13.238 14.166V13.2041H14.5583V14.166ZM13.6189 14.168C13.5139 14.168 13.4287 14.2541 13.4285 14.3604C13.4285 14.4668 13.5137 14.5537 13.6189 14.5537C13.7241 14.5537 13.8093 14.4668 13.8093 14.3604C13.8091 14.2541 13.724 14.168 13.6189 14.168ZM14.1902 14.168C14.0852 14.1681 14 14.2541 13.9998 14.3604C13.9998 14.4667 14.0851 14.5536 14.1902 14.5537C14.2954 14.5537 14.3806 14.4668 14.3806 14.3604C14.3804 14.2541 14.2953 14.168 14.1902 14.168ZM13.905 13.7822C13.7998 13.7822 13.7146 13.8691 13.7146 13.9756C13.7148 14.0819 13.8 14.168 13.905 14.168C14.0099 14.1678 14.0952 14.0818 14.0955 13.9756C14.0955 13.8692 14.0101 13.7824 13.905 13.7822ZM13.6189 13.3965C13.5137 13.3965 13.4285 13.4834 13.4285 13.5898C13.4286 13.6962 13.5138 13.7822 13.6189 13.7822C13.724 13.7822 13.8092 13.6962 13.8093 13.5898C13.8093 13.4834 13.7241 13.3965 13.6189 13.3965ZM14.1902 13.3965C14.0851 13.3966 13.9998 13.4835 13.9998 13.5898C13.9999 13.6961 14.0852 13.7821 14.1902 13.7822C14.2953 13.7822 14.3805 13.6962 14.3806 13.5898C14.3806 13.4834 14.2954 13.3965 14.1902 13.3965Z" fill="#013399"/>
<path d="M14.5583 16.2871C14.555 16.3034 14.4508 16.7832 13.8982 16.7832C13.3455 16.7832 13.2414 16.3034 13.238 16.2871V15.3252H14.5583V16.2871ZM13.6189 16.2891C13.5139 16.2891 13.4287 16.3752 13.4285 16.4814C13.4285 16.5879 13.5137 16.6748 13.6189 16.6748C13.7241 16.6748 13.8093 16.5879 13.8093 16.4814C13.8091 16.3752 13.724 16.2891 13.6189 16.2891ZM14.1902 16.2891C14.0852 16.2892 14 16.3752 13.9998 16.4814C13.9998 16.5878 14.0851 16.6747 14.1902 16.6748C14.2954 16.6748 14.3806 16.5879 14.3806 16.4814C14.3804 16.3752 14.2953 16.2891 14.1902 16.2891ZM13.905 15.9033C13.7998 15.9033 13.7146 15.9902 13.7146 16.0967C13.7148 16.203 13.8 16.2891 13.905 16.2891C14.0099 16.2889 14.0952 16.2029 14.0955 16.0967C14.0955 15.9903 14.0101 15.9035 13.905 15.9033ZM13.6189 15.5176C13.5137 15.5176 13.4285 15.6045 13.4285 15.7109C13.4286 15.8173 13.5138 15.9033 13.6189 15.9033C13.724 15.9033 13.8092 15.8173 13.8093 15.7109C13.8093 15.6045 13.7241 15.5176 13.6189 15.5176ZM14.1902 15.5176C14.0851 15.5177 13.9998 15.6046 13.9998 15.7109C13.9999 15.8172 14.0852 15.9032 14.1902 15.9033C14.2953 15.9033 14.3805 15.8173 14.3806 15.7109C14.3806 15.6045 14.2954 15.5176 14.1902 15.5176Z" fill="#013399"/>
<path d="M16.2726 16.2871C16.2692 16.3034 16.165 16.7832 15.6124 16.7832C15.0598 16.7832 14.9556 16.3034 14.9523 16.2871V15.3252H16.2726V16.2871ZM15.3331 16.2891C15.2281 16.2891 15.1429 16.3752 15.1427 16.4814C15.1427 16.5879 15.228 16.6748 15.3331 16.6748C15.4383 16.6748 15.5236 16.5879 15.5236 16.4814C15.5234 16.3752 15.4382 16.2891 15.3331 16.2891ZM15.9044 16.2891C15.7995 16.2892 15.7142 16.3752 15.714 16.4814C15.714 16.5878 15.7993 16.6747 15.9044 16.6748C16.0096 16.6748 16.0948 16.5879 16.0948 16.4814C16.0946 16.3752 16.0095 16.2891 15.9044 16.2891ZM15.6193 15.9033C15.5141 15.9033 15.4288 15.9902 15.4288 16.0967C15.429 16.203 15.5142 16.2891 15.6193 16.2891C15.7242 16.2889 15.8095 16.2029 15.8097 16.0967C15.8097 15.9903 15.7243 15.9035 15.6193 15.9033ZM15.3331 15.5176C15.228 15.5176 15.1427 15.6045 15.1427 15.7109C15.1428 15.8173 15.228 15.9033 15.3331 15.9033C15.4383 15.9033 15.5235 15.8173 15.5236 15.7109C15.5236 15.6045 15.4383 15.5176 15.3331 15.5176ZM15.9044 15.5176C15.7993 15.5177 15.714 15.6046 15.714 15.7109C15.7141 15.8172 15.7994 15.9032 15.9044 15.9033C16.0096 15.9033 16.0947 15.8173 16.0948 15.7109C16.0948 15.6045 16.0096 15.5176 15.9044 15.5176Z" fill="#013399"/>
<path d="M12.8441 16.2871C12.8407 16.3034 12.7366 16.7832 12.184 16.7832C11.6313 16.7832 11.5272 16.3034 11.5238 16.2871V15.3252H12.8441V16.2871ZM11.9047 16.2891C11.7996 16.2891 11.7144 16.3752 11.7142 16.4814C11.7142 16.5879 11.7995 16.6748 11.9047 16.6748C12.0099 16.6748 12.0951 16.5879 12.0951 16.4814C12.0949 16.3752 12.0097 16.2891 11.9047 16.2891ZM12.476 16.2891C12.371 16.2892 12.2857 16.3752 12.2855 16.4814C12.2855 16.5878 12.3709 16.6747 12.476 16.6748C12.5811 16.6748 12.6664 16.5879 12.6664 16.4814C12.6662 16.3752 12.581 16.2891 12.476 16.2891ZM12.1908 15.9033C12.0856 15.9033 12.0004 15.9902 12.0004 16.0967C12.0006 16.203 12.0857 16.2891 12.1908 16.2891C12.2957 16.2889 12.381 16.2029 12.3812 16.0967C12.3812 15.9903 12.2958 15.9035 12.1908 15.9033ZM11.9047 15.5176C11.7995 15.5176 11.7142 15.6045 11.7142 15.7109C11.7143 15.8173 11.7996 15.9033 11.9047 15.9033C12.0098 15.9033 12.095 15.8173 12.0951 15.7109C12.0951 15.6045 12.0099 15.5176 11.9047 15.5176ZM12.476 15.5176C12.3709 15.5177 12.2855 15.6046 12.2855 15.7109C12.2856 15.8172 12.3709 15.9032 12.476 15.9033C12.5811 15.9033 12.6663 15.8173 12.6664 15.7109C12.6664 15.6045 12.5811 15.5176 12.476 15.5176Z" fill="#013399"/>
<path d="M14.5583 18.4072C14.555 18.4236 14.4508 18.9033 13.8982 18.9033C13.3455 18.9033 13.2414 18.4235 13.238 18.4072V17.4453H14.5583V18.4072ZM13.6189 18.4092C13.5139 18.4092 13.4287 18.4953 13.4285 18.6016C13.4285 18.708 13.5137 18.7949 13.6189 18.7949C13.7241 18.7949 13.8093 18.708 13.8093 18.6016C13.8091 18.4953 13.724 18.4092 13.6189 18.4092ZM14.1902 18.4092C14.0852 18.4093 14 18.4953 13.9998 18.6016C13.9998 18.7079 14.0851 18.7948 14.1902 18.7949C14.2954 18.7949 14.3806 18.708 14.3806 18.6016C14.3804 18.4953 14.2953 18.4092 14.1902 18.4092ZM13.905 18.0234C13.7998 18.0234 13.7146 18.1103 13.7146 18.2168C13.7148 18.3231 13.8 18.4092 13.905 18.4092C14.0099 18.409 14.0952 18.323 14.0955 18.2168C14.0955 18.1104 14.0101 18.0236 13.905 18.0234ZM13.6189 17.6377C13.5137 17.6377 13.4285 17.7246 13.4285 17.8311C13.4286 17.9374 13.5138 18.0234 13.6189 18.0234C13.724 18.0234 13.8092 17.9374 13.8093 17.8311C13.8093 17.7246 13.7241 17.6377 13.6189 17.6377ZM14.1902 17.6377C14.0851 17.6378 13.9998 17.7247 13.9998 17.8311C13.9999 17.9373 14.0852 18.0233 14.1902 18.0234C14.2953 18.0234 14.3805 17.9374 14.3806 17.8311C14.3806 17.7246 14.2954 17.6377 14.1902 17.6377Z" fill="#013399"/>
</g>
</g>
<defs>
<clipPath id="clip0_288_1598">
<rect width="32" height="32" rx="16" fill="white"/>
</clipPath>
<clipPath id="clip1_288_1598">
<rect width="32" height="24" fill="white" transform="translate(2 4)"/>
</clipPath>
</defs>
</svg>
