<svg width="24" height="24" viewBox="0 0 24 24" fill="none" xmlns="http://www.w3.org/2000/svg">
<g clip-path="url(#clip0_290_1092)">
<rect width="24" height="24" rx="12" fill="white"/>
<path d="M-6 21C-6 22.0609 -5.57857 23.0783 -4.82843 23.8284C-4.07828 24.5786 -3.06087 25 -2 25H26C27.0609 25 28.0783 24.5786 28.8284 23.8284C29.5786 23.0783 30 22.0609 30 21V17H-6V21Z" fill="#0038A8"/>
<path d="M-6 7H30V17H-6V7Z" fill="white"/>
<path d="M26 -1H-2C-3.06087 -1 -4.07828 -0.578573 -4.82843 0.171573C-5.57857 0.921718 -6 1.93913 -6 3L-6 7H30V3C30 1.93913 29.5786 0.921718 28.8284 0.171573C28.0783 -0.578573 27.0609 -1 26 -1Z" fill="#D52B1E"/>
<path d="M16 12C16 13.0609 15.5786 14.0783 14.8284 14.8284C14.0783 15.5786 13.0609 16 12 16C10.9391 16 9.92172 15.5786 9.17157 14.8284C8.42143 14.0783 8 13.0609 8 12C8 10.9391 8.42143 9.92172 9.17157 9.17157C9.92172 8.42143 10.9391 8 12 8C13.0609 8 14.0783 8.42143 14.8284 9.17157C15.5786 9.92172 16 10.9391 16 12Z" fill="black"/>
<path d="M15.75 12C15.75 12.4925 15.6529 12.9802 15.4643 13.4352C15.2758 13.8902 14.9995 14.3037 14.6512 14.6519C14.3029 15.0001 13.8894 15.2763 13.4343 15.4647C12.9793 15.6531 12.4915 15.7501 11.999 15.75C11.5065 15.75 11.0188 15.6529 10.5638 15.4643C10.1088 15.2758 9.69539 14.9995 9.34717 14.6512C8.99895 14.3029 8.72274 13.8894 8.53432 13.4343C8.3459 12.9793 8.24896 12.4915 8.24902 11.999C8.24916 11.0043 8.64442 10.0504 9.34787 9.34717C10.0513 8.6439 11.0053 8.24889 12 8.24902C12.9947 8.24916 13.9486 8.64442 14.6519 9.34787C15.3551 10.0513 15.7502 11.0053 15.75 12Z" fill="#EEEEEE"/>
<path d="M15.25 12C15.25 12.862 14.9076 13.6886 14.2981 14.2981C13.6886 14.9076 12.862 15.25 12 15.25C11.138 15.25 10.3114 14.9076 9.7019 14.2981C9.09241 13.6886 8.75 12.862 8.75 12C8.75 11.138 9.09241 10.3114 9.7019 9.7019C10.3114 9.09241 11.138 8.75 12 8.75C12.862 8.75 13.6886 9.09241 14.2981 9.7019C14.9076 10.3114 15.25 11.138 15.25 12Z" fill="black"/>
<path d="M15.126 12C15.1261 12.4104 15.0454 12.8167 14.8885 13.1959C14.7316 13.5751 14.5015 13.9197 14.2114 14.21C13.9213 14.5003 13.5769 14.7305 13.1978 14.8877C12.8187 15.0449 12.4124 15.1258 12.002 15.126C11.5916 15.1261 11.1852 15.0454 10.806 14.8885C10.4268 14.7316 10.0823 14.5015 9.79198 14.2114C9.5017 13.9213 9.2714 13.5769 9.11424 13.1978C8.95707 12.8187 8.87611 12.4124 8.87598 12.002C8.87571 11.1732 9.2047 10.3782 9.79056 9.79198C10.3764 9.20574 11.1712 8.87624 12 8.87598C12.8288 8.87571 13.6237 9.2047 14.21 9.79056C14.7962 10.3764 15.1257 11.1712 15.126 12Z" fill="#EEEEEE"/>
<path d="M15.132 11.9805C15.1319 11.4998 15.0211 11.0257 14.8082 10.5947C14.5954 10.1638 14.2862 9.78757 13.9047 9.49528C13.5231 9.20299 13.0794 9.00244 12.6079 8.90916C12.1364 8.81588 11.6497 8.83237 11.1856 8.95736C10.7215 9.08234 10.2924 9.31247 9.93147 9.62992C9.57057 9.94737 9.28758 10.3436 9.1044 10.788C8.92123 11.2324 8.84279 11.7129 8.87515 12.1925C8.90752 12.6721 9.04982 13.1377 9.29104 13.5535L12.003 12.0625L14.71 13.5535C14.978 13.0905 15.132 12.5535 15.132 11.9805Z" fill="#99AAB5"/>
<path d="M14.5 12C14.5 12.663 14.2366 13.2989 13.7678 13.7678C13.2989 14.2366 12.663 14.5 12 14.5C11.337 14.5 10.7011 14.2366 10.2322 13.7678C9.76339 13.2989 9.5 12.663 9.5 12C9.5 11.337 9.76339 10.7011 10.2322 10.2322C10.7011 9.76339 11.337 9.5 12 9.5C12.663 9.5 13.2989 9.76339 13.7678 10.2322C14.2366 10.7011 14.5 11.337 14.5 12Z" fill="black"/>
<path d="M12 14.3996C13.3255 14.3996 14.4 13.3251 14.4 11.9996C14.4 10.6741 13.3255 9.59961 12 9.59961C10.6745 9.59961 9.59998 10.6741 9.59998 11.9996C9.59998 13.3251 10.6745 14.3996 12 14.3996Z" fill="#EEEEEE"/>
<path d="M12 11.1816L12.184 11.7466H12.778L12.297 12.0966L12.48 12.6616L12 12.3126L11.52 12.6616L11.703 12.0966L11.222 11.7466H11.816L12 11.1816Z" fill="#FFAC33"/>
<path d="M12.497 10.5173C12.497 10.5173 12.797 10.4473 12.973 10.4293C13.149 10.4113 13.307 10.8173 13.518 10.8873C13.732 10.9593 13.7301 11.1693 13.8181 11.4163C13.9061 11.6633 13.8531 11.7153 13.8531 11.9973C13.8531 12.2793 14.011 12.4203 13.976 12.6313C13.941 12.8423 13.765 12.8953 13.66 13.0363C13.555 13.1783 13.642 13.3533 13.536 13.4593C13.431 13.5643 13.078 13.5473 12.955 13.6533C12.832 13.7583 12.603 13.9173 12.444 13.8293C12.286 13.7413 11.951 13.7063 11.951 13.7063C11.951 13.7063 12.039 13.3893 12.286 13.2833C12.533 13.1783 12.6381 13.1953 12.8671 13.1253C13.0961 13.0543 13.078 12.9483 13.237 12.8083C13.395 12.6673 13.413 12.4733 13.501 12.3323C13.59 12.1913 13.6071 12.0853 13.5721 11.8913C13.5311 11.6923 13.4719 11.4974 13.3951 11.3093C13.3251 11.1333 13.166 10.9223 13.06 10.7983C12.955 10.6753 12.497 10.5173 12.497 10.5173Z" fill="#007127"/>
<path d="M11.405 10.6223C11.405 10.6223 11.58 10.2393 11.405 10.2173C10.7 10.1293 10.559 10.7633 10.348 10.8333C10.135 10.9053 10.101 11.2563 10.014 11.5023C9.92597 11.7493 9.96097 11.8013 9.96097 12.0843C9.96097 12.3663 9.96597 12.4183 10.002 12.6303C10.037 12.8413 10.085 13.0003 10.19 13.1413C10.296 13.2823 10.336 13.3523 10.442 13.4573C10.547 13.5623 10.754 13.6693 10.877 13.7743C11 13.8793 11.375 13.9153 11.534 13.8273C11.692 13.7393 11.969 13.7043 11.969 13.7043C11.969 13.7043 11.851 13.4923 11.605 13.3873C11.358 13.2823 11.341 13.1943 11.112 13.1233C10.883 13.0523 10.901 12.9463 10.742 12.8063C10.584 12.6653 10.566 12.4713 10.478 12.3303C10.39 12.1893 10.437 12.1543 10.473 11.9603C10.508 11.7663 10.578 11.6083 10.649 11.4323C10.719 11.2563 10.896 11.0273 11.001 10.9043C11.106 10.7813 11.405 10.6223 11.405 10.6223Z" fill="#007127"/>
<path d="M11.423 13.8626L11.652 14.0206L11.951 13.8096L12.233 14.0036L12.603 13.8626L12.233 14.1276L11.969 13.9156L11.687 14.1096L11.405 13.9506L11.423 13.8626Z" fill="#007127"/>
</g>
<defs>
<clipPath id="clip0_290_1092">
<rect width="24" height="24" rx="12" fill="white"/>
</clipPath>
</defs>
</svg>
