<svg width="24" height="24" viewBox="0 0 24 24" fill="none" xmlns="http://www.w3.org/2000/svg">
<g clip-path="url(#clip0_288_1060)">
<rect width="24" height="24" rx="12" fill="white"/>
<g clip-path="url(#clip1_288_1060)">
<rect width="32" height="24" transform="translate(-8)" fill="white"/>
<path fill-rule="evenodd" clip-rule="evenodd" d="M-8 0H24V24H-8V0Z" fill="#F7FCFF"/>
<path fill-rule="evenodd" clip-rule="evenodd" d="M-8 14.667V16.667H24V14.667H-8Z" fill="#E31D1C"/>
<path fill-rule="evenodd" clip-rule="evenodd" d="M-8 18.333V20.333H24V18.333H-8Z" fill="#E31D1C"/>
<path fill-rule="evenodd" clip-rule="evenodd" d="M-8 7.33301V9.33301H24V7.33301H-8Z" fill="#E31D1C"/>
<path fill-rule="evenodd" clip-rule="evenodd" d="M-8 22V24H24V22H-8Z" fill="#E31D1C"/>
<path fill-rule="evenodd" clip-rule="evenodd" d="M-8 11V13H24V11H-8Z" fill="#E31D1C"/>
<path fill-rule="evenodd" clip-rule="evenodd" d="M-8 0V2H24V0H-8Z" fill="#E31D1C"/>
<path fill-rule="evenodd" clip-rule="evenodd" d="M-8 3.66699V5.66699H24V3.66699H-8Z" fill="#E31D1C"/>
<rect x="-8" width="20" height="13" fill="#2E42A5"/>
<path d="M-5.94739 9.96777H-5.22961L-5.79407 10.541L-5.57532 11.4473L-6.27747 10.9385L-7.00403 11.4473L-6.75891 10.541L-7.40344 9.96777H-6.56165L-6.27844 9.22852L-5.94739 9.96777ZM-1.94739 9.96777H-1.22961L-1.79407 10.541L-1.57532 11.4473L-2.27747 10.9385L-3.00403 11.4473L-2.75891 10.541L-3.40344 9.96777H-2.56165L-2.27844 9.22852L-1.94739 9.96777ZM2.05261 9.96777H2.77039L2.20593 10.541L2.42468 11.4473L1.72253 10.9385L0.995972 11.4473L1.24109 10.541L0.596558 9.96777H1.43835L1.72156 9.22852L2.05261 9.96777ZM6.05261 9.96777H6.77039L6.20593 10.541L6.42468 11.4473L5.72253 10.9385L4.99597 11.4473L5.24109 10.541L4.59656 9.96777H5.43835L5.72156 9.22852L6.05261 9.96777ZM10.0526 9.96777H10.7704L10.2059 10.541L10.4247 11.4473L9.72253 10.9385L8.99597 11.4473L9.24109 10.541L8.59656 9.96777H9.43835L9.72156 9.22852L10.0526 9.96777ZM-3.94739 7.96777H-3.22961L-3.79407 8.54102L-3.57532 9.44727L-4.27747 8.93848L-5.00403 9.44727L-4.75891 8.54102L-5.40344 7.96777H-4.56165L-4.27844 7.22852L-3.94739 7.96777ZM0.0526123 7.96777H0.770386L0.205933 8.54102L0.424683 9.44727L-0.277466 8.93848L-1.00403 9.44727L-0.758911 8.54102L-1.40344 7.96777H-0.561646L-0.278442 7.22852L0.0526123 7.96777ZM4.05261 7.96777H4.77039L4.20593 8.54102L4.42468 9.44727L3.72253 8.93848L2.99597 9.44727L3.24109 8.54102L2.59656 7.96777H3.43835L3.72156 7.22852L4.05261 7.96777ZM8.05261 7.96777H8.77039L8.20593 8.54102L8.42468 9.44727L7.72253 8.93848L6.99597 9.44727L7.24109 8.54102L6.59656 7.96777H7.43835L7.72156 7.22852L8.05261 7.96777ZM-5.94739 5.96777H-5.22961L-5.79407 6.54102L-5.57532 7.44727L-6.27747 6.93848L-7.00403 7.44727L-6.75891 6.54102L-7.40344 5.96777H-6.56165L-6.27844 5.22852L-5.94739 5.96777ZM-1.94739 5.96777H-1.22961L-1.79407 6.54102L-1.57532 7.44727L-2.27747 6.93848L-3.00403 7.44727L-2.75891 6.54102L-3.40344 5.96777H-2.56165L-2.27844 5.22852L-1.94739 5.96777ZM2.05261 5.96777H2.77039L2.20593 6.54102L2.42468 7.44727L1.72253 6.93848L0.995972 7.44727L1.24109 6.54102L0.596558 5.96777H1.43835L1.72156 5.22852L2.05261 5.96777ZM6.05261 5.96777H6.77039L6.20593 6.54102L6.42468 7.44727L5.72253 6.93848L4.99597 7.44727L5.24109 6.54102L4.59656 5.96777H5.43835L5.72156 5.22852L6.05261 5.96777ZM10.0526 5.96777H10.7704L10.2059 6.54102L10.4247 7.44727L9.72253 6.93848L8.99597 7.44727L9.24109 6.54102L8.59656 5.96777H9.43835L9.72156 5.22852L10.0526 5.96777ZM-3.94739 3.96777H-3.22961L-3.79407 4.54102L-3.57532 5.44727L-4.27747 4.93848L-5.00403 5.44727L-4.75891 4.54102L-5.40344 3.96777H-4.56165L-4.27844 3.22852L-3.94739 3.96777ZM0.0526123 3.96777H0.770386L0.205933 4.54102L0.424683 5.44727L-0.277466 4.93848L-1.00403 5.44727L-0.758911 4.54102L-1.40344 3.96777H-0.561646L-0.278442 3.22852L0.0526123 3.96777ZM4.05261 3.96777H4.77039L4.20593 4.54102L4.42468 5.44727L3.72253 4.93848L2.99597 5.44727L3.24109 4.54102L2.59656 3.96777H3.43835L3.72156 3.22852L4.05261 3.96777ZM8.05261 3.96777H8.77039L8.20593 4.54102L8.42468 5.44727L7.72253 4.93848L6.99597 5.44727L7.24109 4.54102L6.59656 3.96777H7.43835L7.72156 3.22852L8.05261 3.96777ZM-5.94739 1.96777H-5.22961L-5.79407 2.54102L-5.57532 3.44727L-6.27747 2.93848L-7.00403 3.44727L-6.75891 2.54102L-7.40344 1.96777H-6.56165L-6.27844 1.22852L-5.94739 1.96777ZM-1.94739 1.96777H-1.22961L-1.79407 2.54102L-1.57532 3.44727L-2.27747 2.93848L-3.00403 3.44727L-2.75891 2.54102L-3.40344 1.96777H-2.56165L-2.27844 1.22852L-1.94739 1.96777ZM2.05261 1.96777H2.77039L2.20593 2.54102L2.42468 3.44727L1.72253 2.93848L0.995972 3.44727L1.24109 2.54102L0.596558 1.96777H1.43835L1.72156 1.22852L2.05261 1.96777ZM6.05261 1.96777H6.77039L6.20593 2.54102L6.42468 3.44727L5.72253 2.93848L4.99597 3.44727L5.24109 2.54102L4.59656 1.96777H5.43835L5.72156 1.22852L6.05261 1.96777ZM10.0526 1.96777H10.7704L10.2059 2.54102L10.4247 3.44727L9.72253 2.93848L8.99597 3.44727L9.24109 2.54102L8.59656 1.96777H9.43835L9.72156 1.22852L10.0526 1.96777Z" fill="#F7FCFF"/>
</g>
</g>
<defs>
<clipPath id="clip0_288_1060">
<rect width="24" height="24" rx="12" fill="white"/>
</clipPath>
<clipPath id="clip1_288_1060">
<rect width="32" height="24" fill="white" transform="translate(-8)"/>
</clipPath>
</defs>
</svg>
