<svg xmlns="http://www.w3.org/2000/svg" viewBox="0 0 600 360" width="600" height="360">
  <defs>
    <linearGradient id="bg" x1="0" y1="0" x2="0" y2="1">
      <stop offset="0%" stop-color="#0f172a"/>
      <stop offset="100%" stop-color="#1e293b"/>
    </linearGradient>
  </defs>
  <rect width="600" height="360" fill="url(#bg)"/>

  <!-- Shelf 1 -->
  <rect x="30" y="60" width="540" height="12" rx="3" fill="#334155"/>
  <!-- Items on shelf 1 -->
  <rect x="50" y="20" width="55" height="40" rx="6" fill="#f59e0b"/>
  <text x="77" y="47" font-size="22" text-anchor="middle">👜</text>
  <rect x="120" y="20" width="55" height="40" rx="6" fill="#ec4899"/>
  <text x="147" y="47" font-size="22" text-anchor="middle">👠</text>
  <rect x="190" y="20" width="55" height="40" rx="6" fill="#f59e0b"/>
  <text x="217" y="47" font-size="22" text-anchor="middle">👜</text>
  <rect x="260" y="20" width="55" height="40" rx="6" fill="#a855f7"/>
  <text x="287" y="47" font-size="22" text-anchor="middle">💎</text>
  <rect x="330" y="20" width="55" height="40" rx="6" fill="#f59e0b"/>
  <text x="357" y="47" font-size="22" text-anchor="middle">👜</text>
  <!-- Match flash on 3 bags -->
  <rect x="48" y="18" width="59" height="44" rx="7" fill="none" stroke="#fbbf24" stroke-width="2.5" opacity="0.9"/>
  <rect x="188" y="18" width="59" height="44" rx="7" fill="none" stroke="#fbbf24" stroke-width="2.5" opacity="0.9"/>
  <rect x="328" y="18" width="59" height="44" rx="7" fill="none" stroke="#fbbf24" stroke-width="2.5" opacity="0.9"/>
  <text x="205" y="15" font-family="monospace" font-size="11" font-weight="bold" fill="#fbbf24" text-anchor="middle">MATCH!</text>

  <!-- Shelf 2 -->
  <rect x="30" y="175" width="540" height="12" rx="3" fill="#334155"/>
  <rect x="50" y="135" width="55" height="40" rx="6" fill="#ec4899"/>
  <text x="77" y="162" font-size="22" text-anchor="middle">👠</text>
  <rect x="120" y="135" width="55" height="40" rx="6" fill="#22c55e"/>
  <text x="147" y="162" font-size="22" text-anchor="middle">🧣</text>
  <rect x="190" y="135" width="55" height="40" rx="6" fill="#a855f7"/>
  <text x="217" y="162" font-size="22" text-anchor="middle">💎</text>
  <rect x="260" y="135" width="55" height="40" rx="6" fill="#ec4899"/>
  <text x="287" y="162" font-size="22" text-anchor="middle">👠</text>
  <rect x="330" y="135" width="55" height="40" rx="6" fill="#3b82f6"/>
  <text x="357" y="162" font-size="22" text-anchor="middle">🕶️</text>
  <rect x="400" y="135" width="55" height="40" rx="6" fill="#22c55e"/>
  <text x="427" y="162" font-size="22" text-anchor="middle">🧣</text>

  <!-- Shelf 3 -->
  <rect x="30" y="290" width="540" height="12" rx="3" fill="#334155"/>
  <rect x="50" y="250" width="55" height="40" rx="6" fill="#3b82f6"/>
  <text x="77" y="277" font-size="22" text-anchor="middle">🕶️</text>
  <rect x="120" y="250" width="55" height="40" rx="6" fill="#a855f7"/>
  <text x="147" y="277" font-size="22" text-anchor="middle">💎</text>
  <rect x="190" y="250" width="55" height="40" rx="6" fill="#22c55e"/>
  <text x="217" y="277" font-size="22" text-anchor="middle">🧣</text>

  <!-- Dragged item -->
  <g transform="translate(430, 230)" opacity="0.95">
    <rect x="0" y="0" width="55" height="40" rx="6" fill="#3b82f6" stroke="#60a5fa" stroke-width="2"/>
    <text x="27" y="27" font-size="22" text-anchor="middle">🕶️</text>
    <!-- shadow below -->
    <ellipse cx="27" cy="48" rx="22" ry="5" fill="rgba(0,0,0,0.4)"/>
  </g>

  <!-- HUD -->
  <rect x="0" y="318" width="600" height="42" fill="rgba(0,0,0,0.7)"/>
  <text x="16" y="334" font-family="monospace" font-size="9" fill="#94a3b8" letter-spacing="2">SCORE</text>
  <text x="16" y="352" font-family="monospace" font-size="18" font-weight="bold" fill="white">1,280</text>
  <text x="300" y="334" font-family="monospace" font-size="9" fill="#94a3b8" letter-spacing="2" text-anchor="middle">LEVEL</text>
  <text x="300" y="352" font-family="monospace" font-size="18" font-weight="bold" fill="#f472b6" text-anchor="middle">4</text>
  <text x="584" y="334" font-family="monospace" font-size="9" fill="#94a3b8" letter-spacing="2" text-anchor="end">MOVES</text>
  <text x="584" y="352" font-family="monospace" font-size="18" font-weight="bold" fill="white" text-anchor="end">23</text>
</svg>
