<svg viewBox="0 0 1200 1600" width="1200" height="1600" xmlns="http://www.w3.org/2000/svg" xmlns:xlink="http://www.w3.org/1999/xlink">
  <defs>
    <linearGradient id="sky" x1="0" y1="0" x2="0" y2="1">
      <stop offset="0" stop-color="#040a19"/>
      <stop offset="0.35" stop-color="#0a1730"/>
      <stop offset="0.7" stop-color="#102347"/>
      <stop offset="1" stop-color="#15305c"/>
    </linearGradient>
    <linearGradient id="pitchGrad" x1="0" y1="0" x2="0" y2="1">
      <stop offset="0" stop-color="#1b7a4d"/>
      <stop offset="0.45" stop-color="#10573a"/>
      <stop offset="1" stop-color="#073322"/>
    </linearGradient>
    <linearGradient id="beamGrad" x1="0" y1="0" x2="0" y2="1">
      <stop offset="0" stop-color="#eaf3ff" stop-opacity="0.55"/>
      <stop offset="0.55" stop-color="#cfe2ff" stop-opacity="0.18"/>
      <stop offset="1" stop-color="#cfe2ff" stop-opacity="0"/>
    </linearGradient>
    <linearGradient id="goldFrame" x1="0" y1="0" x2="0" y2="1">
      <stop offset="0" stop-color="#fdf0bb"/>
      <stop offset="0.22" stop-color="#f3cf63"/>
      <stop offset="0.5" stop-color="#c8922a"/>
      <stop offset="0.72" stop-color="#f6d878"/>
      <stop offset="1" stop-color="#8e6210"/>
    </linearGradient>
    <linearGradient id="goldFoil" x1="0" y1="0" x2="0" y2="1">
      <stop offset="0" stop-color="#fff7d6"/>
      <stop offset="0.3" stop-color="#fbe089"/>
      <stop offset="0.52" stop-color="#e9b33c"/>
      <stop offset="0.62" stop-color="#a87617"/>
      <stop offset="0.78" stop-color="#f3cd60"/>
      <stop offset="1" stop-color="#c9952c"/>
    </linearGradient>
    <linearGradient id="cardInner" x1="0" y1="0" x2="0" y2="1">
      <stop offset="0" stop-color="#0d1d44"/>
      <stop offset="0.55" stop-color="#091433"/>
      <stop offset="1" stop-color="#0d2b35"/>
    </linearGradient>
    <linearGradient id="cardInnerBlue" x1="0" y1="0" x2="0" y2="1">
      <stop offset="0" stop-color="#10306b"/>
      <stop offset="1" stop-color="#071434"/>
    </linearGradient>
    <linearGradient id="cardInnerGreen" x1="0" y1="0" x2="0" y2="1">
      <stop offset="0" stop-color="#0f5a3a"/>
      <stop offset="1" stop-color="#062417"/>
    </linearGradient>
    <linearGradient id="silverFrame" x1="0" y1="0" x2="0" y2="1">
      <stop offset="0" stop-color="#e8eef8"/>
      <stop offset="0.5" stop-color="#8fa3c0"/>
      <stop offset="1" stop-color="#5a6c88"/>
    </linearGradient>
    <linearGradient id="redKit" x1="0" y1="0" x2="1" y2="1">
      <stop offset="0" stop-color="#ef4350"/>
      <stop offset="0.55" stop-color="#c11f2e"/>
      <stop offset="1" stop-color="#7d0f1c"/>
    </linearGradient>
    <linearGradient id="streak" x1="0" y1="0" x2="1" y2="0">
      <stop offset="0" stop-color="#fff8dd" stop-opacity="0"/>
      <stop offset="0.5" stop-color="#ffe9a0" stop-opacity="0.9"/>
      <stop offset="1" stop-color="#fff8dd" stop-opacity="0"/>
    </linearGradient>
    <radialGradient id="ballGlow" cx="0.5" cy="0.5" r="0.5">
      <stop offset="0" stop-color="#fffdf2" stop-opacity="0.95"/>
      <stop offset="0.35" stop-color="#ffe9a8" stop-opacity="0.55"/>
      <stop offset="0.7" stop-color="#f4c95e" stop-opacity="0.18"/>
      <stop offset="1" stop-color="#f4c95e" stop-opacity="0"/>
    </radialGradient>
    <radialGradient id="ballShade" cx="0.35" cy="0.3" r="0.85">
      <stop offset="0" stop-color="#ffffff"/>
      <stop offset="0.6" stop-color="#e9edf4"/>
      <stop offset="1" stop-color="#9aa6ba"/>
    </radialGradient>
    <radialGradient id="circleGlow" cx="0.5" cy="0.5" r="0.5">
      <stop offset="0" stop-color="#bff3d6" stop-opacity="0.5"/>
      <stop offset="0.6" stop-color="#7fe0b2" stop-opacity="0.15"/>
      <stop offset="1" stop-color="#7fe0b2" stop-opacity="0"/>
    </radialGradient>
    <radialGradient id="vignette" cx="0.5" cy="0.46" r="0.75">
      <stop offset="0" stop-color="#000000" stop-opacity="0"/>
      <stop offset="0.62" stop-color="#000000" stop-opacity="0"/>
      <stop offset="0.88" stop-color="#02060f" stop-opacity="0.5"/>
      <stop offset="1" stop-color="#01040b" stop-opacity="0.82"/>
    </radialGradient>
    <radialGradient id="cardHalo" cx="0.5" cy="0.5" r="0.5">
      <stop offset="0" stop-color="#ffd56e" stop-opacity="0.32"/>
      <stop offset="0.55" stop-color="#ffce57" stop-opacity="0.1"/>
      <stop offset="1" stop-color="#ffce57" stop-opacity="0"/>
    </radialGradient>
    <radialGradient id="flare" cx="0.5" cy="0.5" r="0.5">
      <stop offset="0" stop-color="#ffffff" stop-opacity="0.95"/>
      <stop offset="0.3" stop-color="#dceaff" stop-opacity="0.5"/>
      <stop offset="1" stop-color="#dceaff" stop-opacity="0"/>
    </radialGradient>
    <linearGradient id="rim" x1="0" y1="0" x2="1" y2="1">
      <stop offset="0" stop-color="#ffe9a8" stop-opacity="0.95"/>
      <stop offset="1" stop-color="#ffe9a8" stop-opacity="0"/>
    </linearGradient>
    <filter id="blurBeam" x="-30%" y="-30%" width="160%" height="160%">
      <feGaussianBlur stdDeviation="16"/>
    </filter>
    <filter id="blurSoft" x="-60%" y="-60%" width="220%" height="220%">
      <feGaussianBlur stdDeviation="6"/>
    </filter>
    <filter id="blurTiny" x="-50%" y="-50%" width="200%" height="200%">
      <feGaussianBlur stdDeviation="2"/>
    </filter>
    <filter id="blurMid" x="-60%" y="-60%" width="220%" height="220%">
      <feGaussianBlur stdDeviation="9"/>
    </filter>
    <filter id="depth" x="-20%" y="-20%" width="140%" height="140%">
      <feGaussianBlur stdDeviation="1.6"/>
    </filter>
    <filter id="grain">
      <feTurbulence type="fractalNoise" baseFrequency="0.9" numOctaves="2" stitchTiles="stitch" result="n"/>
      <feColorMatrix in="n" type="matrix" values="0 0 0 0 1  0 0 0 0 1  0 0 0 0 1  0.6 0.6 0.6 0 0"/>
      <feComposite operator="in" in2="SourceGraphic"/>
    </filter>
  </defs>

  <!-- SKY -->
  <rect width="1200" height="1600" fill="url(#sky)"/>

  <!-- STANDS -->
  <path d="M0,330 L1200,330 L1200,1180 L0,1180 Z" fill="#081226" opacity="0.85"/>
  <path d="M0,330 Q600,250 1200,330 L1200,470 Q600,395 0,470 Z" fill="#0a1730"/>
  <path d="M0,470 Q600,400 1200,470 L1200,640 Q600,565 0,640 Z" fill="#0c1b38"/>
  <path d="M0,640 Q600,570 1200,640 L1200,840 Q600,765 0,840 Z" fill="#0a162e"/>
  <path d="M0,840 Q600,770 1200,840 L1200,1075 Q600,1005 0,1075 Z" fill="#081124"/>
  <path d="M0,322 Q600,242 1200,322 L1200,338 Q600,258 0,338 Z" fill="#1b2c52" opacity="0.9"/>

  <!-- CROWD BOKEH -->
  <g filter="url(#blurSoft)">
    <circle cx="60" cy="420" r="9" fill="#ffd98a" opacity="0.5"/>
    <circle cx="140" cy="455" r="7" fill="#fff3d6" opacity="0.4"/>
    <circle cx="220" cy="430" r="10" fill="#ffce6e" opacity="0.35"/>
    <circle cx="330" cy="465" r="6" fill="#aecbff" opacity="0.4"/>
    <circle cx="430" cy="440" r="8" fill="#ffe9b0" opacity="0.45"/>
    <circle cx="540" cy="470" r="7" fill="#fff3d6" opacity="0.3"/>
    <circle cx="660" cy="445" r="9" fill="#ffd98a" opacity="0.42"/>
    <circle cx="775" cy="468" r="6" fill="#aecbff" opacity="0.38"/>
    <circle cx="880" cy="438" r="10" fill="#ffe2a0" opacity="0.4"/>
    <circle cx="990" cy="462" r="7" fill="#fff3d6" opacity="0.42"/>
    <circle cx="1090" cy="432" r="9" fill="#ffd98a" opacity="0.48"/>
    <circle cx="1160" cy="470" r="6" fill="#aecbff" opacity="0.35"/>
    <circle cx="50" cy="600" r="11" fill="#ffd98a" opacity="0.4"/>
    <circle cx="125" cy="650" r="7" fill="#fff3d6" opacity="0.32"/>
    <circle cx="80" cy="730" r="9" fill="#ffce6e" opacity="0.36"/>
    <circle cx="170" cy="790" r="8" fill="#aecbff" opacity="0.3"/>
    <circle cx="55" cy="870" r="10" fill="#ffe9b0" opacity="0.4"/>
    <circle cx="150" cy="930" r="7" fill="#fff3d6" opacity="0.3"/>
    <circle cx="90" cy="1010" r="9" fill="#ffd98a" opacity="0.34"/>
    <circle cx="185" cy="1050" r="6" fill="#aecbff" opacity="0.3"/>
    <circle cx="1140" cy="610" r="10" fill="#ffd98a" opacity="0.42"/>
    <circle cx="1065" cy="660" r="7" fill="#fff3d6" opacity="0.3"/>
    <circle cx="1125" cy="740" r="9" fill="#ffce6e" opacity="0.36"/>
    <circle cx="1040" cy="800" r="7" fill="#aecbff" opacity="0.3"/>
    <circle cx="1150" cy="880" r="10" fill="#ffe9b0" opacity="0.4"/>
    <circle cx="1060" cy="945" r="8" fill="#fff3d6" opacity="0.3"/>
    <circle cx="1120" cy="1020" r="9" fill="#ffd98a" opacity="0.36"/>
    <circle cx="1035" cy="1065" r="6" fill="#aecbff" opacity="0.28"/>
    <circle cx="260" cy="555" r="6" fill="#fff3d6" opacity="0.25"/>
    <circle cx="935" cy="545" r="6" fill="#fff3d6" opacity="0.25"/>
    <circle cx="350" cy="585" r="5" fill="#ffd98a" opacity="0.22"/>
    <circle cx="845" cy="590" r="5" fill="#ffd98a" opacity="0.22"/>
  </g>
  <g filter="url(#blurTiny)">
    <circle cx="95" cy="500" r="3" fill="#fff8e6" opacity="0.7"/>
    <circle cx="185" cy="530" r="2.5" fill="#ffe2a0" opacity="0.6"/>
    <circle cx="290" cy="505" r="3" fill="#fff8e6" opacity="0.55"/>
    <circle cx="405" cy="525" r="2.5" fill="#cfe0ff" opacity="0.6"/>
    <circle cx="520" cy="508" r="3" fill="#fff8e6" opacity="0.5"/>
    <circle cx="640" cy="528" r="2.5" fill="#ffe2a0" opacity="0.55"/>
    <circle cx="760" cy="506" r="3" fill="#fff8e6" opacity="0.6"/>
    <circle cx="875" cy="522" r="2.5" fill="#cfe0ff" opacity="0.55"/>
    <circle cx="985" cy="502" r="3" fill="#fff8e6" opacity="0.6"/>
    <circle cx="1095" cy="525" r="2.5" fill="#ffe2a0" opacity="0.6"/>
    <circle cx="70" cy="675" r="3" fill="#fff8e6" opacity="0.6"/>
    <circle cx="135" cy="850" r="2.5" fill="#ffe2a0" opacity="0.55"/>
    <circle cx="95" cy="955" r="3" fill="#fff8e6" opacity="0.5"/>
    <circle cx="1110" cy="690" r="3" fill="#fff8e6" opacity="0.6"/>
    <circle cx="1070" cy="865" r="2.5" fill="#ffe2a0" opacity="0.55"/>
    <circle cx="1130" cy="965" r="3" fill="#fff8e6" opacity="0.5"/>
  </g>

  <!-- FLOODLIGHT TOWERS + FLARES -->
  <g>
    <rect x="86" y="120" width="10" height="210" fill="#060d1d"/>
    <rect x="60" y="96" width="64" height="36" rx="6" fill="#0b1530"/>
    <rect x="1104" y="120" width="10" height="210" fill="#060d1d"/>
    <rect x="1076" y="96" width="64" height="36" rx="6" fill="#0b1530"/>
    <circle cx="92" cy="114" r="60" fill="url(#flare)"/>
    <circle cx="1108" cy="114" r="60" fill="url(#flare)"/>
    <circle cx="92" cy="114" r="20" fill="#ffffff" opacity="0.9" filter="url(#blurTiny)"/>
    <circle cx="1108" cy="114" r="20" fill="#ffffff" opacity="0.9" filter="url(#blurTiny)"/>
  </g>

  <!-- FOUR CROSSING LIGHT BEAMS -->
  <g filter="url(#blurBeam)">
    <polygon points="70,110 130,98 760,1210 520,1270" fill="url(#beamGrad)"/>
    <polygon points="80,118 132,104 1060,1140 880,1230" fill="url(#beamGrad)" opacity="0.8"/>
    <polygon points="1130,110 1070,98 440,1210 680,1270" fill="url(#beamGrad)"/>
    <polygon points="1120,118 1068,104 140,1140 320,1230" fill="url(#beamGrad)" opacity="0.8"/>
  </g>

  <!-- PITCH -->
  <polygon points="170,1150 1030,1150 1330,1600 -130,1600" fill="url(#pitchGrad)"/>
  <polygon points="262,1150 348,1150 256,1600 60,1600" fill="#1d8a58" opacity="0.18"/>
  <polygon points="434,1150 520,1150 648,1600 452,1600" fill="#1d8a58" opacity="0.18"/>
  <polygon points="606,1150 692,1150 1040,1600 844,1600" fill="#1d8a58" opacity="0.18"/>
  <polygon points="778,1150 864,1150 1432,1600 1236,1600" fill="#1d8a58" opacity="0.18"/>
  <polygon points="170,1150 1030,1150 1036,1160 164,1160" fill="#dff5e8" opacity="0.5"/>
  <ellipse cx="600" cy="1345" rx="330" ry="96" fill="url(#circleGlow)"/>
  <ellipse cx="600" cy="1345" rx="225" ry="62" fill="none" stroke="#eafff3" stroke-width="7" opacity="0.34" filter="url(#blurSoft)"/>
  <ellipse cx="600" cy="1345" rx="225" ry="62" fill="none" stroke="#f2fff8" stroke-width="3.5" opacity="0.85"/>
  <polygon points="118,1340 1082,1340 1090,1351 110,1351" fill="#eafff3" opacity="0.55"/>
  <circle cx="600" cy="1345" r="7" fill="#f2fff8" opacity="0.9"/>
  <ellipse cx="600" cy="1265" rx="330" ry="78" fill="url(#cardHalo)"/>

  <!-- HALO BEHIND CARD CLUSTER -->
  <ellipse cx="600" cy="880" rx="520" ry="560" fill="url(#cardHalo)"/>

  <!-- SMALL CARD LEFT: BLUE GOALKEEPER -->
  <g transform="translate(238,832) rotate(-14)" filter="url(#depth)">
    <rect x="-172" y="-242" width="344" height="484" rx="26" fill="#03070f" opacity="0.6" transform="translate(10,16)"/>
    <rect x="-172" y="-242" width="344" height="484" rx="26" fill="url(#silverFrame)"/>
    <rect x="-158" y="-228" width="316" height="456" rx="18" fill="url(#cardInnerBlue)"/>
    <rect x="-158" y="-228" width="316" height="456" rx="18" fill="none" stroke="#9fc0ef" stroke-width="2" opacity="0.5"/>
    <g stroke="#0a1124" stroke-linecap="round" fill="none">
      <path d="M-92,60 L-30,12 L34,-26" stroke-width="30"/>
      <path d="M34,-26 L86,-72" stroke-width="24"/>
      <path d="M34,-26 L96,-18" stroke-width="22"/>
      <path d="M-92,60 L-128,118" stroke-width="24"/>
      <path d="M-92,60 L-44,128" stroke-width="24"/>
    </g>
    <circle cx="118" cy="-92" r="24" fill="#0a1124"/>
    <path d="M-36,16 L40,-28 L58,-4 L-16,42 Z" fill="#2e7bd8" opacity="0.95"/>
    <circle cx="96" cy="-110" r="14" fill="#5ea1ec" opacity="0.65"/>
    <path d="M78,-78 L104,-100" stroke="#bcd8fb" stroke-width="7" stroke-linecap="round"/>
    <text x="-128" y="-156" font-family="'Arial Black','Arial',sans-serif" font-weight="900" font-size="64" fill="#dceaff">91</text>
    <text x="-128" y="-118" font-family="'Arial Black','Arial',sans-serif" font-weight="900" font-size="30" fill="#8fb6e8">GK</text>
    <rect x="-158" y="160" width="316" height="68" fill="#071025" opacity="0.85"/>
    <text x="0" y="206" text-anchor="middle" font-family="'Arial Black','Arial',sans-serif" font-weight="900" font-size="30" fill="#cfe2fb" letter-spacing="3">THE WALL</text>
  </g>

  <!-- SMALL CARD RIGHT: GREEN MIDFIELDER -->
  <g transform="translate(962,852) rotate(12)" filter="url(#depth)">
    <rect x="-172" y="-242" width="344" height="484" rx="26" fill="#03070f" opacity="0.6" transform="translate(-10,16)"/>
    <rect x="-172" y="-242" width="344" height="484" rx="26" fill="url(#silverFrame)"/>
    <rect x="-158" y="-228" width="316" height="456" rx="18" fill="url(#cardInnerGreen)"/>
    <rect x="-158" y="-228" width="316" height="456" rx="18" fill="none" stroke="#8fe0b4" stroke-width="2" opacity="0.5"/>
    <g stroke="#081720" stroke-linecap="round" fill="none">
      <path d="M-14,-58 L6,18" stroke-width="32"/>
      <path d="M6,18 L-52,72 L-66,134" stroke-width="24"/>
      <path d="M6,18 L62,66 L46,134" stroke-width="24"/>
      <path d="M-10,-44 L-66,-6" stroke-width="20"/>
      <path d="M-10,-44 L52,-30" stroke-width="20"/>
    </g>
    <circle cx="-20" cy="-96" r="25" fill="#081720"/>
    <path d="M-32,-66 L8,-72 L14,-18 L-24,-10 Z" fill="#27b06a" opacity="0.95"/>
    <circle cx="92" cy="142" r="20" fill="#e8f1ec"/>
    <path d="M84,136 L100,148 M92,124 L92,142" stroke="#48604f" stroke-width="3"/>
    <text x="-128" y="-156" font-family="'Arial Black','Arial',sans-serif" font-weight="900" font-size="64" fill="#d8f7e6">89</text>
    <text x="-128" y="-118" font-family="'Arial Black','Arial',sans-serif" font-weight="900" font-size="30" fill="#7fce9f">CM</text>
    <rect x="-158" y="160" width="316" height="68" fill="#06170f" opacity="0.85"/>
    <text x="0" y="206" text-anchor="middle" font-family="'Arial Black','Arial',sans-serif" font-weight="900" font-size="30" fill="#c9f2da" letter-spacing="3">THE ENGINE</text>
  </g>

  <!-- HERO CARD: GOLD LEGEND STRIKER -->
  <g transform="translate(600,880) rotate(-5)">
    <rect x="-286" y="-396" width="572" height="792" rx="34" fill="#02050c" opacity="0.65" transform="translate(16,26)" filter="url(#blurMid)"/>
    <rect x="-286" y="-396" width="572" height="792" rx="34" fill="url(#goldFrame)"/>
    <rect x="-286" y="-396" width="572" height="792" rx="34" fill="none" stroke="#fff3c2" stroke-width="3" opacity="0.7"/>
    <rect x="-262" y="-372" width="524" height="744" rx="22" fill="url(#cardInner)"/>
    <rect x="-262" y="-372" width="524" height="744" rx="22" fill="none" stroke="#f6d878" stroke-width="2.5" opacity="0.65"/>
    <path d="M-262,212 L262,212 L262,350 Q0,396 -262,350 Z" fill="#0c4a30" opacity="0.85"/>
    <path d="M-180,252 Q0,222 180,252" stroke="#9fe8c4" stroke-width="3" fill="none" opacity="0.4"/>
    <ellipse cx="0" cy="300" rx="130" ry="30" fill="none" stroke="#9fe8c4" stroke-width="2.5" opacity="0.3"/>
    <polygon points="-240,-372 -160,-372 80,180 -60,180" fill="#dceaff" opacity="0.07"/>
    <polygon points="240,-372 160,-372 -80,180 60,180" fill="#dceaff" opacity="0.07"/>

    <!-- STRIKER: bicycle kick -->
    <g transform="translate(0,40)">
      <ellipse cx="-20" cy="-20" rx="210" ry="190" fill="url(#cardHalo)"/>
      <!-- far arm reaching down toward the turf -->
      <path d="M-62,46 L-80,112 L-122,150" stroke="#0f1830" stroke-width="21" stroke-linecap="round" fill="none"/>
      <!-- trailing leg, folded under -->
      <path d="M28,-8 L80,44 L40,88" stroke="#121d38" stroke-width="27" stroke-linecap="round" fill="none"/>
      <path d="M40,88 L13,99" stroke="#0d1528" stroke-width="14" stroke-linecap="round"/>
      <!-- torso: arched, airborne, head low, hips high (red shirt) -->
      <path d="M-88,17 Q-40,-30 17,-43 L43,3 Q-10,45 -62,63 Z" fill="url(#redKit)"/>
      <path d="M-88,17 Q-99,38 -82,56 L-62,63 Q-80,42 -76,14 Z" fill="#a31423"/>
      <!-- shorts -->
      <path d="M17,-43 L52,-58 L78,-14 L43,3 Z" fill="#f3f5f9"/>
      <!-- head thrown back, below the body line -->
      <circle cx="-108" cy="59" r="25" fill="#16223f"/>
      <path d="M-130,46 Q-112,28 -88,42 Q-108,32 -130,46 Z" fill="#0b1326"/>
      <!-- near arm spread back for balance -->
      <path d="M-66,26 L-118,-2 L-162,22" stroke="#131e3a" stroke-width="22" stroke-linecap="round" fill="none"/>
      <!-- kicking leg: bent knee, calf whipping up toward the ball -->
      <path d="M35,-28 L95,-62" stroke="#16223f" stroke-width="30" stroke-linecap="round" fill="none"/>
      <path d="M95,-62 L133,-140" stroke="#16223f" stroke-width="26" stroke-linecap="round" fill="none"/>
      <!-- red sock + golden boot -->
      <path d="M118,-112 L136,-148" stroke="#c11f2e" stroke-width="24" stroke-linecap="round"/>
      <path d="M133,-144 L163,-170" stroke="#f3cf63" stroke-width="20" stroke-linecap="round"/>
      <!-- rim light: spine, kicking leg, head -->
      <path d="M-86,12 Q-40,-34 16,-46" stroke="url(#rim)" stroke-width="6" stroke-linecap="round" fill="none" opacity="0.9"/>
      <path d="M40,-34 L98,-68 L136,-144" stroke="#ffe9a8" stroke-width="4.5" stroke-linecap="round" fill="none" opacity="0.7"/>
      <path d="M-126,42 Q-108,30 -92,40" stroke="#ffe9a8" stroke-width="4" stroke-linecap="round" fill="none" opacity="0.5"/>
      <!-- kick swoosh arcs -->
      <path d="M60,-120 Q110,-152 150,-200" stroke="#ffe9a8" stroke-width="3" fill="none" opacity="0.35"/>
      <path d="M50,-95 Q105,-130 140,-180" stroke="#ffe9a8" stroke-width="2.5" fill="none" opacity="0.25"/>
    </g>

    <!-- rating block -->
    <text x="-228" y="-280" font-family="'Arial Black','Arial',sans-serif" font-weight="900" font-size="104" fill="url(#goldFoil)">94</text>
    <text x="-228" y="-228" font-family="'Arial Black','Arial',sans-serif" font-weight="900" font-size="44" fill="#f3cf63">ST</text>
    <circle cx="-214" cy="-188" r="9" fill="#ffd24a"/>
    <circle cx="-188" cy="-188" r="9" fill="#ffd24a"/>
    <circle cx="-162" cy="-188" r="9" fill="#ffd24a"/>
    <text x="-228" y="-152" font-family="'Arial','Helvetica',sans-serif" font-weight="bold" font-size="20" fill="#ffe9a8" letter-spacing="2">ON FIRE</text>
    <!-- nameplate -->
    <rect x="-262" y="290" width="524" height="82" fill="#081024" opacity="0.88"/>
    <path d="M-262,290 L262,290" stroke="#f6d878" stroke-width="2" opacity="0.7"/>
    <text x="0" y="332" text-anchor="middle" font-family="'Arial Black','Arial',sans-serif" font-weight="900" font-size="38" fill="url(#goldFoil)" letter-spacing="4">LEGEND IX</text>
    <text x="0" y="360" text-anchor="middle" font-family="'Arial','Helvetica',sans-serif" font-size="17" fill="#b9c6e2" letter-spacing="5">SEASON 26/27 - LIVE CARD</text>

    <!-- BALL BURSTING THROUGH THE FRAME (top-right) -->
    <g filter="url(#blurSoft)">
      <path d="M182,-168 Q226,-256 270,-330" stroke="#ffe9a0" stroke-width="22" stroke-linecap="round" fill="none" opacity="0.55"/>
    </g>
    <path d="M186,-174 Q230,-260 268,-326" stroke="#fff8dd" stroke-width="7" stroke-linecap="round" fill="none" opacity="0.9"/>
    <circle cx="276" cy="-344" r="118" fill="url(#ballGlow)"/>
    <g fill="url(#goldFrame)">
      <polygon points="204,-372 232,-380 224,-352" transform="rotate(-14 218 -366)"/>
      <polygon points="330,-298 352,-310 348,-280" transform="rotate(22 342 -296)"/>
      <polygon points="318,-396 344,-402 336,-376" transform="rotate(36 330 -390)"/>
      <rect x="238" y="-416" width="26" height="10" rx="3" transform="rotate(-24 251 -411)"/>
      <rect x="332" y="-352" width="22" height="9" rx="3" transform="rotate(40 343 -347)"/>
    </g>
    <g stroke="url(#streak)" stroke-linecap="round">
      <line x1="200" y1="-300" x2="372" y2="-404" stroke-width="7"/>
      <line x1="216" y1="-262" x2="396" y2="-330" stroke-width="5"/>
      <line x1="252" y1="-252" x2="318" y2="-470" stroke-width="6"/>
      <line x1="184" y1="-336" x2="362" y2="-356" stroke-width="4"/>
      <line x1="236" y1="-282" x2="404" y2="-262" stroke-width="4"/>
    </g>
    <circle cx="276" cy="-344" r="42" fill="url(#ballShade)"/>
    <g fill="#1c2740" opacity="0.92">
      <polygon points="276,-360 291,-349 285,-331 267,-331 261,-349"/>
      <polygon points="276,-386 287,-378 283,-368 269,-368 265,-378" transform="rotate(8 276 -344)"/>
      <path d="M243,-360 L256,-352 L252,-338 L238,-342 Z"/>
      <path d="M309,-360 L297,-351 L301,-337 L314,-343 Z"/>
      <path d="M262,-312 L274,-318 L286,-312 L280,-302 L268,-302 Z"/>
    </g>
    <circle cx="276" cy="-344" r="42" fill="none" stroke="#fffdf2" stroke-width="2.5" opacity="0.8"/>
    <g fill="#ffe066">
      <circle cx="352" cy="-396" r="5"/>
      <circle cx="386" cy="-330" r="4"/>
      <circle cx="332" cy="-446" r="3.5"/>
      <circle cx="220" cy="-432" r="4"/>
      <circle cx="402" cy="-388" r="3"/>
      <circle cx="356" cy="-282" r="3.5"/>
      <circle cx="300" cy="-466" r="3"/>
    </g>
    <g fill="#fff8dd">
      <circle cx="368" cy="-360" r="2.2"/>
      <circle cx="318" cy="-420" r="2.2"/>
      <circle cx="252" cy="-446" r="2"/>
      <circle cx="412" cy="-322" r="2"/>
      <path d="M344,-424 l4,-12 l4,12 l12,4 l-12,4 l-4,12 l-4,-12 l-12,-4 Z"/>
    </g>
  </g>

  <!-- TITLE: stroke layer under, gold-foil fill on top -->
  <g transform="translate(600,228) skewX(-8)">
    <text x="0" y="0" text-anchor="middle" transform="scale(0.86,1.12)"
          font-family="'Arial Black','Impact','Helvetica Neue',Arial,sans-serif" font-weight="900" font-style="italic"
          font-size="158" letter-spacing="-4"
          fill="none" stroke="#070e21" stroke-width="20" stroke-linejoin="round">HAT TRICK</text>
    <text x="0" y="0" text-anchor="middle" transform="scale(0.86,1.12)"
          font-family="'Arial Black','Impact','Helvetica Neue',Arial,sans-serif" font-weight="900" font-style="italic"
          font-size="158" letter-spacing="-4"
          fill="url(#goldFoil)">HAT TRICK</text>
  </g>
  <path d="M268,268 L932,268 L908,282 L292,282 Z" fill="url(#goldFoil)" opacity="0.9"/>

  <!-- TAGLINE -->
  <g transform="translate(600,330)">
    <text x="0" y="0" text-anchor="middle" font-family="'Georgia','Times New Roman',serif" font-style="italic"
          font-size="33" fill="none" stroke="#070e21" stroke-width="10" stroke-linejoin="round" letter-spacing="2">Your legends. Your deck. Your match.</text>
    <text x="0" y="0" text-anchor="middle" font-family="'Georgia','Times New Roman',serif" font-style="italic"
          font-size="33" fill="#e6edfb" letter-spacing="2">Your legends. Your deck. Your match.</text>
  </g>

  <!-- FOOTER STRAP -->
  <g transform="translate(600,1545)">
    <text x="0" y="0" text-anchor="middle" font-family="'Arial','Helvetica',sans-serif" font-weight="bold"
          font-size="22" fill="#bfe8d2" letter-spacing="6" opacity="0.85">COLLECT REAL PLAYERS - BUILD YOUR XI - 3-MINUTE MATCHES</text>
  </g>

  <!-- ATMOSPHERE: vignette + grain -->
  <rect width="1200" height="1600" fill="url(#vignette)"/>
  <rect width="1200" height="1600" filter="url(#grain)" opacity="0.05"/>
</svg>
