<svg viewBox="0 0 1200 1600" width="1200" height="1600" xmlns="http://www.w3.org/2000/svg" xmlns:xlink="http://www.w3.org/1999/xlink">
  <!-- ============================================================
       RAMP-AGE — Key Art Poster 1200x1600
       Desert canyon, midday. Hero car launching off rival's ramp.
       ============================================================ -->
  <defs>
    <!-- Sky: bright midday teal -->
    <linearGradient id="skyGrad" x1="0" y1="0" x2="0" y2="1">
      <stop offset="0" stop-color="#1ba8bd"/>
      <stop offset="0.45" stop-color="#3ec4cf"/>
      <stop offset="0.8" stop-color="#8fe6df"/>
      <stop offset="1" stop-color="#cdf4e9"/>
    </linearGradient>
    <!-- Sun glow -->
    <radialGradient id="sunGlow" cx="0.5" cy="0.5" r="0.5">
      <stop offset="0" stop-color="#fff8d8" stop-opacity="0.95"/>
      <stop offset="0.35" stop-color="#ffe98f" stop-opacity="0.55"/>
      <stop offset="1" stop-color="#ffe98f" stop-opacity="0"/>
    </radialGradient>
    <!-- Mesa layers -->
    <linearGradient id="mesaFar" x1="0" y1="0" x2="0" y2="1">
      <stop offset="0" stop-color="#e9b39a"/>
      <stop offset="1" stop-color="#dd9d85"/>
    </linearGradient>
    <linearGradient id="mesaMid" x1="0" y1="0" x2="0" y2="1">
      <stop offset="0" stop-color="#d97f55"/>
      <stop offset="1" stop-color="#c96a44"/>
    </linearGradient>
    <linearGradient id="mesaNear" x1="0" y1="0" x2="0" y2="1">
      <stop offset="0" stop-color="#bc5631"/>
      <stop offset="1" stop-color="#a64726"/>
    </linearGradient>
    <linearGradient id="rockFg" x1="0" y1="0" x2="0" y2="1">
      <stop offset="0" stop-color="#9a3f20"/>
      <stop offset="1" stop-color="#7e3018"/>
    </linearGradient>
    <!-- Desert floor + track -->
    <linearGradient id="floorGrad" x1="0" y1="0" x2="0" y2="1">
      <stop offset="0" stop-color="#d99a62"/>
      <stop offset="0.5" stop-color="#cf8a50"/>
      <stop offset="1" stop-color="#b96f3c"/>
    </linearGradient>
    <linearGradient id="trackGrad" x1="0" y1="0" x2="0" y2="1">
      <stop offset="0" stop-color="#eec487"/>
      <stop offset="1" stop-color="#dfa763"/>
    </linearGradient>
    <!-- Title -->
    <linearGradient id="titleGrad" x1="0" y1="0" x2="0" y2="1">
      <stop offset="0" stop-color="#ffe45c"/>
      <stop offset="0.45" stop-color="#ffb52e"/>
      <stop offset="1" stop-color="#ff6a12"/>
    </linearGradient>
    <linearGradient id="rampWedgeGrad" x1="0" y1="0" x2="1" y2="0">
      <stop offset="0" stop-color="#ffd84d"/>
      <stop offset="1" stop-color="#ff7e1a"/>
    </linearGradient>
    <!-- Car bodies -->
    <linearGradient id="heroBody" x1="0" y1="0" x2="0" y2="1">
      <stop offset="0" stop-color="#ff7448"/>
      <stop offset="0.55" stop-color="#f2452a"/>
      <stop offset="1" stop-color="#c92e1d"/>
    </linearGradient>
    <linearGradient id="rivalBody" x1="0" y1="0" x2="0" y2="1">
      <stop offset="0" stop-color="#3fd6d2"/>
      <stop offset="0.55" stop-color="#19aebb"/>
      <stop offset="1" stop-color="#0d8597"/>
    </linearGradient>
    <linearGradient id="crashBody" x1="0" y1="0" x2="0" y2="1">
      <stop offset="0" stop-color="#b58cf0"/>
      <stop offset="0.6" stop-color="#8f5fd9"/>
      <stop offset="1" stop-color="#6f43b3"/>
    </linearGradient>
    <linearGradient id="rampFaceGrad" x1="0" y1="0" x2="1" y2="0">
      <stop offset="0" stop-color="#ffce3d"/>
      <stop offset="1" stop-color="#ff9a1f"/>
    </linearGradient>
    <!-- Star power-up glow -->
    <radialGradient id="starGlow" cx="0.5" cy="0.5" r="0.5">
      <stop offset="0" stop-color="#fff7c0" stop-opacity="0.95"/>
      <stop offset="0.4" stop-color="#ffe25c" stop-opacity="0.55"/>
      <stop offset="1" stop-color="#ffe25c" stop-opacity="0"/>
    </radialGradient>
    <!-- Vignette -->
    <radialGradient id="vignette" cx="0.5" cy="0.45" r="0.78">
      <stop offset="0" stop-color="#000000" stop-opacity="0"/>
      <stop offset="0.72" stop-color="#000000" stop-opacity="0"/>
      <stop offset="1" stop-color="#3a0e04" stop-opacity="0.42"/>
    </radialGradient>
    <!-- Haze for far mesas -->
    <linearGradient id="hazeGrad" x1="0" y1="0" x2="0" y2="1">
      <stop offset="0" stop-color="#bdeee4" stop-opacity="0.55"/>
      <stop offset="1" stop-color="#bdeee4" stop-opacity="0.1"/>
    </linearGradient>
    <!-- Filters -->
    <filter id="softBlur" x="-40%" y="-40%" width="180%" height="180%">
      <feGaussianBlur stdDeviation="9"/>
    </filter>
    <filter id="tinyBlur" x="-30%" y="-30%" width="160%" height="160%">
      <feGaussianBlur stdDeviation="3"/>
    </filter>
    <filter id="grain">
      <feTurbulence type="fractalNoise" baseFrequency="0.9" numOctaves="2" seed="7" result="noise"/>
      <feColorMatrix in="noise" type="matrix" values="0 0 0 0 0  0 0 0 0 0  0 0 0 0 0  0.6 0.6 0.6 0 0"/>
      <feComposite operator="over" in2="SourceGraphic"/>
    </filter>
    <filter id="titleShadow" x="-20%" y="-20%" width="140%" height="160%">
      <feDropShadow dx="0" dy="10" stdDeviation="8" flood-color="#5e1804" flood-opacity="0.45"/>
    </filter>
    <!-- Wheel reusable -->
    <g id="wheel">
      <circle r="26" fill="#2b2330"/>
      <circle r="13" fill="#f5e6c8"/>
      <circle r="5" fill="#2b2330"/>
    </g>
    <g id="wheelBig">
      <circle r="34" fill="#2b2330"/>
      <circle r="17" fill="#f5e6c8"/>
      <circle r="7" fill="#2b2330"/>
    </g>
    <!-- Spinning star (dizzy) -->
    <path id="dizzyStar" d="M0,-12 L3.5,-3.7 12,-3.7 5,1.8 7.4,11 0,5.6 -7.4,11 -5,1.8 -12,-3.7 -3.5,-3.7 Z" fill="#ffd84d" stroke="#a8581a" stroke-width="2"/>
    <!-- Coin -->
    <g id="coin">
      <circle r="20" fill="#ffcf3a" stroke="#c47b12" stroke-width="4"/>
      <circle r="11" fill="none" stroke="#c47b12" stroke-width="3"/>
    </g>
  </defs>

  <!-- ===================== SKY ===================== -->
  <rect x="0" y="0" width="1200" height="1040" fill="url(#skyGrad)"/>
  <circle cx="985" cy="200" r="330" fill="url(#sunGlow)"/>
  <circle cx="985" cy="200" r="72" fill="#fff6cf"/>
  <circle cx="985" cy="200" r="56" fill="#ffeea0"/>

  <!-- clouds -->
  <g fill="#ffffff" opacity="0.85">
    <g filter="url(#tinyBlur)">
      <ellipse cx="200" cy="430" rx="120" ry="32"/>
      <ellipse cx="270" cy="408" rx="78" ry="26"/>
      <ellipse cx="135" cy="412" rx="60" ry="22"/>
    </g>
    <g filter="url(#tinyBlur)" opacity="0.8">
      <ellipse cx="1010" cy="520" rx="95" ry="24"/>
      <ellipse cx="1070" cy="500" rx="58" ry="18"/>
    </g>
    <g filter="url(#tinyBlur)" opacity="0.6">
      <ellipse cx="620" cy="470" rx="70" ry="16"/>
    </g>
  </g>

  <!-- ===================== FAR MESAS (hazy) ===================== -->
  <g>
    <path d="M-20,1010 L-20,830 L90,830 L130,760 L300,760 L335,830 L470,830 L470,1010 Z" fill="url(#mesaFar)"/>
    <path d="M430,1010 L430,860 L560,860 L600,780 L780,780 L815,860 L940,860 L940,1010 Z" fill="url(#mesaFar)"/>
    <path d="M880,1010 L880,845 L990,845 L1030,770 L1160,770 L1195,845 L1220,845 L1220,1010 Z" fill="url(#mesaFar)"/>
    <!-- strata lines on far mesas -->
    <g stroke="#d28e72" stroke-width="5" opacity="0.6">
      <line x1="130" y1="800" x2="335" y2="800"/>
      <line x1="600" y1="820" x2="815" y2="820"/>
      <line x1="1030" y1="805" x2="1195" y2="805"/>
    </g>
    <!-- atmospheric haze wash -->
    <rect x="-20" y="740" width="1240" height="280" fill="url(#hazeGrad)"/>
  </g>

  <!-- ===================== MID MESAS ===================== -->
  <g>
    <path d="M-20,1040 L-20,880 L60,880 L110,800 L260,800 L300,880 L400,880 L400,1040 Z" fill="url(#mesaMid)"/>
    <path d="M760,1040 L760,895 L860,895 L905,815 L1080,815 L1125,895 L1220,895 L1220,1040 Z" fill="url(#mesaMid)"/>
    <g stroke="#b35a38" stroke-width="6" opacity="0.65">
      <line x1="110" y1="845" x2="300" y2="845"/>
      <line x1="80" y1="915" x2="380" y2="915"/>
      <line x1="905" y1="858" x2="1125" y2="858"/>
      <line x1="800" y1="935" x2="1190" y2="935"/>
    </g>
    <rect x="-20" y="860" width="1240" height="180" fill="#bdeee4" opacity="0.14"/>
  </g>

  <!-- ===================== NEAR CANYON WALLS ===================== -->
  <g>
    <path d="M-20,1090 L-20,930 L70,920 L130,840 L210,852 L255,930 L320,945 L350,1030 L300,1090 Z" fill="url(#mesaNear)"/>
    <path d="M1220,1110 L1220,930 L1140,918 L1075,845 L1000,860 L965,940 L915,965 L935,1060 L1010,1110 Z" fill="url(#mesaNear)"/>
    <g stroke="#8f3c1f" stroke-width="7" opacity="0.6">
      <path d="M30,975 Q160,955 290,985" fill="none"/>
      <path d="M1190,985 Q1080,962 960,995" fill="none"/>
      <line x1="135" y1="885" x2="245" y2="893"/>
      <line x1="1065" y1="892" x2="1135" y2="885"/>
    </g>
    <!-- sun-side highlight -->
    <path d="M1075,845 L1140,918 L1110,922 L1058,860 Z" fill="#e08a55" opacity="0.7"/>
    <path d="M130,840 L210,852 L196,876 L122,866 Z" fill="#e08a55" opacity="0.55"/>
  </g>

  <!-- ===================== DESERT FLOOR ===================== -->
  <rect x="0" y="1000" width="1200" height="600" fill="url(#floorGrad)"/>
  <!-- floor texture dashes -->
  <g stroke="#a85f31" stroke-width="4" stroke-linecap="round" opacity="0.4">
    <line x1="90" y1="1180" x2="150" y2="1175"/>
    <line x1="60" y1="1380" x2="135" y2="1372"/>
    <line x1="1020" y1="1180" x2="1095" y2="1173"/>
    <line x1="1060" y1="1460" x2="1150" y2="1450"/>
    <line x1="180" y1="1520" x2="265" y2="1512"/>
  </g>

  <!-- ===================== TRACK (curving S) ===================== -->
  <path d="M250,1600 C300,1380 240,1290 430,1185 C610,1085 560,1050 615,1006
           L725,1006 C660,1060 760,1095 590,1215 C430,1325 530,1380 470,1600 Z"
        fill="url(#trackGrad)"/>
  <!-- track edge lines -->
  <path d="M250,1600 C300,1380 240,1290 430,1185 C610,1085 560,1050 615,1006" fill="none" stroke="#b07238" stroke-width="8" opacity="0.7"/>
  <path d="M470,1600 C530,1380 430,1325 590,1215 C760,1095 660,1060 725,1006" fill="none" stroke="#b07238" stroke-width="8" opacity="0.7"/>
  <!-- dashed center line -->
  <path d="M360,1600 C415,1380 335,1305 510,1200 C685,1090 610,1055 670,1006"
        fill="none" stroke="#fdf3d0" stroke-width="10" stroke-dasharray="34 30" opacity="0.85"/>
  <!-- tire streaks -->
  <g stroke="#6e3a18" stroke-linecap="round" fill="none" opacity="0.55">
    <path d="M330,1565 C370,1430 320,1330 455,1245" stroke-width="13"/>
    <path d="M368,1572 C406,1440 358,1338 492,1252" stroke-width="13"/>
    <path d="M430,1330 C470,1285 520,1262 560,1245" stroke-width="10" opacity="0.7"/>
  </g>

  <!-- mid cactus left -->
  <g transform="translate(150,1090)">
    <path d="M0,0 L0,-95 Q0,-118 22,-118 Q44,-118 44,-95 L44,0 Z" fill="#3f9e63" stroke="#2a7245" stroke-width="6"/>
    <path d="M-34,-70 Q-58,-70 -58,-94 Q-58,-112 -42,-112 L-42,-86 L0,-86 L0,-62 L-34,-62 Z" fill="#3f9e63" stroke="#2a7245" stroke-width="6"/>
    <path d="M78,-50 Q98,-50 98,-74 Q98,-90 84,-90 L84,-68 L44,-68 L44,-44 L78,-44 Z" fill="#3f9e63" stroke="#2a7245" stroke-width="6"/>
    <ellipse cx="22" cy="8" rx="58" ry="12" fill="#8a4a22" opacity="0.35"/>
  </g>

  <!-- ===================== LAUNCH ARC (dotted) ===================== -->
  <path d="M515,1175 C560,1010 600,880 700,790 C800,700 880,690 960,718"
        fill="none" stroke="#fff3b8" stroke-width="11" stroke-dasharray="4 30" stroke-linecap="round" opacity="0.95"/>
  <path d="M515,1175 C560,1010 600,880 700,790 C800,700 880,690 960,718"
        fill="none" stroke="#ffb52e" stroke-width="22" stroke-dasharray="4 30" stroke-linecap="round" opacity="0.28" filter="url(#tinyBlur)"/>

  <!-- floating pickups along the arc -->
  <use xlink:href="#coin" x="0" y="0" transform="translate(560,985)"/>
  <use xlink:href="#coin" x="0" y="0" transform="translate(607,894) scale(0.9)"/>
  <!-- turbo bottle -->
  <g transform="translate(795,705) rotate(12)">
    <rect x="-16" y="-30" width="32" height="56" rx="12" fill="#39c8e8" stroke="#0d7d9c" stroke-width="5"/>
    <rect x="-9" y="-44" width="18" height="16" rx="5" fill="#ff8b2a" stroke="#b3541a" stroke-width="4"/>
    <path d="M-4,-18 L7,-2 L0,-2 L5,14 L-8,-4 L-1,-4 Z" fill="#fff6cf"/>
  </g>

  <!-- ===================== STAR POWER-UP (the grab) ===================== -->
  <g transform="translate(905,705)">
    <circle r="120" fill="url(#starGlow)"/>
    <circle r="78" fill="url(#starGlow)" opacity="0.9"/>
    <g filter="url(#tinyBlur)" opacity="0.85">
      <path d="M0,-64 L18,-20 64,-20 27,9 40,56 0,28 -40,56 -27,9 -64,-20 -18,-20 Z" fill="#ffe45c"/>
    </g>
    <path d="M0,-58 L16,-18 58,-18 24,8 36,50 0,25 -36,50 -24,8 -58,-18 -16,-18 Z"
          fill="#ffd84d" stroke="#e08612" stroke-width="7" stroke-linejoin="round"/>
    <path d="M-14,-20 L0,-44 L10,-20 Z" fill="#fff6cf" opacity="0.9"/>
    <!-- sparkle ticks -->
    <g stroke="#fff6cf" stroke-width="6" stroke-linecap="round">
      <line x1="-86" y1="-60" x2="-66" y2="-46"/>
      <line x1="84" y1="-66" x2="66" y2="-50"/>
      <line x1="92" y1="40" x2="72" y2="30"/>
      <line x1="-78" y1="58" x2="-62" y2="44"/>
    </g>
  </g>

  <!-- ===================== HERO CAR (airborne) ===================== -->
  <g transform="translate(700,800) rotate(-16)">
    <!-- motion lines behind -->
    <g stroke="#ffffff" stroke-width="9" stroke-linecap="round" opacity="0.8">
      <line x1="-235" y1="-6" x2="-130" y2="-6"/>
      <line x1="-265" y1="28" x2="-140" y2="28"/>
      <line x1="-215" y1="60" x2="-125" y2="60"/>
    </g>
    <!-- splayed wheels -->
    <use xlink:href="#wheelBig" transform="translate(-92,52) rotate(-30)"/>
    <use xlink:href="#wheelBig" transform="translate(86,58) rotate(28)"/>
    <use xlink:href="#wheel" transform="translate(-66,-44) rotate(-18) scale(0.78)"/>
    <use xlink:href="#wheel" transform="translate(72,-40) rotate(20) scale(0.78)"/>
    <!-- body -->
    <path d="M-128,18 Q-132,-30 -88,-44 Q-64,-78 -10,-82 Q52,-84 84,-50 Q126,-38 130,2
             Q132,34 96,44 L-96,44 Q-126,40 -128,18 Z" fill="url(#heroBody)" stroke="#8f1d10" stroke-width="7"/>
    <!-- body highlight -->
    <path d="M-86,-40 Q-58,-66 -8,-70 Q34,-71 62,-50 Q22,-58 -18,-54 Q-62,-50 -86,-40 Z" fill="#ffb08a" opacity="0.8"/>
    <!-- yellow racing stripe (under windshield) -->
    <path d="M-6,-82 L16,-81 L20,44 L-2,44 Z" fill="#ffcf3a" opacity="0.95"/>
    <!-- windshield with googly eyes -->
    <path d="M-52,-44 Q-40,-70 -6,-72 Q36,-72 52,-46 Q54,-30 36,-28 L-40,-28 Q-54,-30 -52,-44 Z"
          fill="#bff1f4" stroke="#8f1d10" stroke-width="6"/>
    <circle cx="-18" cy="-48" r="15" fill="#ffffff" stroke="#3a2a2a" stroke-width="4"/>
    <circle cx="-13" cy="-45" r="6.5" fill="#2b2330"/>
    <circle cx="22" cy="-48" r="15" fill="#ffffff" stroke="#3a2a2a" stroke-width="4"/>
    <circle cx="27" cy="-45" r="6.5" fill="#2b2330"/>
    <!-- gleeful grin on bumper -->
    <path d="M-30,22 Q0,42 34,20" fill="none" stroke="#5e1006" stroke-width="8" stroke-linecap="round"/>
    <!-- folded rear ramp on its back -->
    <path d="M-128,6 L-100,-34 L-86,-26 L-114,12 Z" fill="#ffce3d" stroke="#a8581a" stroke-width="5"/>
    <!-- exhaust puff -->
    <g fill="#ffffff" opacity="0.9">
      <circle cx="-152" cy="20" r="16"/>
      <circle cx="-176" cy="30" r="11"/>
      <circle cx="-194" cy="38" r="7"/>
    </g>
  </g>

  <!-- ===================== IMPACT BURST at ramp tip ===================== -->
  <g transform="translate(520,1158)">
    <path d="M0,-78 L20,-26 70,-52 38,-8 96,2 38,16 64,62 12,30 0,92 -14,30 -62,60 -36,14 -94,4 -38,-10 -66,-50 -20,-26 Z"
          fill="#fff3b8" stroke="#ff9a1f" stroke-width="7" stroke-linejoin="round"/>
    <path d="M0,-44 L12,-15 40,-28 21,-4 52,2 21,9 35,34 7,17 0,50 -8,17 -34,33 -20,8 -51,2 -21,-5 -37,-27 -11,-15 Z"
          fill="#ffce3d"/>
  </g>

  <!-- ===================== RIVAL RAMP CAR (smirking) ===================== -->
  <g transform="translate(400,1265)">
    <!-- shadow -->
    <ellipse cx="10" cy="86" rx="190" ry="26" fill="#6e3413" opacity="0.4"/>
    <!-- raised ramp: hinged at rear, pointing up-right -->
    <g transform="translate(58,30) rotate(-38)">
      <path d="M0,0 L210,0 L210,-22 Q110,-34 0,-26 Z" fill="url(#rampFaceGrad)" stroke="#a8581a" stroke-width="7"/>
      <!-- chevrons on ramp face -->
      <g fill="#8f3c12" opacity="0.85">
        <path d="M30,-4 L52,-4 L40,-22 L18,-22 Z"/>
        <path d="M78,-4 L100,-4 L88,-24 L66,-24 Z"/>
        <path d="M126,-4 L148,-4 L136,-26 L114,-26 Z"/>
        <path d="M174,-4 L196,-4 L184,-27 L162,-27 Z"/>
      </g>
      <!-- strut -->
      <rect x="148" y="0" width="14" height="68" rx="6" fill="#5e4632" transform="rotate(30 155 0)"/>
    </g>
    <!-- wheels -->
    <use xlink:href="#wheelBig" transform="translate(-92,62)"/>
    <use xlink:href="#wheelBig" transform="translate(78,62)"/>
    <!-- body -->
    <path d="M-150,40 Q-154,-6 -110,-20 Q-88,-52 -28,-56 Q34,-58 62,-26 Q104,-16 108,22
             Q110,52 76,60 L-118,60 Q-148,56 -150,40 Z" fill="url(#rivalBody)" stroke="#07505e" stroke-width="7"/>
    <path d="M-108,-16 Q-80,-42 -28,-46 Q14,-47 44,-28 Q4,-36 -36,-31 Q-80,-26 -108,-16 Z" fill="#9af0ea" opacity="0.75"/>
    <!-- windshield -->
    <path d="M-76,-20 Q-66,-44 -30,-46 Q8,-46 24,-22 Q26,-8 8,-6 L-62,-6 Q-78,-8 -76,-20 Z"
          fill="#d8f8f6" stroke="#07505e" stroke-width="6"/>
    <!-- headlight eyes: smug half-lidded -->
    <g>
      <circle cx="-122" cy="6" r="20" fill="#fff6cf" stroke="#07505e" stroke-width="5"/>
      <path d="M-142,0 A20,20 0 0 1 -102,0 L-142,0 Z" fill="#0d8597"/>
      <circle cx="-118" cy="9" r="8" fill="#2b2330"/>
    </g>
    <!-- smirk on bumper -->
    <path d="M-136,36 Q-114,50 -94,38" fill="none" stroke="#063b46" stroke-width="7" stroke-linecap="round"/>
    <!-- little flag cosmetic -->
    <g transform="translate(96,-30)">
      <line x1="0" y1="0" x2="0" y2="-46" stroke="#5e4632" stroke-width="6"/>
      <path d="M0,-46 L36,-36 L0,-26 Z" fill="#ffcf3a" stroke="#a8581a" stroke-width="4"/>
    </g>
    <!-- dust kick behind -->
    <g fill="#e8c79a" opacity="0.85" filter="url(#tinyBlur)">
      <circle cx="-188" cy="56" r="30"/>
      <circle cx="-226" cy="66" r="22"/>
      <circle cx="-256" cy="74" r="14"/>
    </g>
  </g>

  <!-- ===================== CRASHED CAR in cactus ===================== -->
  <g transform="translate(965,1320)">
    <!-- big cactus -->
    <g transform="translate(40,-30)">
      <path d="M0,30 L0,-130 Q0,-158 28,-158 Q56,-158 56,-130 L56,30 Z" fill="#3f9e63" stroke="#2a7245" stroke-width="7"/>
      <path d="M-42,-86 Q-72,-86 -72,-116 Q-72,-138 -52,-138 L-52,-104 L0,-104 L0,-74 L-42,-74 Z" fill="#3f9e63" stroke="#2a7245" stroke-width="7"/>
      <path d="M98,-60 Q124,-60 124,-90 Q124,-110 106,-110 L106,-82 L56,-82 L56,-50 L98,-50 Z" fill="#3f9e63" stroke="#2a7245" stroke-width="7"/>
      <!-- spines -->
      <g stroke="#2a7245" stroke-width="4" stroke-linecap="round">
        <line x1="10" y1="-120" x2="-2" y2="-128"/>
        <line x1="46" y1="-100" x2="58" y2="-108"/>
        <line x1="12" y1="-50" x2="0" y2="-56"/>
        <line x1="44" y1="-20" x2="56" y2="-26"/>
      </g>
    </g>
    <!-- car nose-down, rear up, tilted -->
    <g transform="translate(-58,-14) rotate(64)">
      <path d="M-104,30 Q-108,-8 -72,-20 Q-54,-44 -10,-48 Q38,-50 60,-24 Q92,-16 96,14
               Q98,40 68,48 L-80,48 Q-102,44 -104,30 Z" fill="url(#crashBody)" stroke="#4a2a80" stroke-width="7"/>
      <path d="M-72,-16 Q-50,-36 -10,-40 Q24,-41 46,-26 Q12,-32 -22,-27 Q-52,-22 -72,-16 Z" fill="#d9c2fa" opacity="0.7"/>
      <!-- windshield squished -->
      <path d="M-56,-16 Q-48,-36 -16,-38 Q14,-38 28,-18 Q30,-6 14,-4 L-44,-4 Q-58,-6 -56,-16 Z"
            fill="#e9defc" stroke="#4a2a80" stroke-width="5"/>
      <!-- X X dizzy eyes on windshield -->
      <g stroke="#3a2a2a" stroke-width="5" stroke-linecap="round">
        <line x1="-32" y1="-28" x2="-18" y2="-14"/>
        <line x1="-18" y1="-28" x2="-32" y2="-14"/>
        <line x1="2" y1="-28" x2="16" y2="-14"/>
        <line x1="16" y1="-28" x2="2" y2="-14"/>
      </g>
      <!-- wheels flailing -->
      <use xlink:href="#wheel" transform="translate(-72,52)"/>
      <use xlink:href="#wheel" transform="translate(58,52)"/>
      <!-- folded ramp dangling -->
      <path d="M-104,18 L-128,-6 L-116,-16 L-94,8 Z" fill="#ffce3d" stroke="#a8581a" stroke-width="5"/>
    </g>
    <!-- spinning stars circle above the wreck -->
    <g transform="translate(-92,-128)">
      <ellipse cx="0" cy="6" rx="62" ry="20" fill="none" stroke="#fff3b8" stroke-width="5" stroke-dasharray="3 14" opacity="0.95"/>
      <use xlink:href="#dizzyStar" transform="translate(-58,4) rotate(-20)"/>
      <use xlink:href="#dizzyStar" transform="translate(0,-14) rotate(15) scale(0.9)"/>
      <use xlink:href="#dizzyStar" transform="translate(56,6) rotate(40) scale(0.8)"/>
    </g>
    <!-- dust poof of impact -->
    <g fill="#e8c79a" opacity="0.9" filter="url(#tinyBlur)">
      <circle cx="-118" cy="36" r="34"/>
      <circle cx="-152" cy="52" r="22"/>
      <circle cx="-70" cy="52" r="26"/>
      <circle cx="-30" cy="60" r="18"/>
    </g>
    <!-- little spring popped loose -->
    <g transform="translate(-178,-46)" stroke="#5e4632" stroke-width="5" fill="none" stroke-linecap="round">
      <path d="M0,0 q10,-8 0,-14 q-10,-6 0,-13 q10,-6 0,-13"/>
    </g>
  </g>

  <!-- ===================== FOREGROUND DUST & SPEED ===================== -->
  <g fill="#f0d4a8" filter="url(#softBlur)">
    <ellipse cx="120" cy="1560" rx="240" ry="80" opacity="0.8"/>
    <ellipse cx="1080" cy="1580" rx="280" ry="90" opacity="0.8"/>
    <ellipse cx="620" cy="1620" rx="320" ry="70" opacity="0.65"/>
  </g>
  <g stroke="#ffffff" stroke-width="7" stroke-linecap="round" opacity="0.5">
    <line x1="40" y1="700" x2="190" y2="690"/>
    <line x1="20" y1="760" x2="130" y2="754"/>
    <line x1="1060" y1="600" x2="1180" y2="592"/>
  </g>
  <!-- distant birds in the big sky -->
  <g stroke="#0c6e7d" stroke-width="6" stroke-linecap="round" fill="none" opacity="0.75">
    <path d="M250,560 q16,-16 32,0 q16,-16 32,0"/>
    <path d="M340,600 q12,-12 24,0 q12,-12 24,0"/>
    <path d="M880,470 q13,-13 26,0 q13,-13 26,0"/>
  </g>

  <!-- foreground rock corner, bottom-left -->
  <path d="M-20,1600 L-20,1430 L70,1402 L170,1438 L228,1530 L210,1600 Z" fill="url(#rockFg)"/>
  <path d="M70,1402 L170,1438 L150,1466 L62,1434 Z" fill="#b05a30" opacity="0.8"/>
  <!-- foreground rock corner, bottom-right -->
  <path d="M1220,1600 L1220,1470 L1130,1452 L1052,1502 L1066,1600 Z" fill="url(#rockFg)"/>

  <!-- ===================== TITLE BLOCK ===================== -->
  <g transform="translate(600,210) rotate(-4)" filter="url(#titleShadow)">
    <!-- stroke-only dark layer underneath -->
    <text x="-430" y="40" font-family="'Arial Black','Impact',sans-serif" font-weight="900" font-size="150"
          textLength="400" lengthAdjust="spacingAndGlyphs" fill="none" stroke="#5e1804" stroke-width="26" stroke-linejoin="round">RAMP</text>
    <text x="125" y="40" font-family="'Arial Black','Impact',sans-serif" font-weight="900" font-size="150"
          textLength="305" lengthAdjust="spacingAndGlyphs" fill="none" stroke="#5e1804" stroke-width="26" stroke-linejoin="round">AGE</text>
    <!-- ramp wedge hyphen: dark under-layer -->
    <path d="M8,30 L100,30 L100,-44 Z" fill="none" stroke="#5e1804" stroke-width="24" stroke-linejoin="round"/>
    <!-- fill-only layer on top -->
    <text x="-430" y="40" font-family="'Arial Black','Impact',sans-serif" font-weight="900" font-size="150"
          textLength="400" lengthAdjust="spacingAndGlyphs" fill="url(#titleGrad)">RAMP</text>
    <text x="125" y="40" font-family="'Arial Black','Impact',sans-serif" font-weight="900" font-size="150"
          textLength="305" lengthAdjust="spacingAndGlyphs" fill="url(#titleGrad)">AGE</text>
    <!-- ramp wedge hyphen: gradient fill with chevron -->
    <path d="M8,30 L100,30 L100,-44 Z" fill="url(#rampWedgeGrad)"/>
    <path d="M40,24 L62,24 L51,2 Z" fill="#8f3c12" opacity="0.8"/>
    <!-- tiny car zipping off the wedge -->
    <g transform="translate(84,-62) rotate(-36)">
      <rect x="-16" y="-10" width="32" height="14" rx="7" fill="#f2452a" stroke="#5e1804" stroke-width="3"/>
      <circle cx="-9" cy="6" r="5" fill="#2b2330"/>
      <circle cx="9" cy="6" r="5" fill="#2b2330"/>
    </g>
    <!-- shine swipe across the title -->
    <path d="M-300,-78 L-256,-78 L-150,46 L-194,46 Z" fill="#ffffff" opacity="0.28"/>
  </g>

  <!-- tagline -->
  <g transform="translate(600,335)">
    <rect x="-356" y="-32" width="712" height="58" rx="29" fill="#07343d" opacity="0.82"/>
    <text x="0" y="8" text-anchor="middle" font-family="'Trebuchet MS','Verdana',sans-serif" font-weight="bold"
          font-size="31" fill="#ffe9b0" letter-spacing="1.5">Your speed. Their ramp. Everyone&#8217;s problem.</text>
  </g>

  <!-- studio strap -->
  <text x="600" y="1572" text-anchor="middle" font-family="'Trebuchet MS','Verdana',sans-serif" font-weight="bold"
        font-size="24" fill="#fdf3d0" letter-spacing="6" opacity="0.85">A 60-SECOND COMEDY RACER &#8226; CONCEPT KEY ART</text>

  <rect x="0" y="0" width="1200" height="1600" fill="url(#vignette)"/>
  <rect x="0" y="0" width="1200" height="1600" filter="url(#grain)" opacity="0.05" fill="#000000"/>
</svg>
